<svg id="Capa_1" data-name="Capa 1" xmlns="http://www.w3.org/2000/svg" xmlns:xlink="http://www.w3.org/1999/xlink" viewBox="0 0 306.19 283.36"><defs><style>.cls-1{fill:none;}.cls-2{clip-path:url(#clip-path);}.cls-3{fill:url(#Безымянный_градиент_10);}.cls-4{clip-path:url(#clip-path-2);}</style><clipPath id="clip-path" transform="translate(-106 -12)"><path class="cls-1" d="M405.93,130.57S377,162.75,361.34,169.13c-18.56,7.8-7.29-22.36,2.49-55.88,3.55-11.23,7.41-22.78,11.06-32.93,2.16.44,4.57.74,6.54,1.12,2.16.43,4.38.68,6.35,1.06,1.78.32,3.61.45,5.2.72l4.19.62a27.34,27.34,0,0,0,3.48.2L402,78l-3.44-1-4-1.19c-1.53-.46-3.31-.78-5.22-1.35s-3.82-1.14-6-1.57c-1.72-.51-3.69-.89-5.41-1.4,2.26-6.2,4.41-12,6-16.54,11.89-30.81-22.79-33.23-22.79-33.23-.26,5.75-6.34,22.68-13.94,43.31a1.5,1.5,0,0,0-.82,0c-2.35-.49-4.7-1-6.92-1.23-2.16-.44-4.38-.68-6.16-1-4-.57-7.17-1.09-9.39-1.34a20.91,20.91,0,0,1-2.6-.36,3.51,3.51,0,0,1-1-.09L319.1,67l.76.23,2.68.8,9,2.68c2,.38,4.07,1,6.17,1.63,2,.38,4.07,1,6.42,1.5-2.94,8.1-6,16.61-8.87,25.14h0s-12.15,25.52-30.46,45.73c-12.88,14.07-14.33-4.1-11.68-37,2.85-32.9-31.13-25.58-31.13-25.58.77,3.2.74,8,.3,13.37-6-1-19.34-2.34-32.17,5.54a32.78,32.78,0,0,0-14.23,18.78c-11.35,34-34.9,58.35-43.84,39.78-5.15-11-10.62-32.24-15.81-56.87C162.5,101.29,193,90,193,90l-3.46-9.32s-26.35,7.77-30.29,8.74c-3.23.67-4,1.16-5.72,1-3-14.68-5.67-28.83-7.52-39.9,6.66-1.33,15.27-2.33,25.08-3.45,24.46-2.67,10.2-34.42,10.2-34.42-7.84,4.73-79.16,1.68-71.8,34.61,7.65,38,16.85,115.2,36.68,132.71,19.66,18.66,53.34,2.48,71.12-44.36,2.14,3.42,5.74,6,11.06,6.94,13.55,2.3,22.78-4.21,29.61-10.74-1.35,19.14.52,36.12,16.28,36.24,21.75.17,39.47-19.36,51.3-37.68-7.15,26.5-9.49,48.31,1.63,52.12,36.62,14,82-47.59,82-47.59ZM259.68,117c-8.85,9.51-24.08,18-23.37,3.41.5-13.76,18.87-14.82,24.85-14.77C260.53,109.27,260.11,113.06,259.68,117Z"/></clipPath><linearGradient id="Безымянный_градиент_10" y1="141.68" x2="306.19" y2="141.68" gradientUnits="userSpaceOnUse"><stop offset="0" stop-color="#fec539"/><stop offset="1" stop-color="#ec608f"/></linearGradient><clipPath id="clip-path-2" transform="translate(-106 -12)"><path class="cls-1" d="M366.54,232.75c-5.82,14.06-55.28,75.11-52.91,29.08,6.84-.22,18.92-2.09,24.05-11.73,7.54-14,.15-22.86-7.59-24.87-8.66-2.16-33.65.35-42.06,24.38-5.16,5.56-11.38,12-17.86,18.19-16,15.32-12-2.33-11.91-33.79,0-30.31-29.53-22.34-31.59-21.81l-.93.26a22,22,0,0,0-6.35,4.3,28.49,28.49,0,0,0-5.47,8.23,52.39,52.39,0,0,0-3.57,10.76c-.59,2.33-1,4.84-1.52,7.55l0-.57c-.16-2.09-.52-4.35-.88-6.61s-.73-4.52-1.29-7a30.88,30.88,0,0,0-1-3.54c-.47-1.11-.93-2.22-1.6-3.5l-1.3-2a10.88,10.88,0,0,0-2.24-1.93,7.25,7.25,0,0,0-3.12-.91l-.57,0-.39-.16-.38,0a.7.7,0,0,1-.55.23,4.49,4.49,0,0,0-1.68.51,9.21,9.21,0,0,0-2.33,1.89,11.5,11.5,0,0,0-1.4,1.63,23,23,0,0,0-1.84,3.38,57.39,57.39,0,0,0-2.38,6.28c-.45,1.56-.73,2.92-1.2,4.28a40.37,40.37,0,0,0,0-5c-.32-34.29-29.48-24.06-29.48-24.06,5.79,18.43-11.38,83.41,16.24,80.55,5.29-.59,13.5-2.94,15.71-16.45.12-1,.35-2.89.54-5.38.66-3.86,1.38-9.45,2.42-15.82q.77-4.92,2.06-10.45l1.3-5.44c.63-1.76,1.24-3.72,1.89-5.29.32-.79.83-1.59,1.15-2.37l.53-.61a2.59,2.59,0,0,1,.63.71,29.1,29.1,0,0,1,2.11,5.18c.54,2.06.89,4.13,1.42,6.18l1.07,6.59c.55,2.25.92,4.51,1.47,6.75a30.47,30.47,0,0,0,1,3.54,2.67,2.67,0,0,0,.47,1.11,8.38,8.38,0,0,0,1.06,1.44,4.18,4.18,0,0,0,1,.69,3.84,3.84,0,0,0,2.13.41l.38,0c.38,0,.55-.23.74-.25l.92-.45.88-1,.66-1.39a2.69,2.69,0,0,1,.29-1.16c.15-.58.1-1.15.25-1.73l.32-3.27c.44-4.23.91-8.08,1.39-11.73a60,60,0,0,1,2.66-10.12,28.48,28.48,0,0,1,4.21-7.37,14,14,0,0,1,5-3.82.19.19,0,0,1,.17-.2c22.21-6.27-10.51,79.72,17.92,77.56,15.49-1.18,29.47-13.67,40-26.71-1.78,50.73,57.73,29.25,85.31-30.5Zm-39.23,3.12c7.41-.25,6.4,8.18,5.23,10.92-1.67,3.91-6,10.27-18.43,10.25C316.44,235.76,325,235.82,327.3,235.87ZM196.74,224.78V225C196.74,224.78,196.55,224.8,196.74,224.78Z"/></clipPath></defs><title>eat me</title><g class="cls-2"><rect class="cls-3" width="306.19" height="283.36"/></g><g class="cls-4"><rect class="cls-3" width="306.19" height="283.36"/></g></svg>