<svg id="Capa_1" data-name="Capa 1" xmlns="http://www.w3.org/2000/svg" viewBox="0 0 503.32 329.76"><defs><style>.cls-1{fill:#d1d1d1;}.cls-2{fill:#e5e5e5;}.cls-3{fill:#fff;}.cls-4{fill:#c9c9c9;}.cls-5{fill:#dedede;}</style></defs><title>tarelka</title><path class="cls-1" d="M8.68,277.69H512a52.06,52.06,0,0,1-52.07,52.07H60.75A52.06,52.06,0,0,1,8.68,277.69Z" transform="translate(-8.68)"/><path class="cls-2" d="M477.29,277.69H43.39V269c0-119.82,97.13-216.95,216.95-216.95h0c119.82,0,216.95,97.13,216.95,216.95Z" transform="translate(-8.68)"/><path class="cls-3" d="M115.42,173.63l-14.48-9.55a192.41,192.41,0,0,1,16.7-21.69l13,11.52A175.91,175.91,0,0,0,115.42,173.63Z" transform="translate(-8.68)"/><path class="cls-3" d="M141.61,142.54l-11.88-12.64A190.11,190.11,0,0,1,260.34,78.1V95.46A172.84,172.84,0,0,0,141.61,142.54Z" transform="translate(-8.68)"/><polygon class="cls-1" points="277.69 0 225.63 0 225.63 17.36 242.98 17.36 242.98 52.07 260.34 52.07 260.34 17.36 277.69 17.36 277.69 0"/><path class="cls-4" d="M386.61,277.69a568.08,568.08,0,0,1-153.17,52.07H459.93A52.06,52.06,0,0,0,512,277.69Z" transform="translate(-8.68)"/><path class="cls-5" d="M477.29,269A216.31,216.31,0,0,0,409.23,111.3c-60.87,86.88-171.06,138.77-249.46,166.39H477.29Z" transform="translate(-8.68)"/></svg>