<svg id="Слой_1" data-name="Слой 1" xmlns="http://www.w3.org/2000/svg" viewBox="0 0 20.89 14.56"><defs><style>.cls-1{fill:#e6e6e6;}</style></defs><title>par</title><path class="cls-1" d="M365.84,660.56a.8.8,0,0,1-.56-.23,3.69,3.69,0,0,1,0-5.21,2.09,2.09,0,0,0,0-2.95.8.8,0,1,1,1.13-1.13,3.68,3.68,0,0,1,0,5.21,2.08,2.08,0,0,0,0,2.95.8.8,0,0,1-.57,1.37Zm0,0" transform="translate(-364.2 -646)"/><path class="cls-1" d="M383.44,660.56a.8.8,0,0,1-.57-.23,3.69,3.69,0,0,1,0-5.21,2.08,2.08,0,0,0,0-2.95A.8.8,0,0,1,384,651a3.69,3.69,0,0,1,0,5.21,2.08,2.08,0,0,0,0,2.95.8.8,0,0,1-.57,1.37Zm0,0" transform="translate(-364.2 -646)"/><path class="cls-1" d="M374.64,655.76a.8.8,0,0,1-.57-.23,3.7,3.7,0,0,1,0-5.21,2.08,2.08,0,0,0,0-2.95.8.8,0,0,1,1.13-1.13,3.68,3.68,0,0,1,0,5.21,2.08,2.08,0,0,0,0,2.95.8.8,0,0,1-.57,1.37Zm0,0" transform="translate(-364.2 -646)"/></svg>