<svg xmlns="http://www.w3.org/2000/svg" x="0" y="0" viewBox="0 0 112.91 90.62" xml:space="preserve"><style/><switch><g><path d="M59.22 32.32h11.06c1.06 0 2.08.41 2.84 1.14.77.73 1.21 1.75 1.21 2.81v20.51c0 1.06-.44 2.08-1.21 2.81-.76.73-1.78 1.14-2.84 1.14H59.22v-.01h-.01c-.33.05-.62.25-.79.53-.32.43-.5.95-.5 1.49h-.01v.05l-2.74.03V62.67a2.71 2.71 0 0 0-.5-1.48c-.18-.27-.48-.44-.8-.46H42.81c-1.06 0-2.08-.41-2.84-1.14a3.881 3.881 0 0 1-1.21-2.81V36.27c0-1.06.44-2.08 1.21-2.81.76-.73 1.78-1.14 2.84-1.14h11.06c1.05.04 2.03.54 2.68 1.36a3.53 3.53 0 0 1 2.67-1.36zm2.9 18.82h1.75c.87 0 1.69-.4 2.23-1.07.53-.67.81-1.5.79-2.36V37.24h-2.2v10.48c.02.34-.08.68-.28.96-.13.17-.33.26-.54.27h-5.12v2.2h1.17v4.6h2.2v-4.61zm0-14.02h-2.2v9.31h2.2v-9.31zM50.61 55.69h2.2v-4.62c2-.22 3.67-1.63 4.23-3.56.28-.88.41-1.8.37-2.72-.03-.93-.19-1.85-.47-2.74-.84-2.66-2.74-4.86-5.11-4.86s-4.36 2.25-5.24 4.95c-.29.89-.46 1.81-.5 2.74-.04.92.08 1.84.37 2.72a4.956 4.956 0 0 0 4.15 3.45v4.64zm4.23-12.98c-.57-1.82-1.71-3.33-3.01-3.33-1.34 0-2.54 1.56-3.15 3.42-.23.69-.37 1.41-.4 2.14-.03.65.05 1.31.25 1.93.48 1.35 1.82 2.2 3.25 2.05a3.08 3.08 0 0 0 3.19-2.12c.2-.63.29-1.29.26-1.95-.04-.72-.17-1.45-.39-2.14zm15.44-7.65H59.22c-.21 0-.46.22-.7.52-.36.45-.57 1-.6 1.57h-2.75c-.03-.57-.24-1.12-.6-1.57-.23-.3-.49-.52-.7-.52H42.81c-.35 0-.69.13-.94.37-.23.22-.36.52-.36.83v20.51c0 .32.13.62.36.83.25.24.59.37.94.37h11.06c1.03.01 2.01.45 2.7 1.22.67-.74 1.61-1.18 2.6-1.21h.05l.01-.01h11.06c.35 0 .69-.13.94-.37.23-.22.36-.52.36-.83v-20.5c0-.32-.13-.62-.36-.83-.27-.25-.6-.38-.95-.38z" fill-rule="evenodd" clip-rule="evenodd" fill="#5d5d5d"/></g></switch></svg>