<svg xmlns="http://www.w3.org/2000/svg" viewBox="0 0 11.291 12.064"><path d="M14.942,5.656,9.688.316a1.048,1.048,0,0,0-1.5,0L5.311,3.239a1.106,1.106,0,0,0,0,1.537l.477.5h1.1L5.861,4.217a.3.3,0,0,1-.083-.21A.294.294,0,0,1,5.861,3.8l.38-.374L8.047,5.274H9.779L7.107,2.545,8.739.881a.284.284,0,0,1,.2-.087.276.276,0,0,1,.2.082l5.255,5.339a.287.287,0,0,1,.083.2.3.3,0,0,1-.091.2l-.3.3V8.034l.848-.854A1.09,1.09,0,0,0,14.942,5.656Z" transform="translate(-3.959 0)"/><path d="M9.609,21.328H2.177A1.088,1.088,0,0,0,1.091,22.4v2.856h9.565V22.4A1.055,1.055,0,0,0,9.609,21.328ZM3.688,24.286a.762.762,0,0,1-.534-.219.762.762,0,0,1-.534.219.784.784,0,0,1,0-1.568.761.761,0,0,1,.534.219.761.761,0,0,1,.534-.219.784.784,0,0,1,0,1.568Z" transform="translate(-1.091 -15.553)"/><path d="M1.091,40.4a1.094,1.094,0,0,0,1.086,1.08H9.609a1.061,1.061,0,0,0,1.047-1.08v-.063H1.091Z" transform="translate(-1.091 -29.412)"/></svg>