<svg xmlns="http://www.w3.org/2000/svg" x="0" y="0" viewBox="0 0 65.05 37.79" xml:space="preserve"><path d="M32.33 14.98a4.511 4.511 0 0 1 0 9.02 4.511 4.511 0 0 1 0-9.02zm3.33 4.84a.334.334 0 0 1-.31-.35c.01-.17.14-.31.31-.31h.5a3.848 3.848 0 0 0-3.5-3.5v.5c-.01.18-.17.32-.35.31a.326.326 0 0 1-.31-.31v-.5a3.848 3.848 0 0 0-3.5 3.5h.5c.18-.01.34.13.35.31.01.18-.13.34-.31.35h-.54a3.848 3.848 0 0 0 3.5 3.5v-.5c-.01-.18.13-.34.31-.35s.34.13.35.31v.54a3.848 3.848 0 0 0 3.5-3.5h-.5zm-2.86-.08l1.5-1.73a.332.332 0 1 0-.47-.47c-.01.01-.02.02-.03.04l-1.47 1.7c-.06 0-.12.02-.18.04l-1.34-.62a.33.33 0 0 0-.42.2c-.05.15.01.32.15.4l1.36.63c.06.19.24.33.44.33.26-.01.47-.23.46-.49v-.03z" transform="scale(6, 6)" transform-origin="center" /></svg>