<svg xmlns="http://www.w3.org/2000/svg" x="0" y="0" viewBox="0 0 112.91 92.11" xml:space="preserve"><style>.st47{fill-rule:evenodd;clip-rule:evenodd;fill:#22a391}</style><switch><g><g id="Сгруппировать_675" transform="translate(-16.245 568.235)"><path d="M76.3-533.47c-1.61-1.11-4.8-.94-6.75-.23-9.08 3.3-6.96 17.38 3.15 17.38 8.5 0 11.63-11.01 6.82-14.66.06 3.55-3.08 4.14-4.8 2.81a2.95 2.95 0 0 1-.56-4.14c.52-.68 1.29-1.1 2.14-1.16z"/><path d="M79.5-514.16c-5.53 3.46-13.33 1.96-16.87-2.88-7-9.59-.3-22.02 10.8-21.29 12.82.83 16.72 17.5 6.07 24.17zM103-525.3c-3.16-3.48-15.41-12.95-20.33-14.11 9.92 8.95 9.79 19.11 0 28.22 5.05-1.23 17.3-10.76 20.33-14.11zm-40.28 14.08c-9.9-8.71-9.77-19.84 0-28.17-5.86 1.17-16.08 9.78-20.19 13.84 3.51 3.66 14.49 13.08 20.19 14.33zM36.61-525.3c1.41 2.58 11.54 10.96 14.84 13.11 14.08 9.14 28.27 9.22 42.41.09 2.51-1.62 13.58-10.64 14.93-13.2-1.49-2.7-11.68-11.06-14.82-13.12-13.78-9.07-28.52-9.23-42.41-.05-1.5.99-2.71 1.86-4.02 2.86-2.61 2.21-9.73 8.1-10.93 10.31z"/></g></g></switch></svg>