<svg xmlns="http://www.w3.org/2000/svg" viewBox="0 0 12.323 12.504"><path d="M12.27.637a.523.523,0,0,0-.516-.346H.568A.523.523,0,0,0,.053.637a.518.518,0,0,0,.122.622L4.483,5.637V9.953a.551.551,0,0,0,.166.4l2.237,2.273a.516.516,0,0,0,.393.169A.6.6,0,0,0,7.5,12.75a.531.531,0,0,0,.341-.524V5.637l4.308-4.378A.518.518,0,0,0,12.27.637Z" transform="translate(0 -0.291)"/></svg>

<svg xmlns="http://www.w3.org/2000/svg" viewBox="0 0 12.322 12.504">
  <path id="Path_1458" d="M12.27.637a.523.523,0,0,0-.516-.346H.568A.523.523,0,0,0,.053.637a.518.518,0,0,0,.122.622L4.483,5.637V9.953a.551.551,0,0,0,.166.4l2.237,2.273a.516.516,0,0,0,.393.169A.6.6,0,0,0,7.5,12.75a.531.531,0,0,0,.341-.524V5.637l4.308-4.378A.518.518,0,0,0,12.27.637Z" transform="translate(0 -0.291)" />
</svg>
