<svg width="42" height="19" viewBox="0 0 42 19" fill="none" xmlns="http://www.w3.org/2000/svg">
<path d="M19.227 15.8852C19.25 15.5172 19.272 15.1492 19.32 14.7772C19.4252 13.892 19.5841 13.0141 19.796 12.1482C19.915 11.7182 20.044 11.2942 20.18 10.8792C20.353 10.4742 20.523 10.0712 20.692 9.67922C21.0472 8.93317 21.4907 8.23248 22.013 7.59222C22.134 7.43722 22.254 7.29222 22.372 7.13722C22.506 7.00322 22.641 6.87322 22.772 6.74222C23.0203 6.49158 23.2817 6.25424 23.555 6.03122C24.029 5.64636 24.536 5.30404 25.07 5.00822C25.4671 4.76899 25.8824 4.56135 26.312 4.38722C27.028 4.09922 27.434 3.95422 27.434 3.95422C27.434 3.95422 27.088 4.22922 26.482 4.67522C26.1215 4.94285 25.7747 5.22855 25.443 5.53122C25.0125 5.90859 24.6029 6.30919 24.216 6.73122C23.995 6.95222 23.823 7.23122 23.616 7.48522C23.514 7.61856 23.4094 7.75022 23.302 7.88022C23.215 8.02722 23.125 8.17422 23.033 8.32522C22.648 8.94495 22.3177 9.59708 22.046 10.2742C21.9214 10.6349 21.7947 11.0016 21.666 11.3742C21.578 11.7592 21.48 12.1472 21.374 12.5352C21.1978 13.3409 21.0693 14.1564 20.989 14.9772C20.942 15.2772 20.919 15.5852 20.889 15.8932C27.521 15.8932 32.655 15.8982 39.837 15.8982C39.861 15.5832 39.875 15.2642 39.875 14.9442C39.9162 12.0995 38.9129 9.33839 37.055 7.18369C35.1972 5.02898 32.6139 3.63022 29.794 3.25222C30.07 2.99519 30.2622 2.66104 30.3456 2.29326C30.4289 1.92549 30.3997 1.54113 30.2616 1.19022C30.1235 0.839306 29.8829 0.538102 29.5712 0.325817C29.2595 0.113532 28.8912 0 28.514 0C28.1369 0 27.7686 0.113532 27.4569 0.325817C27.1452 0.538102 26.9046 0.839306 26.7665 1.19022C26.6284 1.54113 26.5991 1.92549 26.6825 2.29326C26.7659 2.66104 26.9581 2.99519 27.234 3.25222C24.4145 3.63046 21.8315 5.02936 19.974 7.18406C18.1166 9.33877 17.1136 12.0997 17.155 14.9442C17.155 15.2642 17.167 15.5782 17.19 15.8922L19.227 15.8852Z" fill="#24A391"/>
<path d="M41.942 16.5852H15.083V18.9542H41.942V16.5852Z" fill="#24A391"/>
<path d="M1 15.3103H11.806" stroke="#24A391" stroke-linecap="round"/>
<path d="M3.7019 12.6082H11.8069" stroke="#24A391" stroke-linecap="round"/>
<path d="M6.40308 9.90723H11.8061" stroke="#24A391" stroke-linecap="round"/>
</svg>
