<svg xmlns="http://www.w3.org/2000/svg" x="0" y="0" viewBox="0 0 62.18 112.5" xml:space="preserve"><style/><switch><g><g transform="translate(153 233.162)"><g transform="translate(40 306)"><circle cx="-161.87" cy="-500.67" r="4.5" fill="#fff"/><circle cx="-161.87" cy="-500.67" r="4" fill="none" stroke="#5d5d5d"/></g><path d="M-122.09-138.86c-.27 0-.53-.1-.72-.29-.15-.15-3.57-3.57-3.57-7.17a4.272 4.272 0 0 1 4.29-4.24 4.272 4.272 0 0 1 4.29 4.24c0 3.6-3.42 7.02-3.57 7.17-.19.18-.45.29-.72.29zm-.09-9.5c-1.14.02-2.06.96-2.04 2.1s.96 2.06 2.1 2.04c1.13-.02 2.04-.94 2.04-2.07a2.087 2.087 0 0 0-2.1-2.07z" fill="#1ba992"/><path fill="none" stroke="#5d5d5d" stroke-width="3" stroke-dasharray="5,3" d="M-121.87-188.67v38"/></g></g></switch></svg>
