<svg xmlns="http://www.w3.org/2000/svg" viewBox="0 0 44.235 32.896"><path d="M6.865,115.054h23.3a2.011,2.011,0,1,0,0-4.021H6.865l2.6-2.6a2.011,2.011,0,0,0-2.844-2.844L.589,111.621c-.047.047-.091.1-.132.146-.01.012-.019.026-.029.039-.031.039-.061.078-.088.119-.008.012-.015.025-.023.037-.028.043-.055.087-.079.132l-.013.027c-.025.049-.05.1-.071.151,0,.006,0,.013-.007.019-.022.054-.042.109-.059.165,0,.007,0,.014-.005.022-.016.055-.031.111-.042.168,0,.017,0,.035-.008.052-.008.047-.017.095-.021.143a1.983,1.983,0,0,0,0,.4c0,.049.013.1.021.145,0,.017,0,.034.008.05.012.058.026.114.043.17,0,.007,0,.014.005.02.017.057.038.112.06.167l.007.018c.021.052.046.1.072.151l.013.027c.025.046.052.09.08.133.008.012.014.024.022.036.028.041.058.081.089.12.01.013.018.026.029.038.042.051.086.1.132.146L6.621,120.5a2.011,2.011,0,0,0,2.844-2.844Z" transform="translate(0 -96.596)"/><path d="M116.846,42.3a16.436,16.436,0,0,0-13.66,7.283,2.011,2.011,0,0,0,3.338,2.243,12.426,12.426,0,1,1,.017,13.868,2.011,2.011,0,0,0-3.332,2.251A16.448,16.448,0,1,0,116.846,42.3Z" transform="translate(-89.059 -42.299)"/></svg>