<svg xmlns="http://www.w3.org/2000/svg" viewBox="0 0 13.606 14.26"><g transform="translate(-4.916 0.25)"><path class="a" d="M15.458,31.958H7.979a1.863,1.863,0,0,1,0-3.726h4.675a.475.475,0,1,0,0-.95H7.979a2.813,2.813,0,0,0,0,5.627h7.479a1.863,1.863,0,0,1,0,3.726H10.743a.475.475,0,0,0,0,.95h4.715a2.813,2.813,0,0,0,0-5.627Z" transform="translate(0 -25.553)"/><path class="a" d="M18.948,130a2,2,0,0,0-2,2,5.744,5.744,0,0,0,1.664,3.385.475.475,0,0,0,.672,0A5.745,5.745,0,0,0,20.948,132,2,2,0,0,0,18.948,130Zm0,4.33A4.18,4.18,0,0,1,17.9,132a1.05,1.05,0,1,1,2.1,0A4.18,4.18,0,0,1,18.948,134.331Z" transform="translate(-11.036 -121.765)"/><path class="a" d="M138.485,5.524a.474.474,0,0,0,.336-.139A5.744,5.744,0,0,0,140.485,2a2,2,0,0,0-4,0,5.744,5.744,0,0,0,1.664,3.385A.473.473,0,0,0,138.485,5.524Zm0-4.574A1.051,1.051,0,0,1,139.535,2a4.179,4.179,0,0,1-1.05,2.331A4.18,4.18,0,0,1,137.435,2,1.051,1.051,0,0,1,138.485.95Z" transform="translate(-123 0)"/></g></svg>