<svg xmlns="http://www.w3.org/2000/svg" viewBox="0 0 15.536 15.539"><g transform="translate(0.5 0.5)"><path class="a" d="M14.46,13.8l-3.533-3.533a6.2,6.2,0,1,0-.613.613l3.533,3.533a.438.438,0,0,0,.306.129.425.425,0,0,0,.306-.129A.436.436,0,0,0,14.46,13.8ZM.917,6.2a5.329,5.329,0,1,1,5.329,5.332A5.335,5.335,0,0,1,.917,6.2Z" transform="translate(-0.05)"/></g></svg>

<svg xmlns="http://www.w3.org/2000/svg" viewBox="0 0 15.536 15.539">
  <path data-name="Path 1615" d="M14.46,13.8l-3.533-3.533a6.2,6.2,0,1,0-.613.613l3.533,3.533a.438.438,0,0,0,.306.129.425.425,0,0,0,.306-.129A.436.436,0,0,0,14.46,13.8ZM.917,6.2a5.329,5.329,0,1,1,5.329,5.332A5.335,5.335,0,0,1,.917,6.2Z" transform="translate(0.45 0.5)" stroke-width="1"/>
</svg>
