<svg xmlns="http://www.w3.org/2000/svg" viewBox="0 0 14.405 14.104"><path d="M12.425,5.661,12.062,4.8a15.684,15.684,0,0,0,.771-1.982l-1.12-1.094a15.478,15.478,0,0,0-1.987.8l-.881-.356A15.557,15.557,0,0,0,7.96.226H6.38a14.667,14.667,0,0,0-.83,1.939l-.879.357a16.306,16.306,0,0,0-2.024-.755L1.527,2.862A14.766,14.766,0,0,0,2.34,4.808l-.364.863A16.487,16.487,0,0,0,0,6.535V8.084A15.3,15.3,0,0,0,1.981,8.9l.364.861a15.767,15.767,0,0,0-.772,1.981l1.12,1.1a15.747,15.747,0,0,0,1.986-.8l.881.357a15.451,15.451,0,0,0,.885,1.934H8.026a14.756,14.756,0,0,0,.83-1.939l.882-.357a16.432,16.432,0,0,0,2.021.756l1.12-1.095a14.605,14.605,0,0,0-.814-1.946l.363-.863a16.308,16.308,0,0,0,1.977-.867V6.471A15.322,15.322,0,0,0,12.425,5.661ZM9.512,7.277A2.31,2.31,0,1,1,7.2,5.019,2.288,2.288,0,0,1,9.512,7.277Z" transform="translate(0 -0.226)"/></svg>