<svg xmlns="http://www.w3.org/2000/svg" viewBox="0 0 11.405 14.104"><path d="M55.949,1.69h-2.2a1.909,1.909,0,0,0-3.792,0h-2.2A1.613,1.613,0,0,0,46.155,3.3v.083a1.613,1.613,0,0,0,1.018,1.5v7.612A1.613,1.613,0,0,0,48.784,14.1h6.146a1.613,1.613,0,0,0,1.611-1.611V4.881a1.613,1.613,0,0,0,1.018-1.5V3.3A1.613,1.613,0,0,0,55.949,1.69ZM51.858.764a1.147,1.147,0,0,1,1.124.926H50.734A1.147,1.147,0,0,1,51.858.764Zm3.92,11.728a.848.848,0,0,1-.847.847H48.784a.848.848,0,0,1-.847-.847V5h7.84ZM56.8,3.384a.848.848,0,0,1-.847.847H47.766a.848.848,0,0,1-.847-.847V3.3a.848.848,0,0,1,.847-.847h8.183A.848.848,0,0,1,56.8,3.3v.083Z" transform="translate(-46.155 0)"/><path d="M158.457,254.637a.382.382,0,0,0,.382-.382v-4.3a.382.382,0,1,0-.764,0v4.3A.382.382,0,0,0,158.457,254.637Z" transform="translate(-154.803 -242.275)"/><path d="M228.527,254.637a.382.382,0,0,0,.382-.382v-4.3a.382.382,0,1,0-.764,0v4.3A.382.382,0,0,0,228.527,254.637Z" transform="translate(-222.825 -242.275)"/><path d="M298.6,254.637a.382.382,0,0,0,.382-.382v-4.3a.382.382,0,1,0-.764,0v4.3A.382.382,0,0,0,298.6,254.637Z" transform="translate(-290.845 -242.275)"/></svg>