<svg width="48" height="48" viewBox="0 0 48 48" fill="none" xmlns="http://www.w3.org/2000/svg">
<path d="M16.503 36.8543L9.49305 40.6843C9.09305 40.9043 8.71305 41.1743 8.37305 41.4843C17.083 48.8243 29.803 48.8543 38.553 41.5643C38.173 41.2443 37.763 40.9643 37.313 40.7343L29.803 36.9843C28.833 36.5043 28.223 35.5043 28.223 34.4243V31.4743C28.473 31.1843 28.713 30.8743 28.933 30.5643C29.943 29.1243 30.733 27.5443 31.263 25.8643C32.253 25.5643 32.933 24.6543 32.933 23.6143V20.4743C32.933 19.8043 32.643 19.1743 32.143 18.7343V14.1843C32.143 14.1843 33.083 7.11426 23.503 7.11426C13.923 7.11426 14.853 14.1843 14.853 14.1843V18.7343C14.353 19.1743 14.073 19.8143 14.063 20.4743V23.6243C14.063 24.4243 14.473 25.1743 15.153 25.6043C15.673 27.7443 16.643 29.7443 17.993 31.4843V34.3543C17.993 35.3843 17.423 36.3543 16.503 36.8543Z" fill="#E5EDEF"/>
<path d="M23.904 0.00377096C10.934 -0.226229 0.233956 10.0938 0.00395577 23.0638C-0.126044 30.1438 2.95396 36.9138 8.38396 41.4638C8.72396 41.1638 9.10396 40.8938 9.49396 40.6738L16.504 36.8438C17.424 36.3438 17.994 35.3738 17.994 34.3338V31.4638C16.644 29.7238 15.674 27.7238 15.154 25.5838C14.474 25.1538 14.064 24.4038 14.064 23.6038V20.4638C14.064 19.7938 14.354 19.1638 14.854 18.7238V14.1738C14.854 14.1738 13.924 7.10377 23.504 7.10377C33.084 7.10377 32.154 14.1738 32.154 14.1738V18.7238C32.654 19.1638 32.934 19.8038 32.944 20.4638V23.6038C32.934 24.6338 32.264 25.5438 31.274 25.8438C30.744 27.5238 29.954 29.1038 28.944 30.5438C28.724 30.8638 28.484 31.1638 28.234 31.4538V34.4038C28.234 35.4938 28.844 36.4838 29.814 36.9738L37.324 40.7238C37.764 40.9538 38.184 41.2238 38.554 41.5538C48.524 33.2438 49.874 18.4238 41.564 8.45377C37.174 3.20377 30.734 0.113771 23.904 0.00377096Z" fill="#C0C0BF"/>
<path d="M24 34C22.0222 34 20.0888 33.4135 18.4443 32.3147C16.7998 31.2159 15.5181 29.6541 14.7612 27.8268C14.0043 25.9996 13.8063 23.9889 14.1922 22.0491C14.578 20.1093 15.5304 18.3275 16.9289 16.9289C18.3275 15.5304 20.1093 14.578 22.0491 14.1922C23.9889 13.8063 25.9996 14.0043 27.8268 14.7612C29.6541 15.5181 31.2159 16.7998 32.3147 18.4443C33.4135 20.0888 34 22.0222 34 24C33.9971 26.6513 32.9426 29.1931 31.0679 31.0679C29.1931 32.9426 26.6513 33.9971 24 34V34ZM24 15.142C22.2483 15.1418 20.5358 15.6611 19.0792 16.6341C17.6225 17.6072 16.4871 18.9903 15.8166 20.6087C15.146 22.227 14.9704 24.0078 15.312 25.7259C15.6535 27.4441 16.4969 29.0223 17.7355 30.2611C18.974 31.5 20.5521 32.3437 22.2701 32.6856C23.9882 33.0276 25.769 32.8524 27.3875 32.1822C29.006 31.512 30.3894 30.3769 31.3628 28.9205C32.3362 27.4641 32.8558 25.7518 32.856 24C32.8536 21.6518 31.9199 19.4004 30.2596 17.7398C28.5994 16.0792 26.3482 15.1449 24 15.142V15.142Z" fill="#24A391"/>
<path d="M27.8263 24.5529H20.1723C20.0975 24.556 20.0228 24.544 19.9528 24.5176C19.8827 24.4912 19.8188 24.4508 19.7647 24.399C19.7107 24.3472 19.6677 24.285 19.6383 24.2162C19.6089 24.1473 19.5938 24.0732 19.5938 23.9984C19.5938 23.9235 19.6089 23.8494 19.6383 23.7805C19.6677 23.7117 19.7107 23.6495 19.7647 23.5977C19.8188 23.5459 19.8827 23.5055 19.9528 23.4791C20.0228 23.4527 20.0975 23.4407 20.1723 23.4439H27.8263C27.9693 23.4499 28.1044 23.511 28.2034 23.6143C28.3025 23.7177 28.3578 23.8552 28.3578 23.9984C28.3578 24.1415 28.3025 24.2791 28.2034 24.3824C28.1044 24.4857 27.9693 24.5468 27.8263 24.5529Z" fill="#24A391"/>
<path d="M24.0028 28.3813C23.8557 28.3813 23.7147 28.3229 23.6107 28.2191C23.5066 28.1152 23.448 27.9743 23.4478 27.8273V20.1733C23.4446 20.0985 23.4566 20.0238 23.483 19.9538C23.5094 19.8837 23.5498 19.8198 23.6016 19.7657C23.6534 19.7117 23.7156 19.6686 23.7844 19.6393C23.8533 19.6099 23.9274 19.5947 24.0023 19.5947C24.0771 19.5947 24.1512 19.6099 24.2201 19.6393C24.2889 19.6686 24.3511 19.7117 24.403 19.7657C24.4548 19.8198 24.4951 19.8837 24.5215 19.9538C24.548 20.0238 24.5599 20.0985 24.5568 20.1733V27.8273C24.5569 27.9001 24.5427 27.9722 24.5149 28.0394C24.4871 28.1067 24.4463 28.1678 24.3948 28.2193C24.3433 28.2708 24.2822 28.3116 24.2149 28.3394C24.1477 28.3672 24.0756 28.3814 24.0028 28.3813Z" fill="#24A391"/>
</svg>
