<svg xmlns="http://www.w3.org/2000/svg" width="126.088" height="126.093" viewBox="0 0 126.088 126.093"><defs><style>.a{fill:#fff;}.b{fill:silver;}</style></defs><path class="a" d="M31.2,88.265,12.447,98.583a16.854,16.854,0,0,0-3.01,2.16,62.4,62.4,0,0,0,80.7.211,16.629,16.629,0,0,0-3.306-2.234L66.753,88.593a7.732,7.732,0,0,1-4.234-6.909V73.736a30.56,30.56,0,0,0,1.9-2.464,46.771,46.771,0,0,0,6.243-12.689,6.355,6.355,0,0,0,4.473-6.052V44.048a6.357,6.357,0,0,0-2.1-4.7V27.084S75.531,8,49.909,8,26.784,27.084,26.784,27.084V39.347a6.348,6.348,0,0,0-2.1,4.7v8.483a6.373,6.373,0,0,0,2.908,5.337,42.227,42.227,0,0,0,7.6,15.868v7.751A7.743,7.743,0,0,1,31.2,88.265Z" transform="translate(13.139 10.441)"/><path class="b" d="M64.124.009A62.953,62.953,0,0,0,22.478,111.167a16.752,16.752,0,0,1,2.991-2.125L44.28,98.788a7.678,7.678,0,0,0,4-6.74v-7.7a41.784,41.784,0,0,1-7.627-15.769,6.322,6.322,0,0,1-2.917-5.3v-8.43a6.292,6.292,0,0,1,2.108-4.672V37.983s-2.505-18.964,23.2-18.964,23.2,18.964,23.2,18.964V50.17a6.283,6.283,0,0,1,2.108,4.672v8.43a6.323,6.323,0,0,1-4.487,6.015A46.3,46.3,0,0,1,77.6,81.9a30.411,30.411,0,0,1-1.906,2.449v7.9a7.673,7.673,0,0,0,4.247,6.866l20.144,10.063a16.773,16.773,0,0,1,3.307,2.216A62.976,62.976,0,0,0,64.124.009Z" transform="translate(0 0)"/></svg>