<svg width="512" height="512" xmlns="http://www.w3.org/2000/svg">
 <g>
  <title>MC</title>
  <g id="MC"/>
  <ellipse stroke-width="16" stroke="#aaa" ry="218.50001" rx="218.50001" id="svg_4" cy="257.00001" cx="256.00001" opacity="NaN" fill="#fff"/>
  <ellipse id="svg_5" cy="495.5" cx="498.5" opacity="undefined" stroke="#000" fill="#fff"/>
  <g stroke="null" id="_x38_6-mcdonalds">
   <g stroke="null" id="svg_8" >
    <g stroke="null" id="svg_7" >
     <path stroke="null" id="svg_6" fill="#FFC107" d="m324.26094,120.60461c-25.55544,0 -48.34551,34.14602 -63.26012,87.51862c-14.89521,-53.37198 -37.70711,-87.51862 -63.26618,-87.51862c-44.91534,0 -81.33764,113.6001 -81.33764,253.73439l36.14899,0c0,-130.13163 20.2435,-235.61323 45.18805,-235.61323c24.96635,0 45.18926,97.38311 45.18926,217.48964l36.14777,0c0,-120.10714 20.24411,-217.48964 45.18865,-217.48964c24.96333,0 45.18865,105.48221 45.18865,235.61323l36.15262,0c0.00182,-140.1349 -36.42109,-253.73439 -81.34006,-253.73439l0,0zm0,0" class="bordered"/>
    </g>
   </g>
  </g>
 </g>
</svg>