<svg xmlns="http://www.w3.org/2000/svg" viewBox="0 0 10 64"><switch><g><path fill="#5d5e5d" d="M5 2c2.49 0 4.5 2 4.5 4.48 0 2.47-2.01 4.48-4.5 4.48S.5 8.96.5 6.48C.5 4 2.51 2 5 2zM1 6.48c0 2.2 1.79 3.98 4 3.98s4-1.78 4-3.98S7.21 2.5 5 2.5 1 4.28 1 6.48z"/><path fill="#1ba992" d="M4.79 62c-.27 0-.53-.1-.72-.29C3.92 61.56.5 58.16.5 54.58c.02-2.34 1.93-4.22 4.29-4.21 2.35-.01 4.27 1.87 4.29 4.21 0 3.58-3.42 6.99-3.57 7.13-.2.18-.45.29-.72.29zm-.1-9.45c-1.14.02-2.06.95-2.04 2.09s.96 2.05 2.1 2.03c1.13-.02 2.04-.93 2.04-2.06 0-1.15-.94-2.07-2.1-2.06z"/><path fill="none" stroke="#5d5d5d" stroke-dasharray="5 3" stroke-width="3" d="M5 12.45v37.8"/></g></switch></svg>