<svg xmlns="http://www.w3.org/2000/svg" width="11.146" height="16" viewBox="0 0 11.146 16"><defs><style>.a,.b{fill:#707070;}.b{font-size:6px;font-family:Gilroy-ExtraBold, Gilroy;font-weight:800;}</style></defs><g transform="translate(-16 -3)"><g transform="translate(18.461)"><path class="a" d="M133.964,5.47a.374.374,0,0,0-.341-.22h-1.5V3.375A.375.375,0,0,0,131.748,3h-1.5a.375.375,0,0,0-.375.375V5.25h-1.5a.375.375,0,0,0-.282.622l2.625,3a.374.374,0,0,0,.564,0l2.625-3A.374.374,0,0,0,133.964,5.47Z" transform="translate(-127.998)"/></g><g transform="translate(16 7.9)"><path class="a" d="M25.466,352v2.25H17.456V352H16v3a.739.739,0,0,0,.728.75h9.466a.739.739,0,0,0,.728-.75v-3Z" transform="translate(-16 -352)"/></g><text class="b" transform="translate(16.146 17)"><tspan x="0" y="0">PDF</tspan></text></g></svg>