<svg width="18" height="20" viewBox="0 0 18 20" fill="none" xmlns="http://www.w3.org/2000/svg">
<path d="M8.62312 0C9.027 0.366309 9.42827 0.734705 9.83476 1.09788C10.5778 1.7611 11.3235 2.42119 12.0681 3.08179C12.1067 3.11571 12.1479 3.14702 12.2064 3.19451C10.9994 4.26734 9.8118 5.32348 8.58659 6.41249C8.58659 5.58647 8.58659 4.81054 8.58659 4.03462C5.50115 4.04505 2.12244 6.45424 1.6763 10.3902C1.22441 14.3779 4.07244 17.9063 8.05957 18.352C12.0039 18.7929 15.9608 15.7727 16.0224 11.2126C16.5442 11.2126 17.067 11.2126 17.5893 11.2126C17.7422 14.2354 15.6493 18.5925 10.9013 19.7452C6.1701 20.8937 1.46497 18.0535 0.291942 13.363C-0.386408 10.6511 0.116094 8.12454 1.81301 5.89434C3.5021 3.67457 5.78918 2.53442 8.58346 2.39405C8.58346 1.58682 8.58346 0.793669 8.58346 0C8.59703 0 8.61007 0 8.62312 0Z" fill="white"/>
</svg>
