<svg xmlns="http://www.w3.org/2000/svg" xmlns:xlink="http://www.w3.org/1999/xlink" width="16.126" height="14.048" viewBox="0 0 16.126 14.048"><defs><style>.a{fill:none;}.b{clip-path:url(#a);}.c{fill:url(#b);}</style><clipPath id="a"><path class="a" d="M265.509,612.052h-1.07l-.144-.8a3.649,3.649,0,0,0-3.692-2.879h-5.057a3.044,3.044,0,0,0-3.076,2.4l-.227,1.278h-1.07a.893.893,0,0,0-.893.893v.372a.893.893,0,0,0,.893.893h.625a2,2,0,0,0-.744,1.559v2.438a2,2,0,0,0,.729,1.547v1.31a1.361,1.361,0,0,0,1.355,1.355h.206a1.361,1.361,0,0,0,1.355-1.355v-.849h7.287v.849a1.361,1.361,0,0,0,1.355,1.355h.206a1.361,1.361,0,0,0,1.355-1.355v-1.306a2,2,0,0,0,.729-1.547v-2.438a2,2,0,0,0-.744-1.559h.625a.893.893,0,0,0,.893-.893v-.374a.894.894,0,0,0-.9-.895Zm-12.27,4.913a.889.889,0,1,1,.889-.889A.889.889,0,0,1,253.239,616.964Zm-.179-3.2a1.042,1.042,0,0,0-.158.008l.506-2.835a2.094,2.094,0,0,1,2.138-1.619H260.6a2.7,2.7,0,0,1,2.754,2.094l.423,2.357c-.052,0-.1-.008-.158-.008Zm10.381,3.2a.889.889,0,1,1,.889-.889A.889.889,0,0,1,263.441,616.964Z" transform="translate(-250.28 -608.37)"/></clipPath><linearGradient id="b" y1="0.5" x2="1" y2="0.5" gradientUnits="objectBoundingBox"><stop offset="0" stop-color="#8543f3"/><stop offset="1" stop-color="#af38d2"/></linearGradient></defs><g class="b"><rect class="c" width="16.124" height="16.646" transform="translate(-0.001 -2.347)"/></g></svg>