<svg xmlns="http://www.w3.org/2000/svg" xmlns:xlink="http://www.w3.org/1999/xlink" width="7.585" height="14.048" viewBox="0 0 7.585 14.048"><defs><style>.a{fill:none;}.b{clip-path:url(#a);}.c{fill:url(#b);}.d{clip-path:url(#c);}</style><clipPath id="a"><path class="a" d="M707.765,582.072a1.3,1.3,0,1,0-1.06-1.06A1.3,1.3,0,0,0,707.765,582.072Z" transform="translate(-706.686 -579.493)"/></clipPath><linearGradient id="b" y1="0.5" x2="1" y2="0.5" gradientUnits="objectBoundingBox"><stop offset="0" stop-color="#47c9f3"/><stop offset="1" stop-color="#3875d3"/></linearGradient><clipPath id="c"><path class="a" d="M680.386,626.1l-.8-3.145a1.316,1.316,0,0,0-.275-.517l-1.179-1.384v-.866h0v-.6l1.107.509.05.023a.655.655,0,0,0,.8-.182.643.643,0,0,0-.241-.964l-.655-.308h0l-.84-.394v0l-.225-.108v-1.285c0-.408-.482-1.075-.974-1.075h-1.157a.636.636,0,0,0-.464.194l-1.71,1.767a.643.643,0,0,0-.18.451l.018,1.848a.655.655,0,0,0,.513.643.643.643,0,0,0,.765-.634s-.01-1.178-.014-1.372a.5.5,0,0,1,.134-.378l.683-.7v3.482s-.445,1.156-.592,1.555a3.214,3.214,0,0,1-.488.909l-1.727,2.307a.642.642,0,0,0,.13.894.733.733,0,0,0,1.007-.153s1.713-2.276,1.878-2.5a4.241,4.241,0,0,0,.461-.829l.411-1.054h0l.092-.235h0v0s.894.928,1.1,1.155a1.287,1.287,0,0,1,.37.648l.668,2.621a.678.678,0,1,0,1.319-.316Z" transform="translate(-672.82 -615.81)"/></clipPath></defs><g class="b" transform="translate(2.721)"><rect class="c" width="7.586" height="16.067" transform="translate(-2.723 -1.245)"/></g><g class="d" transform="translate(0 2.918)"><rect class="c" width="7.586" height="16.067" transform="translate(-0.002 -4.162)"/></g></svg>