<svg xmlns="http://www.w3.org/2000/svg" width="12" height="12" viewBox="0 0 12 12"><defs><style>.a{fill:#f3bd44;}</style></defs><path class="a" d="M6.58,1.423,7.933,4.291a.649.649,0,0,0,.487.37l3.027.46A.684.684,0,0,1,11.8,6.273L9.615,8.505a.7.7,0,0,0-.186.6l.517,3.152a.653.653,0,0,1-.938.712L6.3,11.48a.622.622,0,0,0-.6,0L2.993,12.968a.653.653,0,0,1-.938-.712L2.572,9.1a.7.7,0,0,0-.186-.6L.2,6.273A.684.684,0,0,1,.555,5.121l3.027-.46a.649.649,0,0,0,.487-.37L5.421,1.423A.634.634,0,0,1,6.58,1.423Z" transform="translate(-0.001 -1.047)"/></svg>