<svg xmlns="http://www.w3.org/2000/svg" id="Слой_1" x="0" y="0" version="1.1" viewBox="0 0 64 64" xml:space="preserve"><style>.st0{fill:#fff}</style><switch><g><g id="Сгруппировать_3285_1_"><g id="table_1_"><g id="Сгруппировать_158_1_"><g id="Сгруппировать_157_1_"><path id="Контур_1791_1_" d="M58.65 11.68c-2.1 0-3.81 1.71-3.81 3.81v16.5h-8.88a3.809 3.809 0 1 0 0 7.62h6.35v10.15H48.5c-.7-.02-1.28.54-1.3 1.24-.02.7.54 1.28 1.24 1.3h10.21c.7-.02 1.25-.6 1.24-1.3-.02-.68-.56-1.22-1.24-1.24h-3.81V39.6h3.81c2.1 0 3.81-1.71 3.81-3.81v-20.3c0-2.1-1.71-3.81-3.81-3.81z" class="st0"/><path id="Контур_1792_1_" d="M18.04 31.99H9.16v-16.5c0-2.1-1.7-3.81-3.81-3.81s-3.81 1.7-3.81 3.81V35.8c0 2.1 1.71 3.81 3.81 3.81h3.81v10.15H5.35c-.7.02-1.25.6-1.24 1.3.02.68.56 1.22 1.24 1.24H15.5c.7-.02 1.25-.6 1.24-1.3-.02-.68-.56-1.22-1.24-1.24h-3.8V39.6h6.35c2.1 0 3.81-1.71 3.81-3.81-.02-2.1-1.72-3.8-3.82-3.8z" class="st0"/><path id="Контур_1793_1_" d="M35.45 30.53a8.629 8.629 0 0 0 9.59 0c1-.73 2.22-1.11 3.46-1.08.7 0 1.27-.57 1.27-1.27v-3.81c0-2.8-2.27-5.07-5.08-5.08H19.31c-2.8 0-5.07 2.27-5.08 5.08v3.81c0 .7.57 1.27 1.27 1.27 1.24-.03 2.45.35 3.45 1.08a8.596 8.596 0 0 0 9.57 0c.66-.46 1.41-.79 2.2-.96v20.19h-5.08c-.7.02-1.25.6-1.24 1.3.02.68.56 1.22 1.24 1.24h12.69c.7.02 1.28-.54 1.3-1.24.02-.7-.54-1.28-1.24-1.3h-5.14V29.58c.8.17 1.54.5 2.2.95z" class="st0"/></g></g></g></g></g></switch></svg>