<svg xmlns="http://www.w3.org/2000/svg" id="Слой_1" x="0" y="0" version="1.1" viewBox="0 0 64 64" xml:space="preserve"><style>.st0{fill:#fff}</style><switch><g><g id="Сгруппировать_4304_1_"><path id="Контур_4085_1_" d="M28.45 4.4c1.04.15 2.1.24 3.13.47 3.75.84 7.23 2.64 10.08 5.23 3.34 2.88 5.7 6.72 6.76 10.99.46 1.96.61 3.98.44 5.99a22.26 22.26 0 0 1-1.5 6.68 20.896 20.896 0 0 1-5.48 7.87 20.556 20.556 0 0 1-10.08 4.92c-1.84.39-3.73.51-5.61.34-1.49-.16-3-.27-4.5-.38-.22 0-.43.07-.62.19-3.1 1.84-6.2 3.69-9.3 5.55-.12.07-.25.14-.44.24v-.63c0-3.04-.02-6.09.01-9.14.03-.47-.18-.93-.54-1.23-2.2-2-3.91-4.48-5-7.25-.85-2.17-1.38-4.46-1.55-6.79-.34-3.48.26-7 1.73-10.17.79-1.69 1.81-3.26 3.03-4.67 1.93-2.27 4.3-4.13 6.96-5.48a22.33 22.33 0 0 1 7.5-2.4c.99-.12 1.98-.23 2.98-.35l2 .02zM15.73 28.45a2.761 2.761 0 0 0 2.75-2.78v-.01a2.781 2.781 0 0 0-2.67-2.76 2.8 2.8 0 0 0-2.7 2.79 2.794 2.794 0 0 0 2.62 2.76zm10.8-5.55a2.796 2.796 0 0 0-2.67 2.83 2.78 2.78 0 0 0 2.71 2.72 2.781 2.781 0 0 0 2.67-2.76 2.795 2.795 0 0 0-2.71-2.79zm13.45 2.82c.01-1.53-1.2-2.78-2.73-2.82a2.77 2.77 0 0 0-2.64 2.73 2.768 2.768 0 0 0 2.71 2.82h.01a2.772 2.772 0 0 0 2.65-2.73z" class="st0"/><path id="Контур_4086_1_" d="M50.61 59.61c-1.03-.68-2.05-1.37-3.09-2.03-1.91-1.23-3.84-2.4-5.73-3.67-.67-.5-1.51-.71-2.33-.56-2.06.32-4.16.33-6.23.04-2.44-.29-4.8-1.03-6.97-2.18a23.811 23.811 0 0 1-5.96-4.55c.95 0 1.8.02 2.65 0 2.27-.07 4.55-.05 6.8-.26 2.35-.23 4.65-.78 6.85-1.64 3.72-1.35 7.06-3.58 9.74-6.5 3.01-3.3 5-7.4 5.73-11.8.46-2.87.58-5.78.34-8.68-.01-.11 0-.23 0-.47.58.54 1.12.99 1.6 1.51 2.82 2.9 4.7 6.57 5.4 10.55.68 3.95.08 8.02-1.71 11.61a20.723 20.723 0 0 1-6.47 7.71c-.37.23-.57.65-.54 1.08.02 3.27.01 6.55.01 9.83l-.09.01z" class="st0"/></g></g></switch></svg>