<svg width="22" height="22" viewBox="0 0 22 22" fill="none" xmlns="http://www.w3.org/2000/svg">
<path d="M20.041 7.37231C19.6867 7.37258 19.3471 7.51342 19.0966 7.76391C18.8461 8.0144 18.7053 8.35407 18.705 8.70831V14.4983H15.587C15.2327 14.4983 14.8929 14.6391 14.6423 14.8896C14.3918 15.1402 14.251 15.48 14.251 15.8343C14.251 16.1886 14.3918 16.5285 14.6423 16.779C14.8929 17.0296 15.2327 17.1703 15.587 17.1703H17.818V20.7333H16.478C16.3598 20.7333 16.2465 20.7803 16.163 20.8638C16.0794 20.9473 16.0325 21.0607 16.0325 21.1788C16.0325 21.297 16.0794 21.4103 16.163 21.4938C16.2465 21.5774 16.3598 21.6243 16.478 21.6243H20.041C20.1591 21.6243 20.2725 21.5774 20.356 21.4938C20.4396 21.4103 20.4865 21.297 20.4865 21.1788C20.4865 21.0607 20.4396 20.9473 20.356 20.8638C20.2725 20.7803 20.1591 20.7333 20.041 20.7333H18.705V17.1703H20.041C20.3952 17.1698 20.7347 17.0289 20.9851 16.7784C21.2355 16.528 21.3765 16.1885 21.377 15.8343V8.70831C21.3765 8.35415 21.2355 8.01464 20.9851 7.76421C20.7347 7.51377 20.3952 7.37284 20.041 7.37231Z" fill="#24A391"/>
<path d="M5.79 14.4983H2.672V8.70831C2.672 8.53287 2.63744 8.35914 2.5703 8.19705C2.50316 8.03496 2.40475 7.88768 2.28069 7.76362C2.15664 7.63956 2.00936 7.54115 1.84727 7.47401C1.68517 7.40687 1.51145 7.37231 1.336 7.37231C1.16055 7.37231 0.986826 7.40687 0.824735 7.47401C0.662644 7.54115 0.515364 7.63956 0.391305 7.76362C0.267246 7.88768 0.168837 8.03496 0.101697 8.19705C0.0345567 8.35914 -2.61435e-09 8.53287 0 8.70831L0 15.8343C0.000529003 16.1885 0.141456 16.528 0.39189 16.7784C0.642324 17.0289 0.981833 17.1698 1.336 17.1703H2.672V20.7333H1.336C1.21785 20.7333 1.10453 20.7803 1.02098 20.8638C0.937436 20.9473 0.8905 21.0607 0.8905 21.1788C0.8905 21.297 0.937436 21.4103 1.02098 21.4938C1.10453 21.5774 1.21785 21.6243 1.336 21.6243H4.9C5.01815 21.6243 5.13147 21.5774 5.21502 21.4938C5.29856 21.4103 5.3455 21.297 5.3455 21.1788C5.3455 21.0607 5.29856 20.9473 5.21502 20.8638C5.13147 20.7803 5.01815 20.7333 4.9 20.7333H3.563V17.1703H5.79C6.14433 17.1703 6.48415 17.0296 6.73469 16.779C6.98524 16.5285 7.126 16.1886 7.126 15.8343C7.126 15.48 6.98524 15.1402 6.73469 14.8896C6.48415 14.6391 6.14433 14.4983 5.79 14.4983Z" fill="#24A391"/>
<path d="M11.898 13.9864C12.3955 14.3199 12.981 14.498 13.58 14.498C14.179 14.498 14.7644 14.3199 15.262 13.9864C15.6145 13.7295 16.042 13.5962 16.478 13.6074C16.596 13.6074 16.7092 13.5605 16.7927 13.4771C16.8761 13.3936 16.923 13.2804 16.923 13.1624V11.8264C16.9225 11.3542 16.7347 10.9015 16.4008 10.5676C16.0669 10.2338 15.6142 10.0459 15.142 10.0454H6.23499C5.7628 10.0459 5.31011 10.2338 4.97622 10.5676C4.64233 10.9015 4.45452 11.3542 4.45399 11.8264V13.1624C4.45399 13.2804 4.50088 13.3936 4.58434 13.4771C4.66779 13.5605 4.78097 13.6074 4.89899 13.6074C5.33376 13.5964 5.75994 13.7297 6.11099 13.9864C6.60764 14.3199 7.1923 14.4979 7.7905 14.4979C8.38869 14.4979 8.97335 14.3199 9.46999 13.9864C9.70321 13.8247 9.96581 13.7102 10.243 13.6494V20.7334H8.462C8.34384 20.7334 8.23053 20.7803 8.14698 20.8639C8.06343 20.9474 8.01649 21.0608 8.01649 21.1789C8.01649 21.2971 8.06343 21.4104 8.14698 21.4939C8.23053 21.5775 8.34384 21.6244 8.462 21.6244H12.916C13.0341 21.6244 13.1475 21.5775 13.231 21.4939C13.3146 21.4104 13.3615 21.2971 13.3615 21.1789C13.3615 21.0608 13.3146 20.9474 13.231 20.8639C13.1475 20.7803 13.0341 20.7334 12.916 20.7334H11.135V13.6514C11.4083 13.7135 11.6673 13.8272 11.898 13.9864Z" fill="#24A391"/>
<path fill-rule="evenodd" clip-rule="evenodd" d="M9.412 6.55821C8.67912 6.57036 7.96883 6.30452 7.42399 5.81419C7.38199 5.77419 7.36402 5.77021 7.32402 5.73021C6.95336 5.3545 6.68307 4.89165 6.53801 4.3842C6.42759 3.96755 6.4092 3.53185 6.48414 3.10738C6.55909 2.68291 6.72557 2.27984 6.972 1.92619C7.01936 1.85603 7.07149 1.78923 7.128 1.72621C7.195 1.65821 7.22801 1.6072 7.29701 1.5392C7.36601 1.4712 7.41102 1.4392 7.47502 1.3802C7.81057 1.09674 8.20516 0.891745 8.63002 0.780198C9.30282 0.601481 10.0174 0.669983 10.644 0.973222C11.029 1.15782 11.37 1.42275 11.644 1.7502C11.9623 2.13803 12.1765 2.60056 12.2664 3.09413C12.3563 3.5877 12.319 4.09606 12.158 4.57121C12.1283 4.66286 12.0933 4.75266 12.053 4.8402C11.9277 5.12142 11.7552 5.37915 11.543 5.60222L11.365 5.7802C11.1447 5.99514 10.8876 6.16888 10.606 6.2932C10.2311 6.4617 9.826 6.55285 9.41502 6.5612L9.412 6.55821ZM9.00001 3.24721H7.52202V3.99519H9.00001V5.47322H9.748V3.99519H11.226V3.24721H9.748V1.76921H9.00001V3.24721ZM9.16801 7.23219C9.6958 7.27078 10.2253 7.18516 10.714 6.98219C10.8753 6.92056 11.0307 6.84424 11.178 6.7542C11.3275 6.67143 11.4688 6.57467 11.6 6.4652L11.922 6.77922C11.8817 6.87657 11.8561 6.97935 11.846 7.08421C11.837 7.40521 12.092 7.62221 12.278 7.80721C12.59 8.11921 13.563 9.1212 13.821 9.3322C13.9043 9.39392 14.0004 9.43596 14.1023 9.45519C14.2041 9.47441 14.309 9.47034 14.409 9.44322C14.6636 9.32796 14.8839 9.14838 15.048 8.9222C15.1513 8.8085 15.2122 8.66264 15.2204 8.50923C15.2286 8.35582 15.1836 8.20428 15.093 8.08022C14.941 7.88822 13.77 6.73721 13.569 6.53621C13.296 6.26321 13.11 6.03621 12.693 6.11821C12.614 6.13421 12.593 6.15222 12.536 6.16722L12.213 5.8542C12.427 5.5885 12.6011 5.29309 12.73 4.97722C12.9345 4.48395 13.0218 3.94995 12.985 3.41722C12.9781 3.22278 12.952 3.02948 12.907 2.8402C12.7993 2.34248 12.5843 1.87427 12.277 1.46822C12.1402 1.27764 11.9825 1.1029 11.807 0.947221L11.123 0.452195C11.086 0.432194 11.0479 0.414183 11.009 0.39821C10.5522 0.162183 10.0497 0.0276494 9.53609 0.00383102C9.02244 -0.0199873 8.50971 0.0674719 8.033 0.260209C7.49881 0.475566 7.02323 0.814381 6.64519 1.24892C6.26714 1.68345 5.99738 2.20136 5.85802 2.76021C5.73587 3.24742 5.7195 3.75516 5.81001 4.24922L5.94902 4.7842C6.02569 5.02229 6.13077 5.25028 6.26201 5.46321C6.30801 5.53821 6.34 5.6022 6.39 5.6722C6.44 5.7422 6.48402 5.79721 6.53502 5.86421C6.73257 6.10862 6.95963 6.32763 7.21101 6.51622C7.5423 6.76643 7.91449 6.95725 8.31102 7.08022C8.39902 7.10822 8.48202 7.12519 8.57802 7.15019C8.77132 7.19817 8.969 7.22633 9.16801 7.23421V7.23219Z" fill="#24A391"/>
</svg>
