<svg xmlns="http://www.w3.org/2000/svg" width="19.755" height="18.175" viewBox="0 0 19.755 18.175"><defs><style>.a{fill:#fff;}</style></defs><path class="a" d="M17.04-1.332H2.717A2.719,2.719,0,0,0,0,1.384v8.765a2.719,2.719,0,0,0,2.706,2.716v3.978l5.716-3.978H17.04a2.719,2.719,0,0,0,2.716-2.716V1.384A2.719,2.719,0,0,0,17.04-1.332ZM18.6,10.149a1.56,1.56,0,0,1-1.558,1.558H8.06l-4.2,2.92v-2.92H2.717a1.56,1.56,0,0,1-1.558-1.558V1.384A1.56,1.56,0,0,1,2.717-.175H17.04A1.56,1.56,0,0,1,18.6,1.384Zm0,0" transform="translate(-0.001 1.332)"/><path class="a" d="M171.293,131.172h9.18v1.158h-9.18Zm0,0" transform="translate(-166.006 -127.082)"/><path class="a" d="M171.293,211.172h9.18v1.158h-9.18Zm0,0" transform="translate(-166.006 -204.613)"/><path class="a" d="M171.293,291.172h9.18v1.158h-9.18Zm0,0" transform="translate(-166.006 -282.143)"/></svg>