<svg width="20" height="20" viewBox="0 0 20 20" fill="none" xmlns="http://www.w3.org/2000/svg">
<path d="M10 20C8.02219 20 6.08879 19.4135 4.4443 18.3147C2.79981 17.2159 1.51809 15.6541 0.761209 13.8268C0.00433284 11.9996 -0.193701 9.98891 0.192152 8.0491C0.578004 6.10929 1.53041 4.32746 2.92894 2.92894C4.32746 1.53041 6.10929 0.578004 8.0491 0.192152C9.98891 -0.193701 11.9996 0.00433284 13.8268 0.761209C15.6541 1.51809 17.2159 2.79981 18.3147 4.4443C19.4135 6.08879 20 8.02219 20 10C19.9971 12.6513 18.9426 15.1931 17.0679 17.0679C15.1931 18.9426 12.6513 19.9971 10 20ZM10 1.142C8.24826 1.14181 6.53579 1.66107 5.07915 2.63412C3.62251 3.60718 2.48713 4.99032 1.81659 6.60865C1.14604 8.22698 0.970439 10.0078 1.31199 11.7259C1.65355 13.4441 2.49692 15.0223 3.73545 16.2611C4.97399 17.5 6.55206 18.3437 8.27011 18.6856C9.98816 19.0276 11.769 18.8524 13.3875 18.1822C15.006 17.512 16.3894 16.3769 17.3628 14.9205C18.3362 13.4641 18.8558 11.7518 18.856 10C18.8536 7.65179 17.9199 5.40041 16.2596 3.73979C14.5994 2.07917 12.3482 1.14492 10 1.142Z" fill="#21BC96"/>
<path d="M13.437 6H6.34454C5.60084 6 5 6.60084 5 7.34454V11.6849C5 12.4244 5.60084 13.0252 6.34033 13.0294V15L9.17226 13.0294H13.437C14.1806 13.0294 14.7815 12.4286 14.7815 11.6849V7.34454C14.7815 6.60084 14.1806 6 13.437 6ZM14.2101 11.6849C14.2101 12.1092 13.8655 12.458 13.437 12.458H8.99159L6.91176 13.9033V12.458H6.34454C5.92017 12.458 5.57562 12.1134 5.57142 11.6849V7.34454C5.57142 6.92017 5.91597 6.57565 6.34454 6.57145H13.437C13.8613 6.57145 14.2101 6.91597 14.2101 7.34454V11.6849Z" fill="#21BC96"/>
<path d="M7.61768 8.02539H12.1639V8.59681H7.61768V8.02539Z" fill="#21BC96"/>
<path d="M7.61768 9.2478H12.1639V9.81922H7.61768V9.2478Z" fill="#21BC96"/>
<path d="M7.61768 10.4707H12.1639V11.0421H7.61768V10.4707Z" fill="#21BC96"/>
</svg>
