<svg width="16" height="18" viewBox="0 0 16 18" fill="none" xmlns="http://www.w3.org/2000/svg">
<path d="M0.103558 3.10383C0.0208584 2.86068 -0.0128501 2.60357 0.00438096 2.34732C0.021612 2.09108 0.0894418 1.84078 0.20395 1.6109C0.318458 1.38102 0.477378 1.1761 0.671529 1.00798C0.86568 0.839863 1.09122 0.711876 1.33511 0.631413C1.579 0.55095 1.83642 0.519606 2.0925 0.53919C2.34857 0.558774 2.59823 0.628898 2.82705 0.745513C3.05587 0.862128 3.25932 1.02292 3.42565 1.21861C3.59198 1.4143 3.71789 1.641 3.79611 1.88562L7.61585 13.4633C7.25266 13.3677 6.87285 13.3534 6.5035 13.4215L2.80542 2.21111C2.72776 1.98791 2.56549 1.80419 2.3536 1.69955C2.14171 1.59491 1.89718 1.57775 1.67275 1.65177C1.44832 1.72578 1.26197 1.88504 1.1539 2.0952C1.04582 2.30536 1.02468 2.54958 1.09503 2.77518C1.11651 2.84023 1.12496 2.90887 1.11991 2.97719C1.11486 3.0455 1.0964 3.11216 1.06559 3.17334C1.03477 3.23452 0.992214 3.28904 0.940334 3.33377C0.888455 3.3785 0.828272 3.41258 0.763223 3.43406C0.698174 3.45553 0.629532 3.46399 0.561216 3.45893C0.4929 3.45388 0.42625 3.43542 0.365067 3.40461C0.303885 3.3738 0.249371 3.33124 0.204637 3.27936C0.159903 3.22748 0.125823 3.1673 0.104348 3.10225L0.103558 3.10383ZM15.155 12.189L8.89568 14.2518C9.12432 14.5113 9.29794 14.8144 9.40603 15.1429C9.40998 15.1548 9.41235 15.1674 9.4163 15.1793L15.4821 13.1781C15.5471 13.1567 15.6073 13.1226 15.6592 13.0779C15.7111 13.0331 15.7536 12.9786 15.7844 12.9174C15.8152 12.8562 15.8337 12.7896 15.8387 12.7213C15.8438 12.653 15.8353 12.5843 15.8139 12.5193C15.7924 12.4542 15.7583 12.394 15.7136 12.3422C15.6688 12.2903 15.6143 12.2477 15.5532 12.2169C15.492 12.1861 15.4253 12.1676 15.357 12.1626C15.2887 12.1575 15.22 12.166 15.155 12.1875V12.189ZM8.91385 15.3088C9.0408 15.6937 9.05075 16.1077 8.94245 16.4982C8.83416 16.8888 8.61248 17.2385 8.30544 17.5031C7.9984 17.7677 7.6198 17.9353 7.21751 17.9847C6.81522 18.0341 6.40731 17.9631 6.04537 17.7807C5.68342 17.5983 5.38369 17.3127 5.18409 16.9599C4.98448 16.6072 4.89396 16.2031 4.92397 15.7989C4.95398 15.3947 5.10318 15.0085 5.35269 14.6891C5.60221 14.3697 5.94083 14.1315 6.32575 14.0045C6.84109 13.8351 7.40259 13.8769 7.88714 14.1208C8.3717 14.3647 8.73977 14.7908 8.91069 15.3057L8.91385 15.3088ZM7.94055 15.6296C7.87798 15.4361 7.75939 15.2656 7.59981 15.1395C7.44023 15.0135 7.24683 14.9377 7.04412 14.9217C6.84142 14.9057 6.63852 14.9503 6.46115 15.0497C6.28378 15.1491 6.13992 15.299 6.04779 15.4802C5.95566 15.6615 5.91941 15.8661 5.94363 16.0679C5.96786 16.2698 6.05147 16.46 6.18386 16.6143C6.31626 16.7686 6.49149 16.8802 6.68735 16.9348C6.8832 16.9895 7.09087 16.9847 7.28404 16.9213C7.54196 16.8358 7.75553 16.6517 7.87799 16.4092C8.00044 16.1666 8.0218 15.8855 7.93738 15.6272L7.94055 15.6296ZM13.5765 4.33231L15.7017 10.7725C15.7124 10.8051 15.7167 10.8394 15.7142 10.8736C15.7116 10.9077 15.7024 10.941 15.687 10.9716C15.6716 11.0022 15.6503 11.0295 15.6244 11.0519C15.5984 11.0742 15.5683 11.0913 15.5358 11.102L8.84749 13.3085C8.81496 13.3193 8.78064 13.3235 8.74648 13.321C8.71231 13.3185 8.67898 13.3092 8.64839 13.2938C8.61779 13.2784 8.59053 13.2571 8.56817 13.2312C8.5458 13.2052 8.52877 13.1751 8.51805 13.1426L6.3929 6.70236C6.38215 6.66984 6.37791 6.63552 6.38043 6.60135C6.38295 6.56719 6.39217 6.53386 6.40758 6.50326C6.42299 6.47267 6.44427 6.44541 6.47022 6.42305C6.49617 6.40068 6.52627 6.38365 6.5588 6.37293L13.2471 4.1664C13.3125 4.14569 13.3834 4.15157 13.4445 4.18277C13.5055 4.21397 13.5518 4.26798 13.5734 4.3331L13.5765 4.33231ZM12.6917 8.07384L10.4109 6.82087L9.32703 9.18302L10.0452 9.51325L10.5136 8.49176L11.3597 11.0593L12.1695 10.7923L11.3234 8.2271L12.3078 8.76905L12.6917 8.07384ZM10.7009 4.23198L9.34283 0.114398C9.33595 0.0935821 9.32503 0.0743274 9.3107 0.0577363C9.29638 0.0411452 9.27891 0.0275435 9.25932 0.0177101C9.23973 0.00787672 9.21839 0.00200474 9.19652 0.000430404C9.17466 -0.00114393 9.15269 0.00161029 9.13189 0.00853538L7.96661 0.394065L7.96108 0.404335L7.95161 0.394065L7.33697 0.597099L7.84337 2.13211L7.14974 2.36121L6.64333 0.826995L6.0287 1.03003L6.02396 1.0403L6.0129 1.03556L4.85631 1.42109C4.83549 1.42797 4.81624 1.43888 4.79965 1.45321C4.78306 1.46754 4.76946 1.485 4.75963 1.5046C4.74979 1.52419 4.74392 1.54553 4.74234 1.5674C4.74077 1.58926 4.74352 1.61122 4.75045 1.63202L6.10928 5.7496C6.11616 5.77042 6.12708 5.78967 6.1414 5.80626C6.15573 5.82285 6.17319 5.83646 6.19279 5.84629C6.21238 5.85612 6.23372 5.86199 6.25559 5.86357C6.27746 5.86514 6.29942 5.86239 6.32022 5.85546L10.5966 4.44449C10.6174 4.43746 10.6367 4.42637 10.6532 4.41187C10.6698 4.39736 10.6833 4.37972 10.693 4.35996C10.7027 4.3402 10.7084 4.31872 10.7097 4.29675C10.7111 4.27479 10.7081 4.25277 10.7009 4.23198Z" fill="white"/>
</svg>
