<svg xmlns="http://www.w3.org/2000/svg" id="Слой_1" x="0" y="0" version="1.1" viewBox="0 0 64 32" xml:space="preserve"><style>.st0,.st1{fill:#e5e4e4}.st1{stroke:#fff;stroke-linecap:round}</style><switch><g><g id="Сгруппировать_4349" transform="translate(.5)"><path id="Контур_4090" d="M28.74 25.05c.03-.5.06-1 .13-1.5.14-1.2.36-2.39.65-3.56.16-.58.34-1.16.52-1.72.23-.55.46-1.09.69-1.63.48-1.01 1.08-1.96 1.79-2.82.16-.21.33-.41.49-.62.18-.18.36-.36.54-.53.34-.34.69-.66 1.06-.96.64-.52 1.33-.98 2.05-1.38.54-.32 1.1-.61 1.68-.84.97-.39 1.52-.59 1.52-.59s-.47.37-1.29.98c-.49.36-.96.75-1.41 1.16-.58.51-1.14 1.05-1.66 1.62-.3.3-.53.67-.82 1.02-.14.18-.28.35-.42.53l-.36.6c-.52.84-.97 1.72-1.34 2.64-.17.49-.34.98-.51 1.48-.12.52-.25 1.05-.4 1.57-.24 1.09-.41 2.19-.52 3.31-.06.41-.09.82-.13 1.24 8.97 0 15.92.01 25.64.01.03-.43.05-.86.05-1.29 0-8.19-5.96-14.93-13.64-15.82 1.03-.96 1.08-2.57.13-3.59a2.543 2.543 0 0 0-3.59-.13 2.543 2.543 0 0 0-.13 3.59c.04.04.08.09.13.13-7.67.89-13.64 7.63-13.64 15.82 0 .43.02.86.05 1.28h2.74z" class="st0"/><path id="Прямоугольник_609" d="M23.14 26h36.34v3.21H23.14z" class="st0"/><path id="Линия_96" d="M4.08 24.27H18.7" class="st1"/><path id="Линия_97" d="M7.74 20.62H18.7" class="st1"/><path id="Линия_98" d="M11.39 16.96h7.31" class="st1"/></g></g></switch></svg>