<svg width="90" height="15" viewBox="0 0 90 15" fill="none" xmlns="http://www.w3.org/2000/svg">
<path d="M41.2859 7.775H46.5509V8.18C46.5509 9.49 46.0859 10.595 45.1559 11.495C44.2159 12.385 42.9909 12.83 41.4809 12.83C39.8809 12.83 38.5609 12.31 37.5209 11.27C36.4809 10.21 35.9609 8.925 35.9609 7.415C35.9609 5.885 36.4759 4.605 37.5059 3.575C38.5459 2.525 39.8509 2 41.4209 2C42.3909 2 43.2709 2.23 44.0609 2.69C44.8809 3.16 45.5059 3.775 45.9359 4.535L45.2309 4.955C44.8909 4.305 44.3709 3.775 43.6709 3.365C43.0009 2.965 42.2509 2.765 41.4209 2.765C40.0709 2.765 38.9509 3.215 38.0609 4.115C37.1909 5.005 36.7559 6.105 36.7559 7.415C36.7559 8.735 37.1959 9.84 38.0759 10.73C38.9659 11.62 40.1009 12.065 41.4809 12.065C42.7109 12.065 43.7059 11.73 44.4659 11.06C45.2259 10.39 45.6509 9.545 45.7409 8.525H41.2859V7.775Z" fill="white"/>
<path d="M51.8284 12.83C50.7284 12.83 49.7934 12.455 49.0234 11.705C48.2634 10.945 47.8834 10.015 47.8834 8.915C47.8834 7.815 48.2634 6.89 49.0234 6.14C49.7834 5.38 50.7184 5 51.8284 5C52.9184 5 53.8434 5.38 54.6034 6.14C55.3734 6.89 55.7584 7.815 55.7584 8.915C55.7584 10.005 55.3734 10.935 54.6034 11.705C53.8334 12.455 52.9084 12.83 51.8284 12.83ZM49.5634 11.18C50.1834 11.8 50.9384 12.11 51.8284 12.11C52.7084 12.11 53.4584 11.8 54.0784 11.18C54.6884 10.57 54.9934 9.815 54.9934 8.915C54.9934 8.015 54.6884 7.26 54.0784 6.65C53.4584 6.03 52.7084 5.72 51.8284 5.72C50.9384 5.72 50.1834 6.03 49.5634 6.65C48.9534 7.26 48.6484 8.015 48.6484 8.915C48.6484 9.815 48.9534 10.57 49.5634 11.18Z" fill="white"/>
<path d="M64.3883 10.865L65.8283 12.38L65.1233 12.785L63.9083 11.51C63.1483 12.39 62.1033 12.83 60.7733 12.83C59.7333 12.83 58.9033 12.565 58.2833 12.035C57.6633 11.495 57.3533 10.775 57.3533 9.875C57.3533 9.205 57.5333 8.6 57.8933 8.06C58.2633 7.52 58.7783 7.105 59.4383 6.815C58.8783 6.165 58.5983 5.48 58.5983 4.76C58.5983 3.92 58.8883 3.255 59.4683 2.765C60.0483 2.255 60.7483 2 61.5683 2C62.2483 2 62.8533 2.175 63.3833 2.525C63.9133 2.875 64.2833 3.36 64.4933 3.98L63.8333 4.37C63.6733 3.88 63.3883 3.49 62.9783 3.2C62.5783 2.91 62.1133 2.765 61.5833 2.765C60.9533 2.765 60.4333 2.95 60.0233 3.32C59.6133 3.69 59.4083 4.16 59.4083 4.73C59.4083 5.1 59.4933 5.445 59.6633 5.765C59.8433 6.075 60.1383 6.435 60.5483 6.845L63.8333 10.28C64.1433 9.7 64.3533 9.005 64.4633 8.195L65.1683 8.6C65.0383 9.44 64.7783 10.195 64.3883 10.865ZM60.7433 12.065C61.8333 12.065 62.7083 11.69 63.3683 10.94L59.9933 7.4C59.3933 7.62 58.9383 7.95 58.6283 8.39C58.3183 8.83 58.1633 9.32 58.1633 9.86C58.1633 10.55 58.3933 11.09 58.8533 11.48C59.3233 11.87 59.9533 12.065 60.7433 12.065Z" fill="white"/>
<path d="M70.4744 5C71.5744 5 72.4644 5.39 73.1444 6.17C73.8344 6.95 74.1794 7.875 74.1794 8.945C74.1794 8.965 74.1744 9.025 74.1644 9.125C74.1644 9.225 74.1644 9.285 74.1644 9.305H67.3694C67.4594 10.145 67.7944 10.825 68.3744 11.345C68.9544 11.855 69.6794 12.11 70.5494 12.11C71.1394 12.11 71.6594 11.99 72.1094 11.75C72.5594 11.5 72.9044 11.165 73.1444 10.745L73.8044 11.135C73.4944 11.655 73.0494 12.07 72.4694 12.38C71.8994 12.68 71.2544 12.83 70.5344 12.83C69.3744 12.83 68.4294 12.465 67.6994 11.735C66.9594 10.995 66.5894 10.055 66.5894 8.915C66.5894 7.795 66.9494 6.865 67.6694 6.125C68.4094 5.375 69.3444 5 70.4744 5ZM70.4744 5.72C69.6344 5.72 68.9244 5.985 68.3444 6.515C67.7744 7.045 67.4494 7.73 67.3694 8.57H73.3994C73.3194 7.68 72.9994 6.985 72.4394 6.485C71.8794 5.975 71.2244 5.72 70.4744 5.72Z" fill="white"/>
<path d="M82.5324 6.86V5.165H83.2974V12.665H82.5324V10.97C82.2024 11.55 81.7574 12.005 81.1974 12.335C80.6374 12.665 80.0074 12.83 79.3074 12.83C78.2474 12.83 77.3324 12.455 76.5624 11.705C75.8024 10.945 75.4224 10.015 75.4224 8.915C75.4224 7.815 75.8024 6.89 76.5624 6.14C77.3224 5.38 78.2374 5 79.3074 5C80.0074 5 80.6374 5.165 81.1974 5.495C81.7574 5.825 82.2024 6.28 82.5324 6.86ZM77.1024 11.18C77.7224 11.8 78.4774 12.11 79.3674 12.11C80.2474 12.11 80.9974 11.8 81.6174 11.18C82.2274 10.57 82.5324 9.815 82.5324 8.915C82.5324 8.015 82.2274 7.26 81.6174 6.65C80.9974 6.03 80.2474 5.72 79.3674 5.72C78.4774 5.72 77.7224 6.03 77.1024 6.65C76.4924 7.26 76.1874 8.015 76.1874 8.915C76.1874 9.815 76.4924 10.57 77.1024 11.18Z" fill="white"/>
<path d="M89.4404 5.165V5.9H87.2054V10.775C87.2054 11.385 87.3654 11.76 87.6854 11.9C88.0154 12.04 88.6004 12.07 89.4404 11.99V12.665C88.4104 12.815 87.6504 12.745 87.1604 12.455C86.6804 12.155 86.4404 11.595 86.4404 10.775V5.9H84.7904V5.165H86.4404V3.29L87.2054 3.065V5.165H89.4404Z" fill="white"/>
<path d="M14.492 11.7647C14.509 11.4927 14.525 11.2197 14.561 10.9447C14.639 10.2895 14.7569 9.63959 14.914 8.99869C15.002 8.68069 15.098 8.36669 15.198 8.05869C15.326 7.75869 15.452 7.45869 15.577 7.16969C15.8399 6.61739 16.1683 6.09867 16.555 5.62469C16.645 5.50969 16.734 5.39869 16.821 5.28769C16.908 5.17669 17.021 5.08769 17.116 4.99569C17.2999 4.81025 17.4935 4.63467 17.696 4.46969C18.047 4.18487 18.4224 3.93156 18.818 3.71269C19.1121 3.53547 19.4197 3.38166 19.738 3.25269C20.268 3.03969 20.568 2.93269 20.568 2.93269C20.568 2.93269 20.312 3.13269 19.868 3.46669C19.6011 3.66492 19.3444 3.87653 19.099 4.10069C18.7804 4.37963 18.4773 4.67574 18.191 4.98769C18.027 5.15169 17.9 5.35669 17.745 5.54569C17.67 5.64569 17.592 5.73869 17.513 5.83769C17.449 5.94669 17.382 6.05569 17.313 6.16669C17.0278 6.62551 16.7832 7.10834 16.582 7.60969C16.4893 7.87636 16.3953 8.14703 16.3 8.42169C16.235 8.70669 16.163 8.99369 16.084 9.28069C15.9535 9.87723 15.8583 10.4809 15.799 11.0887C15.764 11.3127 15.747 11.5387 15.726 11.7667C20.636 11.7667 24.436 11.7667 29.754 11.7667C29.772 11.5337 29.782 11.2977 29.782 11.0597C29.8121 8.95386 29.0693 6.91002 27.694 5.31504C26.3186 3.72006 24.4063 2.68461 22.319 2.40469C22.5225 2.21414 22.664 1.96677 22.7251 1.69474C22.7863 1.42271 22.7642 1.13859 22.6617 0.879276C22.5593 0.619965 22.3812 0.397453 22.1507 0.24065C21.9201 0.0838471 21.6478 0 21.369 0C21.0901 0 20.8178 0.0838471 20.5872 0.24065C20.3567 0.397453 20.1786 0.619965 20.0762 0.879276C19.9737 1.13859 19.9516 1.42271 20.0128 1.69474C20.0739 1.96677 20.2154 2.21414 20.419 2.40469C18.3317 2.68463 16.4195 3.72011 15.0443 5.31512C13.6692 6.91012 12.9265 8.95395 12.957 11.0597C12.957 11.2967 12.966 11.5297 12.983 11.7597L14.492 11.7647Z" fill="white"/>
<path d="M31.31 12.2827H11.426V14.0367H31.31V12.2827Z" fill="white"/>
<path d="M1 11.3387H9" stroke="white" stroke-linecap="round"/>
<path d="M3 9.33868H9" stroke="white" stroke-linecap="round"/>
<path d="M5 7.33868H9" stroke="white" stroke-linecap="round"/>
</svg>
