<svg xmlns="http://www.w3.org/2000/svg" id="Слой_1" x="0" y="0" version="1.1" viewBox="0 0 64 64" xml:space="preserve"><style>.st5{fill:#fff}</style><switch><g><g id="удалить" transform="translate(-988 -273)"><g id="delete-button" transform="translate(941.845 273)"><g id="Сгруппировать_126" transform="translate(46.155)"><path id="Контур_1630" d="M49.42 9.18h-9.36a8.115 8.115 0 0 0-9.02-7.12 8.126 8.126 0 0 0-7.12 7.12h-9.36a6.867 6.867 0 0 0-6.82 6.85v.35c0 2.82 1.72 5.35 4.33 6.38v32.4a6.858 6.858 0 0 0 6.86 6.83h26.16c3.79 0 6.85-3.07 6.86-6.86V22.76a6.86 6.86 0 0 0 4.33-6.38v-.34c-.02-3.79-3.08-6.85-6.86-6.86zM32 5.24c2.33 0 4.33 1.65 4.78 3.94h-9.57A4.891 4.891 0 0 1 32 5.24zm16.69 49.92c0 1.99-1.62 3.6-3.61 3.61H18.92c-1.99 0-3.6-1.62-3.61-3.61V23.27h33.37l.01 31.89zm4.35-38.77c0 1.99-1.62 3.6-3.61 3.61H14.59c-1.99 0-3.6-1.62-3.61-3.61v-.36c0-1.99 1.62-3.6 3.61-3.61h34.83c1.99-.01 3.62 1.6 3.62 3.6v.37z" class="st5"/><path id="Контур_1631" d="M23.28 54.6c.9 0 1.63-.73 1.63-1.63v-18.3a1.63 1.63 0 0 0-3.26 0v18.3c.01.9.74 1.63 1.63 1.63z" class="st5"/><path id="Контур_1632" d="M32 54.6c.9 0 1.63-.73 1.63-1.63v-18.3a1.63 1.63 0 0 0-3.26 0v18.3c0 .9.73 1.63 1.63 1.63z" class="st5"/><path id="Контур_1633" d="M40.74 54.6c.9 0 1.63-.73 1.63-1.63v-18.3a1.63 1.63 0 0 0-3.26 0v18.3c0 .9.73 1.63 1.63 1.63z" class="st5"/></g></g></g></g></switch></svg>