<svg xmlns="http://www.w3.org/2000/svg" width="40.381" height="51.394" viewBox="0 0 40.381 51.394"><defs><style>.a{fill:#fff;}</style></defs><path class="a" d="M258.365,515.232,255.476,482.2a1.4,1.4,0,0,0-1.382-1.289h-5.937a9.968,9.968,0,1,0-19.934,0h-5.941A1.391,1.391,0,0,0,220.9,482.2l-2.889,33.032c0,.042-.01.084-.01.131,0,3.761,3.394,6.82,7.573,6.82h25.235c4.178,0,7.572-3.059,7.572-6.82a.516.516,0,0,0-.01-.131ZM238.19,473.777a7.242,7.242,0,0,1,7.181,7.135H231.01A7.242,7.242,0,0,1,238.19,473.777Zm12.618,45.573H225.573c-2.621,0-4.746-1.76-4.787-3.929l2.76-31.67h4.668v4.3a1.393,1.393,0,1,0,2.786,0v-4.3h14.371v4.3a1.393,1.393,0,1,0,2.786,0v-4.3h4.663l2.775,31.67C255.553,517.59,253.418,519.35,250.808,519.35Zm0,0" transform="translate(-218 -470.79)"/></svg>