<svg width="17" height="16" viewBox="0 0 17 16" fill="none" xmlns="http://www.w3.org/2000/svg">
<path d="M5.30087 0C5.43156 0.0350858 5.55945 0.0798894 5.68348 0.134021C5.82626 0.211989 5.94732 0.324381 6.03566 0.460995C6.124 0.59761 6.17682 0.754121 6.18933 0.916327C6.20184 1.07853 6.17365 1.24129 6.10731 1.38984C6.04097 1.53838 5.93859 1.66801 5.80945 1.76695C5.71187 1.85017 5.63093 1.95112 5.57091 2.06446C5.15681 2.77942 4.74807 3.49772 4.33933 4.21536C4.13831 4.56781 3.94198 4.92295 3.7423 5.27607C3.72876 5.29542 3.72058 5.31801 3.71858 5.34155C3.71658 5.36508 3.72083 5.38873 3.73091 5.41009C3.76929 5.49163 3.80111 5.57609 3.82606 5.66269C3.84348 5.72166 3.87364 5.73574 3.9326 5.73574C4.79832 5.73574 5.66471 5.73574 6.53044 5.73574C7.7437 5.73261 8.95696 5.72836 10.1702 5.723C10.3753 5.723 10.5796 5.71965 10.7847 5.723C10.8057 5.72665 10.8272 5.72218 10.845 5.71048C10.8628 5.69878 10.8755 5.68073 10.8805 5.66002C11.0004 5.34978 11.0024 5.34979 10.8389 5.06099C10.3123 4.12826 9.78493 3.19575 9.25692 2.26347C9.1355 2.04669 8.98663 1.8465 8.81401 1.6678C8.6865 1.54874 8.59412 1.39696 8.54694 1.22901C8.49976 1.06106 8.49959 0.883393 8.54646 0.715357C8.59332 0.547321 8.68542 0.395367 8.81271 0.276078C8.94 0.156788 9.09759 0.0747484 9.26831 0.038873C9.39246 0.00796846 9.52155 0.0022763 9.64794 0.0221664C9.77432 0.0420565 9.89543 0.0871101 10.0041 0.154654C10.1127 0.222197 10.2067 0.310865 10.2805 0.415395C10.3543 0.519925 10.4063 0.6382 10.4336 0.763207C10.4478 0.896716 10.4529 1.03104 10.449 1.16525C10.4502 1.20544 10.4605 1.24483 10.4791 1.2805C11.0822 2.35796 11.6852 3.4352 12.2883 4.51221C12.2996 4.53537 12.3165 4.55537 12.3374 4.57045C12.3584 4.58553 12.3827 4.59521 12.4082 4.59865C12.7173 4.63915 13.0064 4.77419 13.2358 4.98527C13.4157 5.15818 13.5513 5.37194 13.6311 5.60842C13.641 5.6464 13.6634 5.67989 13.6949 5.70339C13.7263 5.72689 13.7648 5.739 13.804 5.73774C13.994 5.74412 14.1806 5.78975 14.3521 5.87176C14.474 5.94233 14.577 6.04143 14.6523 6.16056C14.6661 6.18575 14.6726 6.21428 14.671 6.24297C14.6733 6.79555 14.6748 7.34792 14.6757 7.90005C14.6749 7.99744 14.6464 8.09258 14.5935 8.17435C14.5405 8.25611 14.4654 8.32111 14.3769 8.36172C14.2745 8.41664 14.1664 8.46023 14.0546 8.49171C14.0113 8.49907 13.9713 8.51952 13.9401 8.55032C13.9088 8.58111 13.8877 8.62076 13.8797 8.66391C13.8757 8.68669 13.867 8.70881 13.8603 8.73092C13.806 8.91519 13.8006 8.92324 13.6123 8.91118C13.424 8.89911 13.2458 8.87767 13.0629 8.85891C12.9959 8.85154 12.9543 8.82741 12.9858 8.74499C13.0092 8.67089 13.0282 8.59548 13.0428 8.51917C12.8357 8.51917 12.6407 8.51917 12.4397 8.51917C11.9957 8.51917 11.5517 8.52187 11.1076 8.52723C10.9689 8.52723 10.9656 8.52723 10.9415 8.66593C10.8952 8.92726 10.8557 9.18991 10.8075 9.4519C10.8009 9.49091 10.781 9.52645 10.7512 9.55243C10.3619 9.83859 10.0177 10.1814 9.72999 10.5696C9.71695 10.59 9.69859 10.6066 9.67687 10.6175C9.65516 10.6283 9.6309 10.6331 9.6067 10.6312C9.05054 10.6312 8.49506 10.6312 7.93891 10.6312H7.83505V11.8092H9.15507C9.11621 12.0712 9.07802 12.3238 9.04183 12.5764C9.04147 12.5881 9.03866 12.5995 9.03359 12.61C9.02851 12.6205 9.02128 12.6298 9.01237 12.6374C9.00346 12.6449 8.99306 12.6504 8.98186 12.6537C8.97066 12.6569 8.9589 12.6578 8.94735 12.6562C8.68737 12.6608 8.42738 12.6675 8.1674 12.6722C8.05952 12.6722 7.95164 12.6722 7.84175 12.6722V13.8388C7.87659 13.8388 7.90138 13.8462 7.92618 13.8469C8.31481 13.8582 8.70345 13.8703 9.09208 13.8783C9.11597 13.8756 9.14002 13.8819 9.15958 13.8959C9.17913 13.9098 9.19281 13.9306 9.19796 13.9541C9.28641 14.1913 9.37955 14.4231 9.4767 14.6777H9.08807C7.45356 14.6777 5.81883 14.6757 4.18388 14.6717C3.81202 14.6722 3.44765 14.5672 3.13318 14.3687C2.81871 14.1703 2.56707 13.8866 2.40754 13.5507C2.23195 13.2014 2.1005 12.8315 2.01622 12.4498C1.7616 11.5257 1.50027 10.6037 1.24096 9.68107C1.14045 9.32192 1.03994 8.96343 0.938759 8.60361C0.922677 8.54464 0.893863 8.52924 0.838918 8.51852C0.684426 8.49341 0.532095 8.45644 0.383275 8.40795C0.271315 8.36585 0.175588 8.28935 0.10985 8.18942C0.0441132 8.08949 0.0117531 7.97127 0.0174223 7.85179C0.0174223 7.80355 0.00603057 7.75531 0 7.7064V6.60012C0.00860042 6.54036 0.0141924 6.48019 0.0167526 6.41987C0.0143121 6.3202 0.0377151 6.2216 0.0846832 6.13365C0.131651 6.0457 0.200586 5.9714 0.284779 5.918C0.481805 5.79478 0.711221 5.7334 0.943452 5.74177C0.956667 5.74355 0.970102 5.74268 0.982979 5.73921C0.995857 5.73575 1.00792 5.72978 1.01846 5.72161C1.029 5.71344 1.0378 5.70324 1.04437 5.69163C1.05093 5.68002 1.05512 5.66723 1.05669 5.65398C1.10461 5.46651 1.19197 5.29142 1.31295 5.14039C1.43394 4.98937 1.58574 4.8659 1.75825 4.77823C1.93118 4.70242 2.11059 4.64231 2.2943 4.59865C2.32213 4.59251 2.34823 4.58024 2.37072 4.56274C2.39321 4.54524 2.41151 4.52294 2.42429 4.49747C2.47723 4.39361 2.53619 4.2931 2.59315 4.19125C3.13545 3.22412 3.67731 2.25678 4.21872 1.28921C4.23664 1.25325 4.24712 1.21406 4.24954 1.17396C4.24736 1.00504 4.26309 0.83635 4.29645 0.670738C4.34847 0.500654 4.44778 0.348865 4.58279 0.233074C4.7178 0.117283 4.88295 0.0422534 5.05898 0.0167475C5.07523 0.0123669 5.09114 0.00677131 5.10655 0H5.30087ZM7.84711 9.7608L9.8573 9.76415C9.90219 9.76415 9.91426 9.74606 9.92431 9.70317C9.95513 9.51422 9.99131 9.32593 10.0248 9.13697C10.0583 8.94801 10.0871 8.75236 10.1186 8.55469C10.085 8.54846 10.0509 8.54421 10.0168 8.54195L7.93958 8.53056C7.87257 8.53056 7.84845 8.57144 7.84845 8.63174C7.8451 9.00564 7.8451 9.37887 7.8451 9.76215L7.84711 9.7608ZM6.9901 9.76215V8.53259H4.73467C4.73305 8.55489 4.73305 8.57729 4.73467 8.5996C4.79229 8.95607 4.85394 9.31186 4.90553 9.67168C4.91759 9.7541 4.94909 9.7675 5.02145 9.76683C5.64997 9.76683 6.27849 9.76683 6.90634 9.76683L6.9901 9.76215ZM2.12611 9.76215C2.61794 9.76215 3.09704 9.76215 3.57613 9.76215C3.71014 9.76215 3.84415 9.75076 3.97817 9.74808C4.05522 9.74808 4.06259 9.70251 4.05254 9.64355C3.99626 9.30851 3.93662 8.9775 3.88436 8.64381C3.87096 8.55938 3.83611 8.53324 3.7537 8.53324C3.24847 8.53324 2.74324 8.52723 2.23801 8.52388C2.09328 8.52388 1.94854 8.52388 1.78706 8.52388L2.12611 9.76215ZM5.26 11.8085H6.99747V10.6419H5.06434L5.26 11.8085ZM4.22006 10.6332C3.60762 10.6446 2.99652 10.6165 2.38744 10.6533C2.38605 10.6692 2.38605 10.6851 2.38744 10.7009C2.48661 11.0514 2.58846 11.4011 2.68561 11.7516C2.69969 11.8025 2.72649 11.8186 2.77808 11.8186C3.29872 11.8186 3.81869 11.8186 4.33933 11.8186C4.36479 11.8186 4.39025 11.8186 4.41706 11.8139L4.22006 10.6332ZM7.0035 12.6776C6.57868 12.6776 6.16659 12.6776 5.75517 12.6776C5.6674 12.6776 5.58028 12.6863 5.49251 12.6937C5.44694 12.697 5.41545 12.7151 5.4255 12.7714C5.47777 13.097 5.53003 13.4227 5.57761 13.7484C5.57771 13.7636 5.5811 13.7787 5.58756 13.7925C5.59402 13.8063 5.6034 13.8186 5.61505 13.8285C5.6267 13.8383 5.64034 13.8456 5.65504 13.8497C5.66974 13.8538 5.68516 13.8546 5.70023 13.8522C6.12371 13.8562 6.54786 13.8616 6.97335 13.8663C6.98321 13.865 6.99288 13.8625 7.00216 13.8589C7.00216 13.8422 7.00618 13.8254 7.00618 13.808C7.0035 13.4348 7.0035 13.0609 7.0035 12.6776ZM4.56313 12.6863C4.52427 12.6863 4.49613 12.6796 4.472 12.6796C4.06997 12.6796 3.66793 12.6796 3.26991 12.6796C3.21157 12.6814 3.15338 12.6868 3.09569 12.6957C2.99317 12.7084 2.9657 12.7493 3.00456 12.8418C3.04343 12.9342 3.08162 13.0119 3.12517 13.0944C3.26184 13.3739 3.48705 13.6004 3.76577 13.7386C4.04449 13.8769 4.36109 13.9192 4.66632 13.8589C4.72261 13.8495 4.74137 13.8321 4.73333 13.7745C4.67637 13.4127 4.61875 13.0528 4.56313 12.6863ZM2.41893 5.42484C2.24271 5.42621 2.07358 5.49441 1.94572 5.61568C1.81786 5.73695 1.74079 5.90225 1.7301 6.07815C1.73361 6.25472 1.80613 6.42289 1.93213 6.54663C2.05813 6.67038 2.22759 6.73984 2.40419 6.74016C2.49151 6.74193 2.57827 6.72591 2.65919 6.69306C2.74011 6.66022 2.8135 6.61124 2.87487 6.54911C2.93625 6.48698 2.98434 6.41301 3.01619 6.33169C3.04805 6.25038 3.06302 6.16341 3.06018 6.07613C3.06341 5.99035 3.04903 5.90483 3.01791 5.82483C2.98679 5.74484 2.9396 5.67208 2.87925 5.61104C2.81891 5.55 2.74668 5.50199 2.66705 5.46997C2.58741 5.43794 2.50205 5.42258 2.41625 5.42484H2.41893ZM12.3137 5.42081C12.1433 5.41776 11.9784 5.48082 11.8535 5.59675C11.7285 5.71268 11.6534 5.87248 11.6437 6.04263C11.6374 6.1311 11.6492 6.21992 11.6785 6.30364C11.7078 6.38736 11.7538 6.46421 11.8139 6.52947C11.8739 6.59474 11.9467 6.64703 12.0277 6.68315C12.1087 6.71926 12.1963 6.73845 12.2849 6.7395C12.457 6.73822 12.6223 6.672 12.7476 6.55409C12.873 6.43619 12.9492 6.2753 12.961 6.10361C12.9655 6.01553 12.952 5.92746 12.9213 5.84477C12.8906 5.76208 12.8435 5.68651 12.7827 5.62264C12.7219 5.55876 12.6487 5.50794 12.5676 5.47324C12.4865 5.43854 12.3993 5.42069 12.3111 5.42081H12.3137Z" fill="white"/>
<path d="M12.6916 15.9932C12.5516 15.9704 12.4096 15.9557 12.2715 15.9262C11.6317 15.7748 11.0545 15.4291 10.6191 14.9365C10.1837 14.4438 9.91146 13.8285 9.83986 13.1749C9.78152 12.6836 9.84302 12.1855 10.0191 11.7232C10.1952 11.2609 10.4806 10.8481 10.851 10.5201C11.3266 10.0645 11.9387 9.77752 12.5931 9.7033C13.0937 9.6357 13.6032 9.692 14.077 9.86724C14.5507 10.0425 14.9742 10.3313 15.3103 10.7084C15.7596 11.1791 16.0421 11.7844 16.1143 12.4311C16.123 12.5028 16.1364 12.5732 16.1472 12.6442V13.1005C16.1331 13.195 16.121 13.2895 16.105 13.384C15.9877 14.0519 15.656 14.6635 15.1602 15.1261C14.7264 15.5578 14.1707 15.8461 13.5681 15.9523C13.4569 15.9724 13.345 15.9845 13.2331 15.9999L12.6916 15.9932ZM13.4803 12.3963C13.4756 12.3293 13.4716 12.2717 13.4682 12.216C13.4548 11.9654 13.4455 11.7142 13.4287 11.4636C13.4165 11.3567 13.365 11.2581 13.2843 11.187C13.2036 11.1158 13.0994 11.0771 12.9918 11.0783C12.8839 11.0756 12.7788 11.1136 12.6976 11.1847C12.6163 11.2558 12.5647 11.3549 12.5529 11.4622C12.5362 11.739 12.5402 12.017 12.5349 12.2951C12.5349 12.3259 12.5349 12.3568 12.5302 12.3929C12.4799 12.3929 12.439 12.3929 12.3962 12.3929C12.1281 12.399 11.8601 12.4037 11.5921 12.4137C11.5375 12.4128 11.4836 12.4261 11.4357 12.4524C11.3879 12.4788 11.3478 12.5172 11.3194 12.5638C11.2604 12.648 11.2317 12.7496 11.2379 12.8522C11.2441 12.9548 11.2849 13.0522 11.3535 13.1287C11.3797 13.16 11.4077 13.1897 11.4373 13.2178C11.4713 13.2457 11.5123 13.2638 11.5559 13.27C11.8628 13.2801 12.1697 13.2841 12.4766 13.2901C12.4937 13.2918 12.5107 13.2947 12.5275 13.2989C12.5275 13.3203 12.5322 13.3377 12.5322 13.3552C12.5382 13.6594 12.5436 13.9629 12.5509 14.2671C12.5497 14.3006 12.5596 14.3336 12.5791 14.3609C12.6339 14.4175 12.6928 14.4699 12.7553 14.5177C12.8158 14.5536 12.8839 14.575 12.9541 14.58C13.0243 14.585 13.0947 14.5736 13.1598 14.5467C13.2248 14.5198 13.2827 14.4781 13.3288 14.4249C13.3749 14.3717 13.4079 14.3085 13.4254 14.2403C13.4475 14.052 13.4528 13.8617 13.4609 13.6721C13.4662 13.5468 13.4609 13.4215 13.4609 13.3036C13.4726 13.2983 13.4846 13.294 13.4971 13.2908C13.7135 13.2908 13.9299 13.2908 14.1464 13.2908C14.2426 13.2922 14.3387 13.2818 14.4325 13.26C14.5325 13.2287 14.6182 13.1632 14.6747 13.075C14.7312 12.9868 14.7548 12.8815 14.7414 12.7776C14.7243 12.6728 14.6708 12.5774 14.5902 12.5083C14.5097 12.4391 14.4073 12.4006 14.3011 12.3996C14.0324 12.3929 13.7611 12.3963 13.4803 12.3963Z" fill="white"/>
</svg>
