<svg width="21" height="14" viewBox="0 0 21 14" fill="none" xmlns="http://www.w3.org/2000/svg">
<path d="M19.6873 0.000549316C19.3393 0.000904895 19.0057 0.139279 18.7597 0.385305C18.5137 0.631331 18.3753 0.964914 18.375 1.31285V7.00058H15.3125C14.9644 7.00058 14.6305 7.13888 14.3843 7.38504C14.1382 7.63121 13.9999 7.96508 13.9999 8.31322C13.9999 8.66135 14.1382 8.99522 14.3843 9.24138C14.6305 9.48755 14.9644 9.62585 15.3125 9.62585H17.4999V13.1262H16.1883C16.1289 13.1229 16.0695 13.1318 16.0137 13.1522C15.9578 13.1727 15.9068 13.2043 15.8636 13.2451C15.8204 13.286 15.786 13.3352 15.7625 13.3898C15.739 13.4444 15.7268 13.5033 15.7268 13.5627C15.7268 13.6222 15.739 13.681 15.7625 13.7356C15.786 13.7902 15.8204 13.8395 15.8636 13.8803C15.9068 13.9212 15.9578 13.9528 16.0137 13.9733C16.0695 13.9937 16.1289 14.0026 16.1883 13.9993H19.6873C19.7989 13.9931 19.9038 13.9444 19.9807 13.8632C20.0575 13.782 20.1002 13.6745 20.1002 13.5627C20.1002 13.451 20.0575 13.3435 19.9807 13.2623C19.9038 13.1811 19.7989 13.1324 19.6873 13.1262H18.375V9.62585H19.6873C20.0352 9.62549 20.3688 9.48712 20.6148 9.24109C20.8608 8.99506 20.9992 8.66148 20.9996 8.31355V1.31285C20.999 0.964968 20.8606 0.631488 20.6146 0.3855C20.3686 0.139512 20.0351 0.00108219 19.6873 0.000549316Z" fill="white"/>
<path d="M5.68774 7.00104H2.62526V1.31264C2.62526 0.964504 2.48697 0.63063 2.2408 0.384464C1.99464 0.138298 1.66076 0 1.31263 0C0.9645 0 0.630627 0.138298 0.384461 0.384464C0.138295 0.63063 0 0.964504 0 1.31264L0 8.31334C0.000532877 8.66122 0.138963 8.9947 0.384951 9.24068C0.630939 9.48667 0.964417 9.6251 1.3123 9.62563H2.62526V13.126H1.3123C1.20071 13.1322 1.09573 13.1809 1.01892 13.2621C0.942112 13.3432 0.899312 13.4508 0.899312 13.5625C0.899312 13.6743 0.942112 13.7818 1.01892 13.863C1.09573 13.9442 1.20071 13.9929 1.3123 13.9991H4.81265C4.92424 13.9929 5.02922 13.9442 5.10603 13.863C5.18283 13.7818 5.22563 13.6743 5.22563 13.5625C5.22563 13.4508 5.18283 13.3432 5.10603 13.2621C5.02922 13.1809 4.92424 13.1322 4.81265 13.126H3.50035V9.62563H5.68774C6.03587 9.62563 6.36974 9.48734 6.61591 9.24117C6.86207 8.995 7.00037 8.66114 7.00037 8.313C7.00037 7.96487 6.86207 7.631 6.61591 7.38483C6.36974 7.13867 6.03587 7.00037 5.68774 7.00037V7.00104Z" fill="white"/>
<path d="M11.6898 6.49919C12.1786 6.82671 12.7536 7.00157 13.3419 7.00157C13.9303 7.00157 14.5053 6.82671 14.9941 6.49919C15.3401 6.24671 15.7599 6.11567 16.1882 6.12645C16.2456 6.12645 16.3025 6.11512 16.3556 6.09311C16.4087 6.07109 16.457 6.03883 16.4976 5.99816C16.5382 5.95749 16.5704 5.90922 16.5923 5.8561C16.6142 5.80298 16.6255 5.74605 16.6254 5.68858V4.37628C16.625 3.91221 16.4405 3.46725 16.1124 3.13911C15.7842 2.81097 15.3393 2.62645 14.8752 2.6261H6.12567C5.66165 2.62663 5.2168 2.8112 4.88869 3.1393C4.56058 3.46741 4.37602 3.91226 4.37549 4.37628V5.68858C4.3754 5.74605 4.38664 5.80298 4.40857 5.8561C4.43051 5.90922 4.4627 5.95749 4.50331 5.99816C4.54392 6.03883 4.59214 6.07109 4.64523 6.09311C4.69832 6.11512 4.75523 6.12645 4.8127 6.12645C5.23989 6.11575 5.65859 6.24683 6.00343 6.49919C6.49139 6.82679 7.06582 7.00172 7.65354 7.00172C8.24127 7.00172 8.81569 6.82679 9.30365 6.49919C9.53255 6.34016 9.79037 6.22745 10.0626 6.16742V13.1265H8.31238C8.20079 13.1327 8.09581 13.1814 8.019 13.2626C7.94219 13.3437 7.89939 13.4513 7.89939 13.563C7.89939 13.6748 7.94219 13.7823 8.019 13.8635C8.09581 13.9447 8.20079 13.9934 8.31238 13.9996H12.6878C12.7472 14.0029 12.8066 13.994 12.8624 13.9736C12.9183 13.9531 12.9693 13.9215 13.0125 13.8806C13.0557 13.8398 13.0901 13.7905 13.1136 13.7359C13.1371 13.6813 13.1493 13.6225 13.1493 13.563C13.1493 13.5036 13.1371 13.4447 13.1136 13.3901C13.0901 13.3355 13.0557 13.2863 13.0125 13.2454C12.9693 13.2046 12.9183 13.1729 12.8624 13.1525C12.8066 13.132 12.7472 13.1232 12.6878 13.1265H10.9376V6.17011C11.2071 6.23072 11.4624 6.34243 11.6898 6.49919Z" fill="white"/>
</svg>
