<svg width="16" height="18" viewBox="0 0 16 18" fill="none" xmlns="http://www.w3.org/2000/svg">
<path d="M12.1399 5.57882C12.0054 4.97564 12.1645 3.30059 10.2921 2.48335C9.70566 2.36876 5.38394 2.48335 4.88739 2.48335C4.39084 2.48335 3.8927 1.6311 3.8927 1.6311L3.2561 5.68386L5.67518 6.5552C5.67518 6.5552 9.31813 6.7056 9.73351 6.7056C9.85277 6.68329 9.96037 6.61971 10.0374 6.526C10.1145 6.43229 10.1561 6.31444 10.155 6.19311C10.1538 6.07179 10.11 5.95474 10.0312 5.8625C9.95239 5.77025 9.84362 5.7087 9.72396 5.68863C8.96959 5.51914 7.01841 4.97803 7.01841 4.97803L10.4234 4.76397C10.5468 5.30641 10.8064 5.80843 11.1778 6.22258C11.2775 6.30743 11.4022 6.35742 11.533 6.36496C11.6637 6.37249 11.7933 6.33717 11.9022 6.26435C12.011 6.19152 12.0931 6.08517 12.136 5.96145C12.1789 5.83773 12.1802 5.70338 12.1399 5.57882Z" fill="white"/>
<path d="M2.78194 5.74213L3.7066 0.693894L0 0V5.25195L2.78194 5.74213Z" fill="white"/>
<path fill-rule="evenodd" clip-rule="evenodd" d="M12.4773 17.7216L14.0131 9.7593L14.0417 16.8184C13.7802 16.9511 13.5267 17.0991 13.2826 17.2616C13.0245 17.4324 12.7555 17.586 12.4773 17.7216ZM15.6603 17.9921C15.4924 17.9014 14.3473 17.1431 14.2279 17.1375C13.7283 17.3893 13.248 17.6776 12.7908 18.0001L15.6635 17.9921H15.6603ZM13.7505 9.13066L14.0059 7.80255L7.02878 7.80971L6.57998 9.07416L13.7505 9.13066ZM13.6892 9.44896L7.55637 9.41235L5.91394 17.9993H12.05L13.6948 9.44577L13.6892 9.44896ZM10.7378 15.0988C10.7115 15.3908 9.84972 15.6264 9.47333 15.6224C9.09694 15.6184 8.24787 15.3725 8.2248 15.1083C8.19217 14.7407 8.59402 15.0033 8.7301 15.0757C9.95714 15.729 10.799 14.4487 10.7378 15.0988ZM11.0895 12.3137C10.7306 12.4243 10.055 11.6023 8.98713 12.2484C8.65928 12.4473 8.4675 12.2484 8.66882 12.0312C9.06241 11.7409 9.54774 11.603 10.0351 11.6428C10.3709 11.6731 11.2009 11.8712 11.0903 12.3137H11.0895ZM7.85557 12.8969H11.9306C11.8876 13.3203 11.8166 13.7403 11.7181 14.1542C11.6553 14.4526 11.5757 14.3667 11.224 14.3619L7.57626 14.3571L7.85636 12.8946L7.85557 12.8969ZM14.4014 9.58821L15.9563 17.7096C15.6755 17.5785 15.4056 17.4249 15.1494 17.2505C14.8924 17.0977 14.6218 16.9537 14.399 16.7874L14.4014 9.58821Z" fill="white"/>
</svg>
