<svg xmlns="http://www.w3.org/2000/svg" id="Слой_1" x="0" y="0" version="1.1" viewBox="0 0 64 64" xml:space="preserve"><style>.st55{fill:#717070}</style><switch><g><g id="__1_" transform="translate(1.212)"><g id="back_1_"><path id="Контур_51_1_" d="M43.19 32L18.41 58.2a1.7 1.7 0 0 0 0 2.32c.56.6 1.5.64 2.1.09l.09-.09 25.89-27.36a1.7 1.7 0 0 0 0-2.32L20.6 3.49c-.28-.3-.68-.48-1.09-.49-.42 0-.82.18-1.1.49a1.7 1.7 0 0 0 0 2.32L43.19 32z" class="st55"/></g></g><g id="_2_1_" transform="translate(0 1.576)"><g id="back-2_1_"><path id="Контур_51-2_1_" d="M37.33 30.43l-21.1 22.3c-.52.56-.52 1.42 0 1.98.47.52 1.27.55 1.79.08l.08-.08 22.04-23.29c.52-.56.52-1.42 0-1.98L18.1 6.15c-.24-.26-.58-.41-.93-.41-.35 0-.69.15-.93.41-.52.56-.52 1.42 0 1.98l21.09 22.3z" class="st55"/></g></g></g></switch></svg>