<svg xmlns="http://www.w3.org/2000/svg" id="Слой_1" x="0" y="0" version="1.1" viewBox="0 0 64 64" xml:space="preserve"><style>.st8{fill:#5d5d5d}</style><switch><g><g id="Сгруппировать_3130" transform="translate(15045 -2776)"><g id="Эллипс_17" fill="none" transform="translate(-15045 2776)"><circle cx="32" cy="32" r="30"/><circle cx="32" cy="32" r="30" stroke="#5d5d5d" stroke-width="2"/></g><g id="money" transform="translate(-15033.306 2787.693)"><path id="Контур_1728" d="M12.96 16.37c2.31.72 4.72 1.06 7.14 1.02 2.42.04 4.83-.3 7.14-1.02 2.04-.7 3.17-1.69 3.17-2.78s-1.12-2.07-3.17-2.78c-2.31-.72-4.72-1.06-7.14-1.02-2.42-.04-4.82.3-7.13 1.02-2.04.7-3.17 1.69-3.17 2.78s1.12 2.08 3.16 2.78z" class="st8"/><path id="Контур_1729" d="M29.69 17.73c-.19.01-.37.07-.53.17-.34.17-.69.32-1.06.43l-.11.04c-2.55.8-5.22 1.19-7.89 1.14-2.67.04-5.34-.34-7.89-1.14-.34-.1-.68-.23-1-.39a1.39 1.39 0 0 0-.63-.18.73.73 0 0 0-.73.55c-.03.13-.05.26-.05.39 0 1.09 1.12 2.07 3.17 2.78 2.31.72 4.72 1.06 7.14 1.02 2.42.04 4.83-.3 7.14-1.02 2.04-.7 3.17-1.69 3.17-2.78 0-.17-.03-.34-.08-.5-.09-.31-.35-.52-.65-.51z" class="st8"/><path id="Контур_1730" d="M29.69 22.81c-.19.01-.37.07-.53.17-.34.17-.69.32-1.05.43l-.11.04c-2.55.8-5.22 1.19-7.89 1.14-2.67.04-5.34-.34-7.89-1.14-.34-.1-.68-.23-1-.39a1.39 1.39 0 0 0-.63-.18.73.73 0 0 0-.73.55c-.03.13-.05.26-.05.39 0 1.09 1.12 2.07 3.17 2.78 2.31.72 4.72 1.06 7.14 1.02 2.42.04 4.83-.3 7.14-1.02 2.04-.7 3.17-1.69 3.17-2.78 0-.17-.03-.34-.08-.5-.1-.31-.36-.52-.66-.51z" class="st8"/><path id="Контур_1731" d="M29.69 27.95c-.19.01-.37.07-.53.17-.34.17-.69.32-1.06.43l-.11.04c-2.55.8-5.22 1.19-7.89 1.14-2.67.04-5.34-.34-7.89-1.14-.34-.1-.68-.23-1-.39a1.39 1.39 0 0 0-.63-.18.73.73 0 0 0-.73.55c-.03.13-.05.26-.05.39 0 1.09 1.12 2.07 3.17 2.78 2.31.72 4.72 1.06 7.14 1.02 2.42.04 4.83-.3 7.14-1.02 2.04-.7 3.17-1.69 3.17-2.78 0-.17-.03-.34-.08-.5a.69.69 0 0 0-.65-.51z" class="st8"/></g></g></g></switch></svg>