<svg width="18" height="19" viewBox="0 0 18 19" fill="none" xmlns="http://www.w3.org/2000/svg">
<path d="M16.6951 3.01923C16.5759 2.89452 16.4324 2.79558 16.2735 2.7285C16.1145 2.66142 15.9435 2.62763 15.7711 2.62923H14.4571V1.64323C14.46 1.42714 14.4187 1.21272 14.3357 1.01322C14.2526 0.813709 14.1295 0.633337 13.9741 0.483228C13.8239 0.327757 13.6436 0.20469 13.4441 0.121619C13.2446 0.0385484 13.0301 -0.00276499 12.8141 0.000227606H12.1571C11.941 -0.00276499 11.7265 0.0385484 11.527 0.121619C11.3275 0.20469 11.1472 0.327757 10.9971 0.483228C10.8416 0.633337 10.7185 0.813709 10.6354 1.01322C10.5524 1.21272 10.5111 1.42714 10.5141 1.64323V2.62923H6.57205V1.64323C6.57504 1.42714 6.53373 1.21272 6.45066 1.01322C6.36759 0.813709 6.24452 0.633337 6.08905 0.483228C5.93836 0.327137 5.75718 0.20371 5.55676 0.120618C5.35634 0.037527 5.14098 -0.00345239 4.92405 0.000227606H4.26705C4.05096 -0.00276499 3.83655 0.0385484 3.63704 0.121619C3.43753 0.20469 3.25716 0.327757 3.10705 0.483228C2.95158 0.633337 2.82851 0.813709 2.74544 1.01322C2.66237 1.21272 2.62106 1.42714 2.62405 1.64323V2.62923H1.31405C1.14157 2.62769 0.970596 2.6615 0.81168 2.72858C0.652764 2.79565 0.509272 2.89457 0.390051 3.01923C0.265394 3.13845 0.166477 3.28194 0.0994019 3.44086C0.0323271 3.59977 -0.0014853 3.77074 5.00371e-05 3.94323V17.0862C0.00496127 17.4332 0.144977 17.7646 0.390343 18.0099C0.635709 18.2553 0.967086 18.3953 1.31405 18.4002H15.7711C16.118 18.3953 16.4494 18.2553 16.6948 18.0099C16.9401 17.7646 17.0801 17.4332 17.0851 17.0862V3.94323C17.0866 3.77074 17.0528 3.59977 16.9857 3.44086C16.9186 3.28194 16.8197 3.13845 16.6951 3.01923ZM4.27105 17.0862H1.31405V14.1282H4.27105V17.0862ZM4.27105 13.4722H1.31405V10.1862H4.27105V13.4722ZM4.27105 9.52923H1.31405V6.57223H4.27105V9.52923ZM4.04005 4.82923C4.0084 4.79967 3.98318 4.7639 3.96598 4.72415C3.94877 4.6844 3.93994 4.64154 3.94005 4.59823V1.64323C3.94109 1.55629 3.97608 1.47321 4.03756 1.41174C4.09904 1.35026 4.18212 1.31527 4.26905 1.31423H4.92405C5.01099 1.31527 5.09407 1.35026 5.15554 1.41174C5.21702 1.47321 5.25201 1.55629 5.25305 1.64323V4.60023C5.25201 4.68716 5.21702 4.77024 5.15554 4.83172C5.09407 4.89319 5.01099 4.92819 4.92405 4.92923H4.26705C4.22474 4.92886 4.18293 4.91999 4.14411 4.90316C4.10529 4.88632 4.07024 4.86186 4.04105 4.83123L4.04005 4.82923ZM8.21405 17.0862H4.92405V14.1282H8.21405V17.0862ZM8.21405 13.4722H4.92405V10.1862H8.21405V13.4722ZM8.21405 9.52923H4.92405V6.57223H8.21405V9.52923ZM12.1571 17.0862H8.87205V14.1282H12.1581L12.1571 17.0862ZM12.1571 13.4722H8.87205V10.1862H12.1581L12.1571 13.4722ZM12.1571 9.52923H8.87205V6.57223H12.1581L12.1571 9.52923ZM11.9261 4.82923C11.8944 4.79963 11.8693 4.76385 11.8521 4.72411C11.8349 4.68438 11.826 4.64153 11.826 4.59823V1.64323C11.8271 1.55646 11.8619 1.47353 11.9232 1.41208C11.9845 1.35063 12.0673 1.31552 12.1541 1.31423H12.8111C12.8978 1.31552 12.9806 1.35063 13.0419 1.41208C13.1032 1.47353 13.138 1.55646 13.1391 1.64323V4.60023C13.138 4.68699 13.1032 4.76992 13.0419 4.83137C12.9806 4.89282 12.8978 4.92793 12.8111 4.92923H12.1541C12.1111 4.92945 12.0685 4.92088 12.0289 4.90402C11.9894 4.88717 11.9537 4.86239 11.9241 4.83123L11.9261 4.82923ZM15.7711 17.0842H12.8141V14.1282H15.7711V17.0842ZM15.7711 13.4702H12.8141V10.1862H15.7711V13.4702ZM15.7711 9.52723H12.8141V6.57223H15.7711V9.52723Z" fill="#5C5C5C"/>
</svg>
