<svg xmlns="http://www.w3.org/2000/svg" id="Слой_1" x="0" y="0" version="1.1" viewBox="0 0 64 64" xml:space="preserve"><style></style><switch><g><path id="korzinaa" fill="#21a290" d="M55.82 54.05l-3.41-39.02c-.07-.86-.78-1.52-1.63-1.52h-7.02c0-6.5-5.27-11.77-11.77-11.77S20.22 7.01 20.22 13.51H13.2c-.86 0-1.57.67-1.63 1.52L8.14 54.05v.15a8.545 8.545 0 0 0 8.95 8.06h29.82c4.69.23 8.68-3.37 8.94-8.06.01-.05.01-.1 0-.15h-.03zM31.99 5.09c4.65.04 8.41 3.78 8.48 8.43H23.51a8.552 8.552 0 0 1 8.48-8.43zM46.9 58.92H17.08a5.251 5.251 0 0 1-5.65-4.64l3.26-37.42h5.51v5.08c-.04.91.67 1.68 1.58 1.71.91.04 1.68-.67 1.71-1.58v-5.22h16.98v5.08c-.04.91.67 1.68 1.58 1.71.91.04 1.68-.67 1.71-1.58v-5.22h5.51l3.28 37.42a5.32 5.32 0 0 1-5.65 4.66z"/></g></switch></svg>