<svg width="19" height="19" viewBox="0 0 19 19" fill="none" xmlns="http://www.w3.org/2000/svg">
<path fill-rule="evenodd" clip-rule="evenodd" d="M9.11011 6.30742e-06C11.218 -0.000201862 13.2607 0.730466 14.8903 2.06754C16.5198 3.40462 17.6354 5.26536 18.0468 7.33271C18.4582 9.40006 18.1401 11.5461 17.1466 13.4052C16.1531 15.2643 14.5457 16.7214 12.5983 17.5282C10.651 18.335 8.48411 18.4416 6.46693 17.8299C4.44976 17.2182 2.70709 15.9259 1.53587 14.1734C0.364656 12.4208 -0.162634 10.3164 0.0438214 8.21863C0.250277 6.12088 1.17771 4.15962 2.6681 2.66901C3.51313 1.82171 4.51726 1.14972 5.62279 0.691687C6.72831 0.233653 7.91345 -0.00140385 9.11011 6.30742e-06ZM15.8371 9.783C15.6588 9.783 15.4877 9.71215 15.3616 9.58604C15.2355 9.45992 15.1646 9.28887 15.1646 9.11051C15.1646 8.93215 15.2355 8.7611 15.3616 8.63499C15.4877 8.50887 15.6588 8.43799 15.8371 8.43799H16.8481C16.6896 6.61747 15.8944 4.91111 14.6022 3.61893C13.31 2.32676 11.6036 1.53149 9.78311 1.37299V2.38401C9.78311 2.56237 9.71225 2.73342 9.58613 2.85953C9.46002 2.98565 9.28897 3.05649 9.11061 3.05649C8.93225 3.05649 8.7612 2.98565 8.63508 2.85953C8.50897 2.73342 8.43811 2.56237 8.43811 2.38401V1.37299C6.61758 1.53149 4.91121 2.32676 3.61903 3.61893C2.32685 4.91111 1.5316 6.61747 1.37311 8.43799H2.38411C2.56247 8.43799 2.73351 8.50887 2.85963 8.63499C2.98575 8.7611 3.05661 8.93215 3.05661 9.11051C3.05661 9.28887 2.98575 9.45992 2.85963 9.58604C2.73351 9.71215 2.56247 9.783 2.38411 9.783H1.37311C1.5316 11.6035 2.32685 13.3099 3.61903 14.6021C4.91121 15.8943 6.61758 16.6895 8.43811 16.848V15.837C8.43811 15.6587 8.50897 15.4876 8.63508 15.3615C8.7612 15.2354 8.93225 15.1645 9.11061 15.1645C9.28897 15.1645 9.46002 15.2354 9.58613 15.3615C9.71225 15.4876 9.78311 15.6587 9.78311 15.837V16.848C11.6037 16.6897 13.3102 15.8945 14.6024 14.6023C15.8946 13.3101 16.6898 11.6036 16.8481 9.783H15.8371ZM10.0481 9.63401L13.0741 6.13999C13.1317 6.07341 13.1756 5.99615 13.2033 5.9126C13.231 5.82906 13.242 5.74085 13.2357 5.65305C13.2293 5.56525 13.2057 5.4796 13.1662 5.40092C13.1268 5.32224 13.0722 5.25208 13.0056 5.19449C12.939 5.13691 12.8618 5.09301 12.7782 5.06528C12.6947 5.03756 12.6065 5.02657 12.5187 5.03293C12.4309 5.0393 12.3452 5.06289 12.2665 5.10236C12.1878 5.14184 12.1177 5.19643 12.0601 5.26301L9.08711 8.69501C8.96499 8.69816 8.84484 8.72639 8.73411 8.77799L6.0341 7.52701C5.95406 7.49011 5.86755 7.46932 5.77948 7.46586C5.69141 7.46239 5.60352 7.47631 5.52083 7.50681C5.43814 7.53732 5.36227 7.58383 5.29754 7.64365C5.23282 7.70348 5.18052 7.77547 5.14361 7.85551C5.10671 7.93555 5.08593 8.02207 5.08247 8.11014C5.07901 8.19821 5.09292 8.28609 5.12343 8.36878C5.15393 8.45147 5.20043 8.52736 5.26025 8.59208C5.32008 8.6568 5.39206 8.70911 5.47211 8.74601L8.22311 10.021C8.28151 10.2118 8.39874 10.3793 8.55806 10.4994C8.71737 10.6196 8.91059 10.6863 9.11011 10.69C9.36723 10.6819 9.61061 10.572 9.78671 10.3845C9.96281 10.1969 10.0572 9.94713 10.0491 9.69001C10.0491 9.67401 10.0491 9.65402 10.0481 9.63502V9.63401Z" fill="#5C5C5C"/>
</svg>
