<svg xmlns="http://www.w3.org/2000/svg" id="Слой_1" x="0" y="0" version="1.1" viewBox="0 0 64 64" xml:space="preserve"><style></style><switch><g><path id="Контур_2205" fill="#a1a0a0" fill-rule="evenodd" d="M32 2c16.57 0 30 13.43 30 30S48.57 62 32 62 2 48.57 2 32c0-7.96 3.16-15.59 8.79-21.21C16.41 5.15 24.04 1.99 32 2zm22.15 32.21a2.21 2.21 0 0 1 0-4.42h3.33C56.4 17.41 46.58 7.6 34.21 6.53v3.33a2.21 2.21 0 0 1-4.42 0V6.53C17.41 7.6 7.6 17.42 6.52 29.79h3.33a2.21 2.21 0 0 1 0 4.42H6.52C7.6 46.59 17.41 56.4 29.79 57.47v-3.33a2.21 2.21 0 0 1 4.42 0v3.33C46.59 56.4 56.4 46.59 57.48 34.21h-3.33zm-19.06-.49l9.97-11.5c.8-.92.7-2.32-.22-3.11-.92-.8-2.32-.7-3.11.22l-9.79 11.3c-.4.01-.8.1-1.16.27l-8.89-4.12c-1.12-.49-2.42.02-2.91 1.14a2.21 2.21 0 0 0 1.06 2.88L29.1 35a3.097 3.097 0 0 0 2.92 2.2 3.191 3.191 0 0 0 3.09-3.28c-.02-.07-.02-.13-.02-.2z" clip-rule="evenodd"/></g></switch></svg>