<svg xmlns="http://www.w3.org/2000/svg" id="Слой_1" x="0" y="0" version="1.1" viewBox="0 0 64 64" xml:space="preserve"><style></style><switch><g><path id="Контур_4093" fill="#a1a0a0" fill-rule="evenodd" d="M36.51 6.28h18.65c1.79 0 3.5.69 4.79 1.93a6.536 6.536 0 0 1 2.04 4.74v34.58c-.01 1.79-.74 3.5-2.04 4.74a6.9 6.9 0 0 1-4.79 1.93H36.51v-.01h-.02c-.56.09-1.04.42-1.34.89-.54.72-.83 1.6-.84 2.51h-.01v.08l-4.62.05v-.25c-.03-.9-.32-1.76-.85-2.49-.31-.45-.8-.74-1.35-.78H8.83a6.9 6.9 0 0 1-4.79-1.93A6.536 6.536 0 0 1 2 47.53V12.95c.01-1.79.74-3.5 2.04-4.74a6.9 6.9 0 0 1 4.79-1.93h18.65c1.77.07 3.42.9 4.52 2.29a6.022 6.022 0 0 1 4.51-2.29zm4.9 31.76h2.95c1.46 0 2.85-.67 3.77-1.81a6.2 6.2 0 0 0 1.33-3.97V14.59h-3.72v17.67c.03.58-.14 1.15-.47 1.62-.22.28-.56.44-.91.45h-8.64v3.72h1.97v7.76h3.72v-7.77zm0-23.65h-3.72v15.7h3.72v-15.7zM21.99 45.7h3.72v-7.79a8.425 8.425 0 0 0 7.14-6c.48-1.48.69-3.03.62-4.59-.05-1.57-.32-3.12-.79-4.62-1.42-4.48-4.63-8.2-8.62-8.2s-7.35 3.8-8.84 8.34c-.49 1.5-.78 3.05-.84 4.63-.08 1.56.14 3.11.63 4.59a8.375 8.375 0 0 0 7 5.82l-.02 7.82zm7.14-21.88c-.97-3.07-2.89-5.61-5.08-5.61-2.25 0-4.29 2.63-5.32 5.78a13.46 13.46 0 0 0-.67 3.61c-.06 1.1.09 2.21.43 3.25.8 2.28 3.07 3.71 5.48 3.46 2.41.21 4.64-1.28 5.37-3.58.34-1.07.48-2.18.43-3.3-.05-1.22-.27-2.44-.64-3.61zm26.04-12.9H36.51c-.35 0-.78.37-1.18.87-.6.76-.96 1.68-1.02 2.65h-4.64c-.06-.97-.41-1.89-1.02-2.65-.39-.51-.82-.87-1.18-.87H8.83c-.59 0-1.16.22-1.59.62-.39.37-.61.87-.61 1.4v34.58c0 .53.22 1.04.61 1.4.43.41 1 .63 1.59.63h18.65c1.74.01 3.4.76 4.56 2.05a6.203 6.203 0 0 1 4.38-2.04h.08l.01-.01h18.65c.59 0 1.16-.22 1.59-.63.39-.36.61-.87.61-1.4V12.95c0-.53-.22-1.04-.61-1.4-.43-.41-1-.63-1.58-.63z" clip-rule="evenodd"/></g></switch></svg>