<svg xmlns="http://www.w3.org/2000/svg" id="Слой_1" x="0" y="0" version="1.1" viewBox="0 0 64 64" xml:space="preserve"><style></style><switch><g><path fill="#c4c4c4" d="M32.03 14.97c.24-.34.48-.67.73-1 2.27-3.05 5.2-5.28 9.02-6.36 2.62-.74 5.28-.76 7.94-.15 6.42 1.46 10.94 6.61 11.24 12.85.15 3.1-.15 6.17-1.14 9.15-.98 2.96-2.71 5.5-4.86 7.81-2.69 2.89-5.79 5.36-8.82 7.9-4.29 3.58-8.56 7.19-12.84 10.78-.34.28-.66.57-.97.88-.25.25-.42.22-.69-.01-2-1.75-3.99-3.51-6.02-5.22-2.76-2.32-5.57-4.6-8.35-6.91-2.87-2.38-5.75-4.76-8.3-7.46-3.56-3.77-5.58-8.15-5.87-13.21-.09-1.62-.2-3.27.06-4.86.94-5.9 4.45-9.89 10.53-11.55 5.69-1.55 10.77-.17 15.1 3.65 1.13.99 2.07 2.13 2.91 3.35.06.09.12.17.19.25.01.05.06.06.14.11z"/></g></switch></svg>