<svg xmlns="http://www.w3.org/2000/svg" id="Слой_1" x="0" y="0" version="1.1" viewBox="0 0 64 64" xml:space="preserve"><style></style><switch><g><path id="Контур_2212" fill="#a1a0a0" fill-rule="evenodd" stroke="#a1a0a0" stroke-width=".25" d="M24.13 7.35c-.24.86-.54 1.69-.91 2.5l-.52 1.41a.38.38 0 0 1-.09.13c0 .27-2.34 6.46-2.43 6.53-.3.98-.68 1.95-1.12 2.88-.07.42-.21.83-.4 1.21-.16.5-.36.98-.55 1.48l-.58 1.39c-.23.84-.53 1.67-.89 2.46-.36 1.31-2.8 7.1-2.85 7.81-.07 1.08.76 1.7 1.95 1.54.34-.22.45-.18.71-.5.26-.32.24-.56.4-.8.14-.57.36-1.11.65-1.62 0-.37 1.45-3.97 1.69-4.64l1.3-3.45c.08-.21.15-.38.22-.58.03-.09.07-.22.11-.3l.14-.22c.08-.43.22-.84.43-1.23.15-.51.33-1.02.54-1.51.12-.49.31-.95.57-1.38.08-.39.21-.77.4-1.13.18-.63.41-1.25.67-1.85C24.12 16 28 5.55 28.21 5.28c.85.11 2.03.47 2.88.66l7.04 1.66c.47.07.92.2 1.36.38.39.01.78.08 1.14.23 1.37.23 6.59 1.54 8.39 1.97.19.05.38.09.59.14l.53.16c.01-.01.03.02.05.03.41-.06.82.19 1.22.22.48.14.96.24 1.45.35l.72.16.48.13c.15.06.07.02.14.08.39 0 .77.08 1.13.23l3.2.76-3.71 10.86-.92 2.72-.46 1.3c-.28 1-.63 1.98-1.06 2.93-.02.34-.13.67-.3.96-.15.52-.32 1.04-.52 1.54-.12.51-.31 1-.57 1.46-.05.38-.17.74-.35 1.08-.14.51-.32 1.02-.52 1.51-.11.47-.29.93-.54 1.34-.22.86-.52 1.71-.89 2.52-.13.51-.32 1-.57 1.47-.24.86-.54 1.7-.91 2.51-.14.57-.36 1.12-.65 1.63-.44 1.38-.96 2.74-1.55 4.06-.49 1.27-1.09 2.5-1.8 3.66-.57 1.06-1.28 2.03-2.12 2.89-.84.9-1.92 1.56-3.1 1.91-1.19.28-2.44.17-3.56-.32a7.152 7.152 0 0 1-4.72-7.7c.23-2.41 1.02-2.48-1.85-3.82-.45-.21-.9-.47-1.37-.7-1.82-.86-3.71-1.86-5.51-2.77l-8.26-4.16c-.92-.46-1.87-.92-2.75-1.38l-4.13-2.09c-.91-.48-2.03-1.26-2.97-.23a2.68 2.68 0 0 0-.48 1.58c-.08.59-.3 3.54-.39 3.76v2.87c.1.24.28 2.05.42 2.6.1.37.22.73.38 1.08.14.3.46.74.51.91.22.11.19.09.3.32l1.16.94c.42.27.82.57 1.2.9.42.2.82.45 1.19.73 2.65 1.62 4.51 2.58 7.17 4.04l.61.32c.21.08.4.2.56.35.86.35 1.69.77 2.48 1.24.93.38 1.84.82 2.72 1.32l2.68 1.27c.66.25.82.53 1.69.48.75-.35.19-.03.8-.45 0 0 .03 0 .03-.02s.02-.01.03-.02l.3-.5c-.01-.22.04-.35.03-.59-.01-.25-.07-.32-.08-.54a.597.597 0 0 1-.24-.36l-.1-.07c-.56-.42-.95-.51-1.1-.64-.82-.32-1.63-.7-2.41-1.12-2.86-1.39-14.96-7.51-15.6-8.65-.23-.04-.12-.02-.32-.19a2.882 2.882 0 0 1-1.26-2.45l-.11-1.34c-.06-1.46 0-2.92.18-4.37.21.03 5.97 2.94 6.05 3.04.27.09.53.21.78.36.11.06.2.1.36.18.19.09.2.07.32.23.49.12.94.35 1.33.67.43.13.84.33 1.22.59.59.21 4.94 2.44 5.79 2.88 1.66.87 4.22 2.04 5.67 2.87 0 .45-.09 1.01-.11 1.51 0 .54.02 1.07.07 1.61l.1.89.5 1.65c.07.08.35.74.43.91 1.11 2.02 2.83 3.64 4.91 4.64l1.52.62c.39-.01 1.56.32 2.23.36 2.1.06 4.15-.66 5.76-2.02 1.42-1.2 2.63-2.63 3.58-4.23.13-.21.84-1.54.93-1.61.15-.46.45-1.01.66-1.48.1-.24.19-.45.3-.7.06-.25.18-.48.34-.68.26-.85.58-1.68.96-2.48.16-.64.54-1.45.78-2.1.25-.68.5-1.34.75-1.99.19-.51 1.33-3.74 1.48-3.95L52.96 38c.08-.44.22-.87.41-1.27l.95-2.68c.02-.05.06-.1.1-.14.06-.4.18-.79.36-1.15l.98-2.76.43-1.25.92-2.7.47-1.32.93-2.69.89-2.6c.07-.28.15-.56.26-.83.04-.12.08-.25.13-.4l.18-.33c.21-.86.47-1.71.8-2.54.07-.27.16-.52.26-.77.04-.13.07-.23.11-.35.06-.19.05-.18.17-.31.05-.4.17-.79.35-1.15.13-.55.95-2.09-.59-2.79-.48-.22-2.84-.6-3.13-.83-.86-.12-1.7-.3-2.53-.54-.49-.07-.97-.2-1.43-.39-.38.03-.82-.21-1.21-.24l-2.79-.72c-.41-.01-.81-.09-1.18-.24l-1.53-.35c-.17-.07-.07-.03-.14-.08-.34 0-.68-.07-1-.2a19.49 19.49 0 0 1-2.99-.74C42.86 5.66 27.79 2.15 27.5 2h-.48c-.64.34-.82.21-1.14.91-.22.47-.38.99-.57 1.5-.33 1.01-.72 2-1.17 2.96l-.01-.02zm7.85 8.04c-1.19.22-2.34-.56-2.56-1.76a2.193 2.193 0 0 1 2.54-2.56l.63.16c.14.18.02.09.24.16.1.16.28.25.42.41.8.9.72 2.28-.18 3.08-.32.27-.69.45-1.09.51h0zm3.37-1.61c.57-.24.48-.48 1.43-.4l1.23.36 2.78.78c.36.16.74.26 1.14.3.04.04.08.06.13.08l.58.18c.24.07.48.15.75.2.82.29 1.67.52 2.53.68.22.13.46.22.7.26.26.08.52.15.78.2.78.29 1.59.51 2.41.67.53.24 1.09.43 1.66.57l.4.35a2 2 0 0 1 .23 1.2c-.01.59-.53.83-.63 1.04-1.02.35-1.1.2-2.12-.09-.6-.18-1.39-.44-2.02-.56-.77-.28-1.55-.5-2.36-.64-.52-.25-1.08-.42-1.65-.51-.37-.16-.77-.27-1.18-.3-.04-.04-.09-.06-.14-.09l-.15-.06a8.33 8.33 0 0 0-.41-.1 27.23 27.23 0 0 0-3.21-.89c-.46-.23-.96-.39-1.47-.48a4.6 4.6 0 0 1-1.42-.57c-.04-.13.02.02-.05-.11-.02-.04-.07-.11-.1-.16l-.15-.24c-.16-.52-.09-1.08.19-1.53.3-.08.09.01.12-.14h0zm-5.16 9.08a2.194 2.194 0 0 1-2.57 1.75 2.194 2.194 0 1 1 .83-4.31 2.2 2.2 0 0 1 1.74 2.58v-.02zm5.21 3.57c-1.37-.48-3.23-.67-3.73-1.46a1.55 1.55 0 0 1 .49-2.13c.17-.11.37-.18.57-.21.52-.06.73.16 1.14.14.5.25 1.03.41 1.58.48l2.59.76c1.18.42 2.68.8 3.92 1.15.64.17 5.54 1.54 5.92 1.77.6.36.88 1.09.67 1.77-.22.63-.82 1.05-1.49 1.04-.63-.01-1.56-.52-2.09-.49-.52-.25-1.08-.42-1.65-.51l-2.59-.76-1.81-.51a.796.796 0 0 0-.5-.1.377.377 0 0 0-.15-.09l-1.34-.4c-.54-.17-1.01-.33-1.53-.45h0zm-12.41 3.63c.85-.67 2.03-.68 2.89-.03.95.77 1.09 2.16.31 3.11-.77.95-2.16 1.09-3.11.31-.64-.53-.94-1.37-.76-2.18.07-.22.16-.44.27-.64.06-.1.12-.19.19-.28.08-.08.15-.18.21-.29h0zm9.95 5.97c-.53-.39-3.96-.96-4.57-1.55-.61-.56-.65-1.5-.1-2.11.19-.2.42-.35.69-.43.96-.28 3.99 1.16 4.9 1.11.5.25 1.04.42 1.59.49.37.16.76.27 1.17.3.91.36 1.86.64 2.82.84.38.18.79.29 1.21.31l2.76.84c.21.09.47.14.69.22.29.11.38.26.58.32.21.47.57.73.34 1.52-.14.46-.49.83-.94 1-.95.35-2.41-.64-3.23-.58-.92-.37-1.87-.66-2.84-.86-.37-.17-.77-.27-1.17-.29l-1.51-.48c-.78-.27-1.57-.48-2.38-.63l-.01-.02z" clip-rule="evenodd"/></g></switch></svg>