<svg xmlns="http://www.w3.org/2000/svg" id="Слой_1" x="0" y="0" version="1.1" viewBox="0 0 64 64" xml:space="preserve"><style></style><switch><g><path id="Контур_4091" fill="#a1a0a0" fill-rule="evenodd" d="M55.41 46.2h2.29v12.19h-2.3l.01-12.19zm-4.07 7.65l-1.9.8c-.53.59-.6 1.46-.16 2.13.51.61 1.54.13 1.86-.36.24-.83.31-1.71.2-2.57zM19.08 23.88V40.5c-.11.85-.04 1.72.23 2.53.44.75 1.13.59 2.2.59 1.13-.01 1.62.08 2.15-.64.42-.58.28-1.64.28-2.48V23.88c1.12-.01 2.14-.66 2.62-1.67.24-1.36.31-2.74.2-4.12 0-1.5.08-7.72-.01-8.66-.95-.06-1.9-.07-2.85-.03-.17.03-.09.01-.16.05l-.03 10.87h-.93L22.77 9.4h-2.96l-.01 10.91-1 .02V9.45l-2.91-.03-.02 8.8c0 1.16-.21 3.24.32 4.09.66.95 1.74 1.53 2.89 1.57zm26.71 31.03c-.1 2.68-1.18 3.87-4.04 3.7-2.39-.14-2.95-2.24-2.95-4.73s.62-4.5 2.85-4.84c2.57-.39 4.17.97 4.14 3.44h-2.2c.04-.55-.11-1.1-.41-1.56-.4-.37-1-.41-1.43-.09-.67.47-.65 2.1-.64 3.17.01 1.11-.01 2.68.83 2.99 1.35.49 1.66-.94 1.64-2.09l2.21.01zM47.04 52c.08-1.67.6-2.52 1.99-2.89 1.33-.38 2.76-.15 3.91.63.85.86.64 2.54.65 4.08 0 .79.01 1.59 0 2.37-.04.74.04 1.49.23 2.21l-2.21-.01-.22-.91c-.29.09-.08-.02-.4.38-.93.96-2.45 1.06-3.49.22-.98-1.19-1-2.9-.05-4.11 1.11-1.11 3.4-.86 3.82-1.73.14-.37.14-.78 0-1.16a.88.88 0 0 0-.84-.55c-.97-.09-1.31.5-1.3 1.45l-2.09.02zm-16.39-5.8l2.32.03v6.43a32 32 0 0 0 2.45-3.44h2.56c-.44.51-.9 1.22-1.33 1.8l-1.3 1.81c.23.63 2.8 5.01 2.98 5.56-.84.05-1.68.04-2.51-.03l-1.99-3.71c-.22.18-.41.41-.56.65-.24.32-.32.27-.32.82.01.75-.01 1.51 0 2.27l-2.31.01.01-12.2zm-5.39 2.4a22.09 22.09 0 0 1-7.9-1.97c-1.1-.51-2.15-1.11-3.15-1.79-1.46-.99-2.8-2.16-3.99-3.46-.37-.45-.73-.85-1.11-1.33-7.47-9.65-5.7-23.53 3.95-30.99S36.6 3.35 44.07 13c6.41 8.28 6.12 19.92-.68 27.88-1.28 1.55-1.13 1.39-2.29 1.39h-3.61V20.73c0-2.31.11-4.91 0-7.19a3.66 3.66 0 0 0-3.61-3.7 3.669 3.669 0 0 0-3.7 3.52c-.09.86.03 13.06.03 14.32l2.49.01.02 14.58c-2.72-.01-3.74.21-5.39 1.53a6.071 6.071 0 0 0-2.07 4.8zM2.01 25.19v2.87c.05.12.24 2.2.3 2.57.96 5.78 3.94 11.02 8.43 14.79a24.56 24.56 0 0 0 5.29 3.42c2.9 1.37 6.04 2.17 9.24 2.36-.01 1.35.02 2.72 0 4.07-.1 1.17.12 2.34.65 3.38a6.28 6.28 0 0 0 4.76 3.34H56.6c.1-.05.82-.17 1.06-.24a6.06 6.06 0 0 0 4.07-4.04c.08-.25.21-1 .27-1.11v-8.91c-.13-.73-.36-1.43-.66-2.1-.3-.57-.69-1.1-1.16-1.55-1.01-1-2.34-1.61-3.75-1.72-1.68-.14-3.72-.05-5.45-.05-1.79 0-3.61-.03-5.4 0 .23-.37.65-.82.94-1.22 7.99-10.98 5.57-26.37-5.41-34.36a24.64 24.64 0 0 0-5.94-3.18c-1.69-.63-3.45-1.06-5.23-1.29-.3-.04-1.76-.15-1.88-.2h-2.87c-.14.06-2.16.23-2.58.3A24.584 24.584 0 0 0 2.3 22.61c-.07.41-.24 2.44-.29 2.58z" clip-rule="evenodd"/></g></switch></svg>