<svg xmlns="http://www.w3.org/2000/svg" id="Слой_1" x="0" y="0" version="1.1" viewBox="0 0 64 64" xml:space="preserve"><style></style><switch><g><path id="Контур_2209" fill="#bb4970" fill-rule="evenodd" d="M3.59 14.49l18.45-6.25h.05c.08-.03.17-.05.26-.06H23.09l.26.06h.05l17.89 6.06 17.89-6.06c1.12-.38 2.34.22 2.72 1.35.06.22.1.45.1.68v37.16c0 .97-.65 1.83-1.59 2.08l-18.45 6.25h-.05c-.08.03-.17.05-.26.06H40.92l-.26-.06h-.05L22.73 49.7 4.84 55.76c-1.12.38-2.34-.22-2.72-1.35-.08-.22-.12-.45-.12-.68V16.57c0-.98.65-1.83 1.59-2.08zm39.86 3.61v32.63l14.28-4.84V13.27L43.45 18.1zm-18.58-4.83V45.9l14.28 4.84V18.1l-14.28-4.83zm-4.3 0L6.3 18.1v32.63l14.28-4.84V13.27z" clip-rule="evenodd"/></g></switch></svg>