<svg xmlns="http://www.w3.org/2000/svg" id="Слой_1" x="0" y="0" version="1.1" viewBox="0 0 64 64" xml:space="preserve"><style></style><switch><g><g id="Звезда" transform="translate(-592.088 -195.088)"><g transform="translate(592.09 195.09)"><g id="Эллипс_22-2" fill="none" stroke="#21bc96" transform="translate(12 8)"><circle cx="20" cy="24" r="30" stroke-miterlimit="10"/><circle cx="20" cy="24" r="27.91" stroke-width="3"/></g></g><path id="add" fill="#21bc96" d="M634.36 225.2h-7.38c-.24 0-.43-.19-.43-.43v-7.38c.03-1.2-.92-2.2-2.12-2.23-1.2-.03-2.2.92-2.23 2.12v7.49c0 .24-.19.43-.43.43h-7.39c-1.2-.03-2.2.92-2.23 2.12-.03 1.2.92 2.2 2.12 2.23h7.49c.24 0 .43.19.43.43v7.38a2.175 2.175 0 1 0 4.35 0v-7.38c0-.24.19-.43.43-.43h7.38c1.2-.03 2.15-1.03 2.12-2.23a2.159 2.159 0 0 0-2.11-2.12z"/></g></g></switch></svg>