<svg xmlns="http://www.w3.org/2000/svg" id="Слой_1" x="0" y="0" version="1.1" viewBox="0 0 64 64" xml:space="preserve"><style>.st4{fill:#22a391;stroke:#22a391;stroke-width:.5}</style><switch><g><g id="Сгруппировать_273" transform="translate(.25 .25)"><path id="Контур_13" d="M38.83 46.53c5.06-8.39 11.45-20.18 11.45-26.24 0-10.24-8.3-18.54-18.54-18.54S13.2 10.05 13.2 20.29c0 6.06 6.39 17.86 11.45 26.24-6 .46-19.66 2.08-19.66 7.48 0 5.31 13.86 7.73 26.76 7.73s26.76-2.42 26.76-7.73c-.01-5.39-13.68-7.02-19.68-7.48zM15.76 20.29c0-8.83 7.16-15.99 15.99-15.99s15.99 7.16 15.99 15.99c0 7.7-12.27 27.03-15.99 32.71-3.73-5.68-15.99-25.01-15.99-32.71zM31.74 59.2c-15.66 0-24.2-3.43-24.2-5.19 0-1.36 5.63-4.29 18.61-5.03 2.44 3.93 4.29 6.71 4.53 7.04a1.313 1.313 0 0 0 2.12 0c.26-.31 2.09-3.11 4.53-7.04 12.98.75 18.61 3.66 18.61 5.03 0 1.77-8.54 5.19-24.2 5.19z" class="st4"/><path id="Контур_14" d="M39.75 20.26a8.02 8.02 0 0 0-8.02-8.02 8.02 8.02 0 0 0-8.02 8.02 8.02 8.02 0 0 0 8.02 8.02 8.02 8.02 0 0 0 8.02-8.02zm-13.5 0c0-3.03 2.46-5.49 5.49-5.49s5.49 2.46 5.49 5.49-2.46 5.49-5.49 5.49c-3.03 0-5.49-2.46-5.49-5.49z" class="st4"/></g></g></switch></svg>