<svg xmlns="http://www.w3.org/2000/svg" id="Слой_1" x="0" y="0" version="1.1" viewBox="0 0 64 64" xml:space="preserve"><style></style><switch><g><path id="Контур_1837" fill="#22a391" fill-rule="evenodd" stroke="#22a391" stroke-width=".5" d="M41.35 17.67L29.34 26.1a12.54 12.54 0 0 1 1.49 5.87v.11c.01 1.01-.12 2.02-.38 3.01-.23.91-.56 1.79-.99 2.63l12.22 8.23c.08-.08.16-.17.24-.25 3.73-3.72 9.78-3.72 13.5.01 3.72 3.73 3.72 9.78-.01 13.5-3.73 3.72-9.78 3.72-13.5-.01a9.549 9.549 0 0 1-1.9-10.77L27.78 40.2c-.2.23-.41.46-.63.68-4.89 4.89-12.82 4.89-17.72 0-4.89-4.89-4.89-12.82 0-17.72s12.82-4.89 17.72 0c0 0 0 0 0 0 .16.16.31.32.46.49l12.2-8.56c-1.95-4.9.43-10.45 5.33-12.41s10.46.43 12.41 5.33-.43 10.45-5.33 12.41a9.552 9.552 0 0 1-10.28-2.11c-.21-.21-.4-.42-.59-.64h0zm11.99 30.15a6.573 6.573 0 0 0-9.3 0 6.573 6.573 0 0 0 0 9.3 6.573 6.573 0 0 0 9.3 0 6.595 6.595 0 0 0 1.93-4.65c0-1.75-.7-3.42-1.93-4.65zm-.02-40.9c-2.56-2.55-6.7-2.55-9.25 0-2.55 2.56-2.55 6.7 0 9.25 2.56 2.55 6.7 2.55 9.25 0a6.566 6.566 0 0 0 1.91-4.62c.01-1.73-.68-3.4-1.91-4.63zM26.33 37.14c.41-.66.74-1.36 1-2.08.33-.98.5-2.01.5-3.05 0-.21-.01-.41-.02-.61-.19-1.73-.77-3.39-1.7-4.86-3.02-4.31-8.96-5.35-13.27-2.33-4.31 3.02-5.35 8.96-2.33 13.27 3.02 4.31 8.96 5.35 13.27 2.33a9.41 9.41 0 0 0 2.55-2.67h0z" clip-rule="evenodd"/></g></switch></svg>