<svg xmlns="http://www.w3.org/2000/svg" id="Слой_1" x="0" y="0" version="1.1" viewBox="0 0 64 64" xml:space="preserve"><style></style><switch><g><path id="Контур_2215" fill="#a1a0a0" fill-rule="evenodd" d="M51.97 25.12c.73.81 7.77 14.97 7.85 15.61l-15.56.01c.1-.98 6.72-13.72 7.71-15.62zM12 25.18c.97 1.29 7.65 14.71 7.72 15.59l-15.57-.03c.15-.7 7.42-15.14 7.85-15.56zm14.45 22.59c-1.06 1.04 1.1 4.64-4.05 6.43-1.15.4-.93-.49-.91 4.3h20.99c.01-4.79.26-3.92-1.09-4.35-4.6-1.45-3.01-5.65-3.86-6.42-.82-.47-2.85-.19-3.99-.17.01-.26 2.68-28.51 3.35-29.69 2.33.66 4.47 2.54 6.57 3.61 3.08 1.56 4.44 1.27 7.96 1.81-1.09 2.73-5.98 11.89-7.95 15.91-.9 1.84-.57 1.09-1.42 1.87 1.52 6 18.47 5.9 19.94 0l-.51-.42c-.86-.81-5.86-11.37-6.66-12.94-.81-1.44-1.54-2.92-2.18-4.45 3.65-2.56 1.02-4.98-.89-4.8-2.28.22-.75 3.64-9.89-1.99-4.62-2.84-4.84-2.01-7.68-2.81-.56-.16-.25-.04-.57-.22l.03-1.42c2.51-.06 5.02-.31 7.5-.73.18-1.97-1.78-3.62-3-4.34-5.95-3.51-15.51-.27-15.08 4.36l6.54.68c.07.02.14.04.2.05l.6.26-.04 1.14c-.06.03-.12.06-.18.08l-.56.19c-3.25.81-3.25.17-7.49 2.77-9.26 5.66-7.55 2.16-9.91 1.97-1.92-.15-4.5 2.34-.85 4.81-.78 2.35-3.33 6.74-4.57 9.18-.06.11-4.35 9.23-4.67 8.53-.02-.02-.09.08-.13.12 1.73 6.08 18.33 6.11 19.95 0-1.46-1.26-1.38-1.84-2.65-4.32-.75-1.46-1.52-3.05-2.22-4.4l-4.5-9.14c8.82-.02 10.85-4.72 14.73-5.32l3.17 29.62c-1.15.07-3.24-.3-4.03.24z" clip-rule="evenodd"/></g></switch></svg>