<svg width="20" height="20" viewBox="0 0 20 20" fill="none" xmlns="http://www.w3.org/2000/svg">
<path d="M10 20C8.02219 20 6.08879 19.4135 4.4443 18.3147C2.79981 17.2159 1.51809 15.6541 0.761209 13.8268C0.00433284 11.9996 -0.193701 9.98891 0.192152 8.0491C0.578004 6.10929 1.53041 4.32746 2.92894 2.92894C4.32746 1.53041 6.10929 0.578004 8.0491 0.192152C9.98891 -0.193701 11.9996 0.00433284 13.8268 0.761209C15.6541 1.51809 17.2159 2.79981 18.3147 4.4443C19.4135 6.08879 20 8.02219 20 10C19.9971 12.6513 18.9426 15.1931 17.0679 17.0679C15.1931 18.9426 12.6513 19.9971 10 20ZM10 1.142C8.24826 1.14181 6.53579 1.66107 5.07915 2.63412C3.62251 3.60718 2.48713 4.99032 1.81659 6.60865C1.14604 8.22698 0.970439 10.0078 1.31199 11.7259C1.65355 13.4441 2.49692 15.0223 3.73545 16.2611C4.97399 17.5 6.55206 18.3437 8.27011 18.6856C9.98816 19.0276 11.769 18.8524 13.3875 18.1822C15.006 17.512 16.3894 16.3769 17.3628 14.9205C18.3362 13.4641 18.8558 11.7518 18.856 10C18.8536 7.65179 17.9199 5.40041 16.2596 3.73979C14.5994 2.07917 12.3482 1.14492 10 1.142Z" fill="#24A391"/>
<path d="M13.827 10.5531H6.17304C6.09824 10.5563 6.02357 10.5443 5.95352 10.5179C5.88348 10.4914 5.81951 10.4511 5.76546 10.3993C5.71141 10.3475 5.66839 10.2853 5.63901 10.2164C5.60963 10.1476 5.59448 10.0735 5.59448 9.9986C5.59448 9.92374 5.60963 9.84964 5.63901 9.78078C5.66839 9.71193 5.71141 9.64972 5.76546 9.59792C5.81951 9.54612 5.88348 9.50578 5.95352 9.47935C6.02357 9.45292 6.09824 9.44093 6.17304 9.4441H13.827C13.97 9.45018 14.1051 9.51125 14.2042 9.61458C14.3032 9.7179 14.3585 9.85549 14.3585 9.9986C14.3585 10.1417 14.3032 10.2793 14.2042 10.3826C14.1051 10.486 13.97 10.547 13.827 10.5531Z" fill="#24A391"/>
<path d="M10.003 14.381C9.85599 14.381 9.71497 14.3227 9.61092 14.2188C9.50686 14.115 9.44827 13.9741 9.44801 13.827V6.17304C9.44483 6.09824 9.45682 6.02357 9.48325 5.95352C9.50969 5.88348 9.55002 5.81951 9.60182 5.76546C9.65363 5.71141 9.71583 5.66839 9.78469 5.63901C9.85355 5.60963 9.92764 5.59448 10.0025 5.59448C10.0774 5.59448 10.1515 5.60963 10.2203 5.63901C10.2892 5.66839 10.3514 5.71141 10.4032 5.76546C10.455 5.81951 10.4953 5.88348 10.5218 5.95352C10.5482 6.02357 10.5602 6.09824 10.557 6.17304V13.827C10.5571 13.8998 10.5429 13.9719 10.5151 14.0392C10.4873 14.1065 10.4465 14.1676 10.395 14.2191C10.3436 14.2705 10.2824 14.3113 10.2152 14.3391C10.1479 14.3669 10.0758 14.3812 10.003 14.381Z" fill="#24A391"/>
</svg>
