<svg width="20" height="20" viewBox="0 0 20 20" fill="none" xmlns="http://www.w3.org/2000/svg">
<path d="M11.3322 19.9958C11.0906 19.981 10.9592 19.8327 10.8595 19.6312C10.1937 18.2906 9.52476 16.9511 8.85632 15.6116C8.4026 14.7026 7.95521 13.7904 7.48831 12.8882C7.41128 12.7389 7.26936 12.5912 7.12058 12.5163C4.87679 11.3846 2.62614 10.2661 0.377597 9.14293C0.0104018 8.95986 -0.107248 8.64964 0.105894 8.38638C0.188196 8.28456 0.322729 8.21228 0.447237 8.15899C3.62907 6.78729 6.81248 5.41928 9.99642 4.05126C13.0754 2.72862 16.1548 1.40757 19.2322 0.0812329C19.4622 -0.017952 19.6701 -0.0543556 19.86 0.136628C20.0479 0.325501 20.0231 0.534951 19.9233 0.76603C17.2237 7.04316 14.5273 13.3219 11.8319 19.6006C11.7348 19.8264 11.5976 19.9884 11.3322 19.9958ZM11.3016 18.3661C13.5618 13.1156 15.8024 7.90998 18.0626 2.65846C17.9935 2.70277 17.9687 2.7128 17.9518 2.73021C14.7768 5.90359 11.6034 9.07856 8.42529 12.2493C8.30869 12.3659 8.33771 12.4482 8.39785 12.5674C8.7297 13.2232 9.05521 13.8822 9.38442 14.5395C10.0144 15.7978 10.6453 17.0561 11.3016 18.3661ZM17.3319 2.03011C17.3187 2.00795 17.305 1.98579 17.2918 1.96416C12.0872 4.20426 6.88265 6.44436 1.64484 8.69923C1.77146 8.76518 1.85535 8.81055 1.94081 8.85329C3.75727 9.76125 5.5753 10.665 7.38648 11.583C7.58327 11.6827 7.68298 11.6516 7.82807 11.5054C10.9007 8.42437 13.9781 5.34858 17.056 2.2728C17.1425 2.18627 17.2395 2.11083 17.3319 2.03011Z" fill="#fff"/>
<path d="M19.5 0.5L0.5 8.5L7.5 12.5L19.5 0.5Z" fill="#fff"/>
</svg>
