<svg xmlns="http://www.w3.org/2000/svg" width="63.054" height="63.052" viewBox="0 0 63.054 63.052"><defs><style>.a{fill:#fff;}</style></defs><path class="a" d="M37.109,31.507l5.572-5.572a1.968,1.968,0,0,0,0-2.786L39.9,20.361a1.97,1.97,0,0,0-2.786,0l-5.574,5.574-5.57-5.57a1.973,1.973,0,0,0-2.79,0l-2.786,2.788a1.969,1.969,0,0,0,0,2.788l5.57,5.57L20.4,37.068a1.968,1.968,0,0,0,0,2.786l2.786,2.788a1.97,1.97,0,0,0,2.786,0l5.56-5.56,5.6,5.6a1.971,1.971,0,0,0,2.79,0L42.711,39.9a1.973,1.973,0,0,0,0-2.79ZM31.527,0A31.526,31.526,0,1,0,63.054,31.529,31.525,31.525,0,0,0,31.527,0Zm0,57.141A25.616,25.616,0,1,1,57.142,31.529,25.615,25.615,0,0,1,31.527,57.145Z" transform="translate(0 -0.004)"/></svg>