<svg xmlns="http://www.w3.org/2000/svg" id="Слой_1" x="0" y="0" version="1.1" viewBox="0 0 64 64" xml:space="preserve"><style>.st2{fill:#37b293}</style><switch><g><g id="Сгруппировать_154"><g id="Сгруппировать_153"><circle id="Эллипс_37" cx="24.61" cy="22.69" r="4.12" class="st2"/><path id="Контур_1766" d="M58.44 37.86a12.7 12.7 0 0 0-7.1-3.38V13.53A8.295 8.295 0 0 0 49 7.8a8.031 8.031 0 0 0-5.72-2.35h-33.2c-2.15.02-4.2.86-5.73 2.36A7.956 7.956 0 0 0 2 13.53V47.7a8.26 8.26 0 0 0 2.35 5.73 8.031 8.031 0 0 0 5.72 2.35h32.11c5.16 4.26 12.79 3.52 17.05-1.64 3.98-4.82 3.63-11.87-.79-16.28zM5.03 13.53c.02-2.77 2.27-5.01 5.04-5.04h33.2c2.77.02 5.01 2.26 5.04 5.04v17.86l-8.47-8.42c-.6-.6-1.57-.6-2.17 0L24.9 35.8l-8.64-8.7c-.6-.6-1.57-.6-2.17 0l-9.05 9.16V13.53zm4.98 39.27v-.06a5.046 5.046 0 0 1-3.55-1.49 5.219 5.219 0 0 1-1.43-3.55v-7.16l10.19-10.19L23.87 39c.61.57 1.56.57 2.18 0l12.77-12.82 8.36 8.42-.52.17c-.25.06-.5.13-.74.23-.23.06-.46.17-.69.23-.16.05-.32.13-.46.23-.2.08-.39.18-.57.29l-.86.52c-.17.11-.29.17-.46.29-.11.06-.17.11-.29.17-.51.34-.97.74-1.37 1.2a12.14 12.14 0 0 0-3.55 8.59c.01.85.11 1.69.29 2.52.06.23.11.4.17.63.17.57.34 1.14.57 1.72v.06c.21.48.46.93.74 1.37l-29.43-.02zm46.2.06a9.043 9.043 0 0 1-12.65.11c-.23-.23-.46-.52-.69-.74-.17-.17-.34-.4-.52-.57-.22-.3-.42-.63-.57-.97-.11-.23-.23-.4-.34-.63-.13-.31-.22-.64-.29-.97-.06-.23-.17-.52-.23-.74-.12-.6-.17-1.22-.17-1.83.01-2.4.95-4.7 2.63-6.41 1.7-1.7 4.01-2.65 6.41-2.63 2.4.01 4.7.95 6.41 2.63a8.867 8.867 0 0 1 2.63 6.41 9.117 9.117 0 0 1-2.62 6.34z" class="st2"/><path id="Контур_1767" d="M54.78 44.9h-3.49v-3.49c0-.85-.69-1.55-1.55-1.55-.85 0-1.55.69-1.55 1.55v3.49H44.7c-.85 0-1.55.69-1.55 1.55 0 .85.69 1.55 1.55 1.55h3.49v3.49c0 .85.69 1.55 1.55 1.55.85 0 1.55-.69 1.55-1.55V48h3.49c.85 0 1.55-.69 1.55-1.55-.01-.86-.7-1.55-1.55-1.55z" class="st2"/></g></g></g></switch></svg>