<svg xmlns="http://www.w3.org/2000/svg" id="Слой_1" x="0" y="0" version="1.1" viewBox="0 0 64 64" xml:space="preserve"><style>.st5{fill:#5d5d5d}</style><switch><g><g id="Сгруппировать_143"><path id="Контур_1697" d="M23.66 36.89c0-.77-.62-1.39-1.39-1.39H17.4c-.77 0-1.39.62-1.39 1.39v4.87c0 .77.62 1.39 1.39 1.39h4.86c.77 0 1.39-.62 1.39-1.39v-4.87h.01z" class="st5"/><path id="Контур_1698" d="M35.82 36.89c0-.77-.62-1.39-1.39-1.39h-4.86c-.77 0-1.39.62-1.39 1.39v4.87c0 .77.62 1.39 1.39 1.39h4.86c.77 0 1.39-.62 1.39-1.39v-4.87z" class="st5"/><path id="Контур_1699" d="M47.97 36.89c0-.77-.62-1.39-1.39-1.39h-4.86c-.77 0-1.39.62-1.39 1.39v4.87c0 .77.62 1.39 1.39 1.39h4.87c.77 0 1.39-.62 1.39-1.39v-4.87z" class="st5"/><path id="Контур_1700" d="M23.66 49.04c0-.77-.62-1.39-1.39-1.39H17.4c-.77 0-1.39.62-1.39 1.39v4.86c0 .77.62 1.39 1.39 1.39h4.86c.77 0 1.39-.62 1.39-1.39v-4.86z" class="st5"/><path id="Контур_1701" d="M35.82 49.04c0-.77-.62-1.39-1.39-1.39h-4.86c-.77 0-1.39.62-1.39 1.39v4.86c0 .77.62 1.39 1.39 1.39h4.86c.77 0 1.39-.62 1.39-1.39v-4.86z" class="st5"/><path id="Контур_1702" d="M47.97 49.04c0-.77-.62-1.39-1.39-1.39h-4.86c-.77 0-1.39.62-1.39 1.39v4.86c0 .77.62 1.39 1.39 1.39h4.86c.77 0 1.39-.62 1.39-1.39v-4.86z" class="st5"/><path id="Контур_1703" d="M56.66 6.42v7.41c0 3.35-2.71 6.06-6.06 6.06h-3.84c-3.36.01-6.1-2.7-6.11-6.06V6.4H23.36v7.45a6.092 6.092 0 0 1-6.11 6.06h-3.84c-3.35 0-6.06-2.71-6.06-6.06V6.44c-2.98.1-5.34 2.53-5.35 5.5v43.5c0 3.05 2.46 5.52 5.5 5.53h49c3.04-.02 5.5-2.49 5.5-5.53V11.92a5.524 5.524 0 0 0-5.34-5.5zm-1.78 46.3a2.38 2.38 0 0 1-2.38 2.38H11.38A2.38 2.38 0 0 1 9 52.72V30.25a2.38 2.38 0 0 1 2.38-2.38H52.5a2.38 2.38 0 0 1 2.38 2.38v22.47z" class="st5"/><path id="Контур_1704" d="M13.4 19.37h3.79c1.15 0 2.08-.93 2.09-2.08V5.11c0-1.15-.93-2.09-2.09-2.09H13.4c-1.15 0-2.09.93-2.09 2.09v12.17c0 1.15.94 2.09 2.09 2.09z" class="st5"/><path id="Контур_1705" d="M46.7 19.37h3.78c1.15 0 2.08-.93 2.09-2.08V5.11c0-1.15-.93-2.09-2.09-2.09h-3.79c-1.15 0-2.09.93-2.09 2.09v12.17c0 1.15.93 2.08 2.08 2.08.01.01.02.01.02.01z" class="st5"/></g></g></switch></svg>