<svg xmlns="http://www.w3.org/2000/svg" id="Слой_1" x="0" y="0" version="1.1" viewBox="0 0 64 64" xml:space="preserve"><style></style><switch><g><g id="Сгруппировать_4447"><path id="Контур_4096" fill="#a2a1a1" d="M14.25 16.27h35.67l3.62 37.97-.99 2.64-2.64 2.3-3.62.99H15.22l-2.3-1.64-1.97-2.3-.66-2.64 3.96-37.32z"/><path id="korzinaa" fill="#fafafa" d="M55.58 53.87L52.2 15.3c-.06-.85-.77-1.51-1.62-1.51h-6.93C43.73 7.37 38.59 2.09 32.16 2c-6.43-.09-11.71 5.06-11.79 11.48v.31h-6.94c-.85 0-1.56.66-1.62 1.51L8.44 53.87c0 .05-.01.1-.01.15.26 4.63 4.21 8.19 8.84 7.97h29.47a8.45 8.45 0 0 0 8.84-7.97c0-.05 0-.1-.01-.15h.01zM32.02 5.46c4.59.04 8.32 3.74 8.39 8.33H23.63a8.46 8.46 0 0 1 8.39-8.33zm14.73 53.22H17.28c-2.79.22-5.26-1.8-5.59-4.59l3.22-36.98h5.45v5.02a1.62 1.62 0 1 0 3.24 0v-5.02h16.78v5.02a1.62 1.62 0 1 0 3.24 0v-5.02h5.45l3.25 36.98a5.205 5.205 0 0 1-5.57 4.59z"/></g></g></switch></svg>