<svg xmlns="http://www.w3.org/2000/svg" id="Слой_1" x="0" y="0" version="1.1" viewBox="0 0 64 64" xml:space="preserve"><style>.st9{fill:#f2f2f2;stroke:#f2f2f2;stroke-width:.75}</style><switch><g><g id="route_1_" transform="translate(56.023 22.177)"><path id="Контур_1896_1_" d="M-7.72 7.54h-32.62c-4.48 0-8.13-4.03-8.13-8.98s3.64-8.97 8.13-8.97h20.38a2.301 2.301 0 0 0 0-4.58h-20.38c-6.76 0-12.27 6.08-12.27 13.55s5.51 13.56 12.27 13.56h32.62c4.48 0 8.13 4.03 8.13 8.98s-3.64 8.97-8.13 8.97h-20.56a2.301 2.301 0 0 0 0 4.58h20.56c6.76 0 12.27-6.08 12.27-13.55S-.95 7.54-7.72 7.54z" class="st9"/><path id="Контур_1897_1_" d="M-44.36 23.25c-3.31.01-5.99 2.69-5.99 5.99 0 5.11 4.79 9.95 4.99 10.16.56.56 1.46.56 2.02 0 .2-.2 4.99-5.05 4.99-10.16a6.011 6.011 0 0 0-6.01-5.99zm0 13c-1.23-1.52-3.15-4.32-3.15-6.99a3.15 3.15 0 1 1 6.3 0c0 2.67-1.92 5.47-3.15 6.99z" class="st9"/><path id="Контур_1898_1_" d="M-3.81-3.6c.38 0 .74-.15 1.01-.42.2-.2 4.99-5.05 4.99-10.16 0-3.31-2.69-6-6-6s-6 2.69-6 6c0 5.11 4.79 9.95 4.99 10.16.27.27.63.42 1.01.42zm0-13.72c1.73 0 3.14 1.4 3.15 3.14 0 2.68-1.92 5.47-3.15 6.99-1.23-1.52-3.15-4.32-3.15-6.99a3.154 3.154 0 0 1 3.15-3.14z" class="st9"/></g></g></switch></svg>