<svg xmlns="http://www.w3.org/2000/svg" id="Слой_1" x="0" y="0" version="1.1" viewBox="0 0 64 32" xml:space="preserve"><style>.st1{fill:#fff;stroke:#fff;stroke-width:.75}</style><switch><g><g id="кнопка" transform="translate(2.189 1)"><g transform="translate(-2.19 -1)"><linearGradient id="Прямоугольник_7-2_2_" x1="3.213" x2="2.838" y1="43.826" y2="43.826" gradientTransform="matrix(142 0 0 -80 -397.78 3522.055)" gradientUnits="userSpaceOnUse"><stop offset="0" stop-color="#ec618f"/><stop offset="1" stop-color="#b5476c"/></linearGradient><path id="Прямоугольник_7-2" fill="url(#Прямоугольник_7-2_2_)" d="M20.25.97H43.5c8.28 0 15 6.72 15 15 0 8.28-6.72 15-15 15H20.25c-8.28 0-15-6.72-15-15 0-8.29 6.71-15 15-15z"/></g><g id="route" transform="translate(56.023 22.177)"><path id="Контур_1896" d="M-21.87-7.97h-9.18c-1.26 0-2.29-1.13-2.29-2.53s1.03-2.53 2.29-2.53h5.74c.36-.04.62-.35.58-.71a.64.64 0 0 0-.58-.58h-5.74c-1.9 0-3.45 1.71-3.45 3.81s1.55 3.82 3.45 3.82h9.18c1.26 0 2.29 1.13 2.29 2.53s-1.03 2.53-2.29 2.53h-5.79c-.36.04-.62.35-.58.71.03.31.27.55.58.58h5.79c1.9 0 3.45-1.71 3.45-3.81s-1.55-3.82-3.45-3.82z" class="st1"/><path id="Контур_1897" d="M-32.19-3.54c-.93 0-1.69.76-1.69 1.69 0 1.44 1.35 2.8 1.41 2.86.16.16.41.16.57 0 .06-.06 1.41-1.42 1.41-2.86-.01-.94-.77-1.69-1.7-1.69zm0 3.65c-.35-.43-.89-1.22-.89-1.97 0-.49.4-.89.89-.89s.89.4.89.89c0 .76-.54 1.55-.89 1.97z" class="st1"/><path id="Контур_1898" d="M-20.77-11.1c.11 0 .21-.04.28-.12.06-.06 1.41-1.42 1.41-2.86 0-.93-.76-1.69-1.69-1.69-.93 0-1.69.76-1.69 1.69 0 1.44 1.35 2.8 1.41 2.86.07.07.17.12.28.12zm0-3.87c.49 0 .88.4.89.88 0 .75-.54 1.54-.89 1.97-.35-.43-.89-1.22-.89-1.97 0-.48.4-.88.89-.88z" class="st1"/></g></g></g></switch></svg>