<svg xmlns="http://www.w3.org/2000/svg" id="Слой_1" x="0" y="0" version="1.1" viewBox="0 0 64 32" xml:space="preserve"><style></style><switch><g><g id="Сгруппировать_3382" transform="translate(-564 -474)"><g id="кнопка_1_" transform="translate(509.62 475)"><g transform="translate(54.38 -1)"><path id="Прямоугольник_7-2_1_" fill="#21a290" d="M20.56 1h22.88c8.28 0 15 6.72 15 15 0 8.28-6.72 15-15 15H20.56c-8.28 0-15-6.72-15-15 0-8.28 6.72-15 15-15z"/></g><g id="Сгруппировать_3381" fill="#fff" transform="translate(104.207 19)"><path id="Вычитание_2" stroke="#fff" stroke-miterlimit="10" stroke-width=".75" d="M-16.66 5.51h-9.46c-1.56 0-2.84-1.15-2.84-2.56v-.03-.02l1.09-12.38c.02-.27.25-.48.52-.48h2.23a3.77 3.77 0 0 1 3.74-3.79c.99 0 1.95.4 2.64 1.11.7.71 1.1 1.68 1.09 2.68h2.23c.27 0 .5.21.52.48l.38 4.34c-.35.14-.69.31-1 .52l-.38-4.28h-1.75v1.61c0 .29-.23.52-.52.52s-.52-.23-.52-.52V-8.9h-5.39v1.61c0 .29-.23.52-.52.52s-.52-.23-.52-.52V-8.9h-1.75L-27.9 2.97c.02.81.82 1.47 1.79 1.47h9.46c.39 0 .77-.11 1.1-.31.32.21.66.39 1.01.53-.57.56-1.33.86-2.12.85zm-4.73-18.14c-1.47.02-2.66 1.2-2.69 2.67h5.38a2.726 2.726 0 0 0-2.69-2.67z"/><path id="Контур_3017" fill-rule="evenodd" d="M-12.73-5.95c1.53 0 3 .6 4.08 1.69l1.75-1.75v4.36h-4.36l1.62-1.62a4.364 4.364 0 0 0-6.18 0 4.364 4.364 0 0 0 0 6.18 4.364 4.364 0 0 0 6.18 0c.82-.82 1.28-1.93 1.28-3.09v-.01h1.4v.01c0 3.19-2.58 5.77-5.77 5.77S-18.5 3-18.5-.19c0-3.18 2.58-5.76 5.77-5.76z" clip-rule="evenodd"/></g></g></g></g></switch></svg>