<svg xmlns="http://www.w3.org/2000/svg" id="Слой_1" x="0" y="0" version="1.1" viewBox="0 0 64 64" xml:space="preserve"><style>.st3{fill:#24a491}</style><switch><g><g id="table" transform="translate(0 9.097)"><g id="Сгруппировать_158"><g id="Сгруппировать_157"><path id="Контур_1791" d="M58.25 13.24c-2.07 0-3.75 1.68-3.75 3.75v16.25h-8.75C43.68 33.24 42 34.92 42 37c0 2.07 1.68 3.75 3.75 3.75H52v10.01h-3.75a1.25 1.25 0 0 0 0 2.5h10.01a1.25 1.25 0 0 0 0-2.5H54.5V40.75h3.75c2.07 0 3.75-1.68 3.75-3.75V16.99a3.764 3.764 0 0 0-3.75-3.75z" class="st3"/><path id="Контур_1792" d="M18.25 33.24H9.5V16.99c0-2.07-1.68-3.75-3.75-3.75S2 14.92 2 16.99V37c0 2.07 1.68 3.75 3.75 3.75H9.5v10.01H5.75a1.25 1.25 0 0 0 0 2.5h10.01a1.25 1.25 0 0 0 0-2.5h-3.75v-10h6.24c2.07 0 3.75-1.68 3.75-3.75s-1.68-3.76-3.75-3.77z" class="st3"/><path id="Контур_1793" d="M35.4 31.81a8.492 8.492 0 0 0 9.44 0c.99-.72 2.19-1.1 3.41-1.06.69 0 1.25-.56 1.25-1.25v-3.75c0-2.76-2.24-5-5-5h-25c-2.76 0-5 2.24-5 5v3.75c0 .69.56 1.25 1.25 1.25 1.22-.03 2.42.34 3.41 1.06a8.476 8.476 0 0 0 9.43 0c.65-.45 1.39-.78 2.17-.95v19.88h-5a1.25 1.25 0 0 0 0 2.5h12.51a1.25 1.25 0 0 0 0-2.5h-5V30.87c.76.18 1.48.5 2.13.94z" class="st3"/></g></g></g><path id="Контур_4094" fill="#24a491" fill-rule="evenodd" d="M28.42 20.06a8.14 8.14 0 0 1-5.58-2.09c-.12-.11-.17-.13-.29-.23a8.825 8.825 0 0 1-2.21-3.78 8.325 8.325 0 0 1 1.22-6.9c.13-.2.28-.38.44-.56.19-.19.28-.33.47-.53.19-.19.32-.27.5-.45.94-.8 2.05-1.38 3.24-1.69 1.89-.5 3.89-.31 5.65.54 1.08.52 2.04 1.26 2.81 2.18a8.277 8.277 0 0 1 1.44 7.92c-.08.26-.18.51-.3.75a7.71 7.71 0 0 1-1.43 2.14l-.5.5c-.62.6-1.34 1.09-2.13 1.44-1.04.48-2.18.73-3.33.76zm-1.16-9.3h-4.15v2.1h4.15v4.15h2.1v-4.14h4.15v-2.1h-4.15V6.62h-2.1v4.14zm.48 11.19a9.48 9.48 0 0 0 4.34-.7c.45-.17.89-.39 1.3-.64.42-.23.82-.5 1.18-.81l.91.88c-.11.27-.19.56-.21.86-.02.91.68 1.51 1.21 2.03.88.88 3.61 3.69 4.32 4.28.47.35 1.08.47 1.65.31a4.54 4.54 0 0 0 1.79-1.46c.6-.66.65-1.65.13-2.37-.43-.54-3.71-3.77-4.28-4.33-.77-.77-1.29-1.41-2.46-1.17-.23.05-.27.1-.44.14l-.91-.88c.6-.75 1.09-1.57 1.45-2.46.57-1.39.82-2.88.71-4.38a8.01 8.01 0 0 0-.23-1.62 9.81 9.81 0 0 0-1.77-3.85c-.38-.53-.83-1.03-1.32-1.46L33.2 2.91c-.1-.06-.21-.11-.32-.15a10.03 10.03 0 0 0-8.35-.39 10.278 10.278 0 0 0-6.11 7.02 9.823 9.823 0 0 0-.13 4.18l.39 1.5c.21.67.51 1.31.88 1.91.13.21.23.39.36.58.13.19.26.35.4.54.56.68 1.19 1.29 1.9 1.82.93.71 1.97 1.24 3.09 1.59.25.08.48.13.75.2.54.14 1.11.22 1.68.24z" clip-rule="evenodd"/></g></switch></svg>