<svg xmlns="http://www.w3.org/2000/svg" id="Слой_1" x="0" y="0" version="1.1" viewBox="0 0 64 64" xml:space="preserve"><style></style><switch><g><path id="Контур_93" fill="#c4c4c4" d="M58.62 11.85a4.135 4.135 0 0 0-3.01-1.27h-4.29V7.37a5.18 5.18 0 0 0-1.57-3.79c-1-1.03-2.37-1.6-3.8-1.58h-2.17a5.18 5.18 0 0 0-3.79 1.57 5.157 5.157 0 0 0-1.57 3.79v3.21H25.61v-3.2a5.18 5.18 0 0 0-1.57-3.79 5.157 5.157 0 0 0-3.79-1.57h-2.17a5.18 5.18 0 0 0-3.79 1.57 5.157 5.157 0 0 0-1.57 3.79v3.21H8.43c-1.14-.01-2.23.45-3.01 1.27-.82.79-1.28 1.88-1.27 3.01V57.7a4.341 4.341 0 0 0 4.29 4.29h47.14a4.341 4.341 0 0 0 4.29-4.29V14.86c0-1.13-.44-2.22-1.25-3.01zM18.11 57.71H8.47v-9.64h9.64v9.64zm0-11.78H8.47V35.22h9.64v10.71zm0-12.85H8.47v-9.64h9.64v9.64zm-.75-15.32c-.21-.2-.32-.47-.32-.75V7.37c0-.6.49-1.08 1.08-1.08h2.17c.6 0 1.08.49 1.08 1.08v9.64c0 .6-.49 1.08-1.08 1.08h-2.17a.973.973 0 0 1-.76-.33zm13.6 39.95H20.25v-9.64h10.71v9.64zm0-11.78H20.25V35.22h10.71v10.71zm0-12.85H20.25v-9.64h10.71v9.64zm12.86 24.63H33.11v-9.64h10.71v9.64zm0-11.78H33.11V35.22h10.71v10.71zm0-12.85H33.11v-9.64h10.71v9.64zm-.76-15.32c-.21-.2-.32-.47-.32-.75V7.37c0-.6.49-1.08 1.08-1.08H46c.6 0 1.08.49 1.08 1.08v9.64c0 .6-.49 1.08-1.08 1.08h-2.17c-.29 0-.56-.12-.77-.33zM55.6 57.71h-9.63v-9.64h9.64l-.01 9.64zm0-11.78h-9.63V35.22h9.64l-.01 10.71zm0-12.85h-9.63v-9.64h9.64l-.01 9.64z"/></g></switch></svg>