<svg xmlns="http://www.w3.org/2000/svg" id="Слой_1" x="0" y="0" version="1.1" viewBox="0 0 64 64" xml:space="preserve"><style></style><switch><g><g id="Сгруппировать_4167" transform="translate(-426.542 -16)"><g id="icon" transform="translate(426.542 16)"><path id="Контур_1503" fill="#c4c4c4" d="M53.75 25.26l-1.51-3.59c1.26-2.68 2.33-5.43 3.21-8.26l-4.67-4.56c-2.83.92-5.6 2.03-8.28 3.33l-3.67-1.48a63.388 63.388 0 0 0-3.69-8.09h-6.58c-1.34 2.61-2.5 5.3-3.46 8.08l-3.66 1.49a68.262 68.262 0 0 0-8.43-3.14L8.36 13.6c.93 2.78 2.07 5.49 3.39 8.11l-1.52 3.59A68.351 68.351 0 0 0 2 28.9v6.45a64.45 64.45 0 0 0 8.25 3.4l1.52 3.59a65.562 65.562 0 0 0-3.22 8.25l4.67 4.58c2.83-.92 5.59-2.04 8.27-3.33l3.67 1.49a63 63 0 0 0 3.69 8.06h6.59c1.34-2.61 2.5-5.31 3.46-8.08l3.67-1.49c2.73 1.23 5.55 2.28 8.42 3.15l4.67-4.56c-.93-2.78-2.07-5.49-3.39-8.11l1.51-3.59c2.82-1.02 5.57-2.23 8.23-3.61v-6.46a63.634 63.634 0 0 0-8.26-3.38zm-12.13 6.73c.12 5.31-4.09 9.72-9.4 9.84s-9.72-4.09-9.84-9.4c-.12-5.31 4.09-9.72 9.4-9.84h.21c5.25-.06 9.56 4.15 9.63 9.4z"/></g></g></g></switch></svg>