<svg xmlns="http://www.w3.org/2000/svg" id="Слой_1" x="0" y="0" version="1.1" viewBox="0 0 64 64" xml:space="preserve"><style></style><switch><g><g><path id="Контур_2922-2" fill="#c4c4c4" fill-rule="evenodd" d="M26.2 43.49c-4.64.08-9.14-1.6-12.6-4.71-.27-.25-.38-.28-.65-.53a19.92 19.92 0 0 1-4.98-8.53 18.788 18.788 0 0 1 2.75-15.57c.3-.44.62-.87.98-1.27.42-.43.64-.76 1.07-1.19.43-.43.72-.6 1.13-1.01 2.12-1.8 4.63-3.11 7.32-3.82 4.26-1.13 8.79-.7 12.76 1.22 2.44 1.17 4.6 2.85 6.34 4.92a18.7 18.7 0 0 1 3.26 17.88c-.19.58-.41 1.15-.67 1.7-.79 1.78-1.89 3.41-3.23 4.83l-1.12 1.13c-1.4 1.36-3.02 2.46-4.81 3.25a19.25 19.25 0 0 1-7.55 1.7zm-2.61-20.98h-9.36v4.73h9.36v9.36h4.73v-9.36h9.38v-4.73h-9.36v-9.36H23.6v9.36h-.01zm1.07 25.25c3.34.24 6.7-.3 9.79-1.58 1.02-.39 2-.88 2.94-1.45.95-.52 1.84-1.14 2.68-1.83l2.04 1.99a6.83 6.83 0 0 0-.49 1.94c-.06 2.04 1.56 3.41 2.74 4.58 1.98 1.98 8.15 8.32 9.78 9.66 1.07.79 2.44 1.05 3.73.7 1.61-.73 3.01-1.87 4.05-3.3a4.238 4.238 0 0 0 .29-5.34c-.96-1.22-8.38-8.51-9.66-9.78-1.73-1.73-2.91-3.19-5.55-2.65-.5.1-.6.22-1 .31l-2.04-1.99c1.36-1.68 2.46-3.55 3.28-5.55 1.29-3.13 1.85-6.51 1.61-9.89-.04-1.23-.21-2.45-.49-3.65-.68-3.15-2.04-6.12-3.99-8.69-.87-1.21-1.87-2.32-2.98-3.3L37.04 4.8c-.23-.13-.48-.24-.72-.34a22.613 22.613 0 0 0-18.86-.88A22.874 22.874 0 0 0 6.1 13.43a22.415 22.415 0 0 0-2.42 5.99c-.77 3.09-.88 6.3-.31 9.43l.88 3.39a19.95 19.95 0 0 0 1.98 4.3c.29.48.49.88.82 1.32s.6.79.92 1.22c1.25 1.55 2.69 2.94 4.28 4.13 2.1 1.59 4.46 2.8 6.97 3.58.56.18 1.08.29 1.69.44 1.23.31 2.49.48 3.75.53z" clip-rule="evenodd"/></g></g></switch></svg>