<svg xmlns="http://www.w3.org/2000/svg" id="Слой_1" x="0" y="0" version="1.1" viewBox="0 0 64 64" xml:space="preserve"><style>.st3{fill:#28a492}</style><switch><g><g id="ик" transform="translate(0 .348)"><g id="Эллипс_17" transform="translate(0 -.348)"><circle cx="32" cy="32" r="30" fill="none"/><path fill="#22a391" d="M32 4.31c-7.4 0-14.35 2.88-19.58 8.11S4.31 24.6 4.31 32s2.88 14.35 8.11 19.58S24.6 59.69 32 59.69s14.35-2.88 19.58-8.11S59.69 39.4 59.69 32s-2.88-14.35-8.11-19.58S39.4 4.31 32 4.31M32 2c16.57 0 30 13.43 30 30S48.57 62 32 62 2 48.57 2 32 15.43 2 32 2z"/></g><g id="megaphone_2_" transform="translate(-22.135 6.652)"><g id="Сгруппировать_101" transform="translate(34.876 .104)"><g id="Сгруппировать_100"><path id="Контур_1560" d="M32.18 21.11L19.46 8.39a1.916 1.916 0 1 0-2.7 2.7L29.48 23.8c.75.75 1.96.75 2.7 0 .75-.75.75-1.96 0-2.7v.01z" class="st3"/></g></g><g id="Сгруппировать_103" transform="translate(32.871 2.112)"><g id="Сгруппировать_102"><path id="Контур_1561" d="M17.82 10.83l-.09.48c-.71 3.39-2.27 6.55-4.53 9.17l6.92 6.92c2.61-2.27 5.75-3.85 9.13-4.57l.48-.09-11.91-11.91z" class="st3"/></g></g><g id="Сгруппировать_105" transform="translate(30.136 6.548)"><g id="Сгруппировать_104"><path id="Контур_1562" d="M14.66 17.5l-4.73 4.73a2.86 2.86 0 0 0 0 4.05l2.7 2.7a2.86 2.86 0 0 0 4.05 0l4.73-4.73-6.75-6.75zm.67 7.43a.96.96 0 0 1-1.35-.04.948.948 0 0 1 0-1.31l1.35-1.35a.96.96 0 0 1 1.35-.04c.38.36.4.97.04 1.35l-.04.04-1.35 1.35z" class="st3"/></g></g><g id="Сгруппировать_107" transform="translate(34.255 8.818)"><g id="Сгруппировать_106"><path id="Контур_1563" d="M21.28 27.21l1.3-1.3a2.86 2.86 0 0 0 0-4.05l-.96-.96c-.53.36-1.05.75-1.54 1.16l1.15 1.15c.37.37.37.97 0 1.35l-1.32 1.32L17.97 24l-2.7 2.7 4.33 4.2c.78.71 1.99.65 2.7-.13.66-.73.66-1.83 0-2.56l-1.02-1z" class="st3"/></g></g><g id="Сгруппировать_109" transform="translate(37.824)"><g id="Сгруппировать_108"><path id="Контур_1564" d="M21.58 7.68a.95.95 0 0 0-.95.95v1.91c0 .53.43.95.95.95.53 0 .96-.43.96-.95V8.63a.965.965 0 0 0-.96-.95z" class="st3"/></g></g><g id="Сгруппировать_111" transform="translate(40.117 3.058)"><g id="Сгруппировать_110"><path id="Контур_1565" d="M26.93 12.26h-1.91c-.53 0-.95.43-.95.96s.43.95.95.95h1.91a.956.956 0 0 0 0-1.91z" class="st3"/></g></g><g id="Сгруппировать_113" transform="translate(39.353 .764)"><g id="Сгруппировать_112"><path id="Контур_1566" d="M26.46 9.1a.96.96 0 0 0-1.35 0l-1.91 1.91a.96.96 0 0 0-.04 1.35c.36.38.97.4 1.35.04l.04-.04 1.91-1.91a.96.96 0 0 0 0-1.35z" class="st3"/></g></g></g></g></g></switch></svg>