<svg xmlns="http://www.w3.org/2000/svg" id="Слой_1" x="0" y="0" version="1.1" viewBox="0 0 64 64" xml:space="preserve"><style></style><switch><g><path id="Контур_2933" fill="#c4c4c4" fill-rule="evenodd" d="M28.71 8.82c-6.28.86-12.1 3.81-16.51 8.38a23.446 23.446 0 0 0-5.16 8.36 18.822 18.822 0 0 0-.92 9.02c.6 3.87 2.49 7.41 5.36 10.07l1.05.99-3.66 7.43c5.09-.42 9.78-.97 14.09-1.66-1.78-2.15-2.9-4.77-3.21-7.55-1.23-9.47 6.85-18.95 20.32-18.72 5.96 0 11.68 2.37 15.9 6.58.26-1.27.39-2.57.38-3.87 0-.86-.07-1.71-.2-2.56-.75-4.69-3.26-8.92-7.02-11.82-4.47-3.4-9.96-5.17-15.56-5.03-1.63 0-3.25.13-4.86.38zm30.22 26.84a14.8 14.8 0 0 1-1.25 17.03L62 59.14c-16.38 1.06-28.2-.18-35.14-4.44-6.99 1.25-14.05 2.1-21.14 2.54l-3.4.23 5.43-11.02a20.95 20.95 0 0 1-5.52-11.3c-.52-3.67-.14-7.41 1.11-10.9 1.3-3.65 3.35-6.98 6.03-9.78a32.29 32.29 0 0 1 18.77-9.56c1.8-.27 3.62-.41 5.43-.42 6.49-.15 12.83 1.92 17.99 5.87 4.54 3.51 7.57 8.63 8.48 14.3.15 1.04.23 2.09.23 3.15a22.5 22.5 0 0 1-1.34 7.85zm-11.01 3.68c1.4 0 2.53 1.14 2.53 2.54 0 1.4-1.13 2.54-2.53 2.54s-2.53-1.14-2.53-2.54 1.13-2.54 2.53-2.54zm-15.58 0c1.4 0 2.53 1.14 2.53 2.54 0 1.4-1.13 2.54-2.53 2.54s-2.53-1.14-2.53-2.54c0-1.4 1.13-2.54 2.53-2.54 0 0 .01 0 0 0zm7.79 0c1.4 0 2.53 1.14 2.53 2.54 0 1.4-1.13 2.54-2.53 2.54s-2.53-1.14-2.53-2.54 1.13-2.54 2.53-2.54z" clip-rule="evenodd"/></g></switch></svg>