<svg xmlns="http://www.w3.org/2000/svg" xmlns:xlink="http://www.w3.org/1999/xlink" width="44.73" height="41.971" viewBox="0 0 44.73 41.971"><defs><style>.a{fill:none;}.b{clip-path:url(#a);}.c{fill:url(#b);}.d{clip-path:url(#c);}</style><clipPath id="a"><path class="a" d="M153.206,30.22s-4.31,4.795-6.644,5.745c-2.765,1.162-1.086-3.332.371-8.326.529-1.673,1.1-3.394,1.648-4.906.322.066.681.11.974.167.322.064.653.1.946.158.265.048.538.067.775.107l.624.092a4.074,4.074,0,0,0,.519.03l.2-.9-.513-.149-.6-.177c-.228-.069-.493-.116-.778-.2s-.569-.17-.894-.234c-.256-.076-.55-.133-.806-.209.337-.924.657-1.788.894-2.464,1.772-4.591-3.4-4.951-3.4-4.951a39.321,39.321,0,0,1-2.077,6.453.223.223,0,0,0-.122,0c-.35-.073-.7-.149-1.031-.183-.322-.066-.653-.1-.918-.149-.6-.085-1.068-.162-1.4-.2a3.117,3.117,0,0,1-.387-.054.523.523,0,0,1-.149-.013l-.18.892.113.034.4.119,1.341.4a9.36,9.36,0,0,1,.919.243c.3.057.606.149.957.223-.438,1.207-.894,2.475-1.322,3.746h0a32.27,32.27,0,0,1-4.538,6.814c-1.919,2.1-2.135-.611-1.74-5.513.425-4.9-4.638-3.811-4.638-3.811a6.993,6.993,0,0,1,.045,1.992,6.948,6.948,0,0,0-4.793.825,4.884,4.884,0,0,0-2.12,2.8c-1.691,5.066-5.2,8.694-6.532,5.927A46.676,46.676,0,0,1,116,26.072c.933-.215,5.477-1.9,5.477-1.9l-.516-1.389s-3.926,1.158-4.513,1.3a2.887,2.887,0,0,1-.852.149c-.447-2.187-.845-4.3-1.12-5.945.992-.2,2.275-.347,3.737-.514,3.644-.4,1.52-5.128,1.52-5.128-1.168.7-11.795.25-10.7,5.157,1.14,5.662,2.511,17.164,5.465,19.773,2.929,2.78,7.947.37,10.6-6.609A2.327,2.327,0,0,0,126.747,32a4.922,4.922,0,0,0,4.412-1.6c-.2,2.852.077,5.382,2.426,5.4,3.241.025,5.881-2.885,7.643-5.614-1.065,3.948-1.414,7.2.243,7.766,5.456,2.086,12.218-7.091,12.218-7.091ZM131.415,28.2c-1.319,1.417-3.588,2.682-3.482.508.075-2.05,2.812-2.208,3.7-2.2C131.542,27.046,131.479,27.611,131.415,28.2Z" transform="translate(-108.958 -12.65)"/></clipPath><linearGradient id="b" y1="0.5" x2="1" y2="0.5" gradientUnits="objectBoundingBox"><stop offset="0" stop-color="#fec539"/><stop offset="1" stop-color="#ec608f"/></linearGradient><clipPath id="c"><path class="a" d="M186.629,208.957c-.867,2.095-8.236,11.191-7.883,4.333,1.019-.033,2.819-.311,3.583-1.748,1.123-2.086.022-3.406-1.131-3.706a5.63,5.63,0,0,0-6.267,3.633c-.769.828-1.7,1.788-2.661,2.71-2.384,2.283-1.788-.347-1.775-5.035,0-4.516-4.4-3.329-4.707-3.25l-.139.039a3.278,3.278,0,0,0-.946.641,4.245,4.245,0,0,0-.815,1.226,7.807,7.807,0,0,0-.532,1.6c-.088.347-.149.721-.226,1.125v-.085c-.024-.311-.077-.648-.131-.985s-.109-.673-.192-1.043a4.6,4.6,0,0,0-.149-.527c-.07-.165-.139-.331-.238-.521l-.194-.3a1.621,1.621,0,0,0-.334-.288,1.08,1.08,0,0,0-.465-.136h-.085l-.058-.024h-.057a.1.1,0,0,1-.082.034.669.669,0,0,0-.25.076,1.372,1.372,0,0,0-.347.282,1.715,1.715,0,0,0-.209.243,3.428,3.428,0,0,0-.274.5,8.547,8.547,0,0,0-.355.936c-.067.232-.109.435-.179.638a6.008,6.008,0,0,0,0-.745c-.048-5.109-4.392-3.585-4.392-3.585.863,2.746-1.7,12.428,2.42,12a2.518,2.518,0,0,0,2.341-2.451c.018-.149.052-.431.08-.8.1-.575.206-1.408.361-2.357q.115-.733.307-1.557l.194-.811c.094-.262.185-.554.282-.788.048-.118.124-.237.171-.353l.079-.091a.386.386,0,0,1,.094.106,4.336,4.336,0,0,1,.314.772c.08.307.133.615.212.921l.159.982c.082.335.137.672.219,1.006a4.541,4.541,0,0,0,.149.527.4.4,0,0,0,.07.165,1.251,1.251,0,0,0,.158.215.623.623,0,0,0,.149.1.572.572,0,0,0,.317.061h.057c.057,0,.082-.034.11-.037l.137-.067.131-.149.1-.207a.4.4,0,0,1,.043-.173c.022-.086.015-.171.037-.258l.048-.487c.066-.63.136-1.2.207-1.748a8.941,8.941,0,0,1,.4-1.508,4.244,4.244,0,0,1,.627-1.1,2.086,2.086,0,0,1,.745-.569.028.028,0,0,1,.025-.03c3.309-.934-1.566,11.878,2.67,11.556,2.308-.176,4.391-2.037,5.96-3.98-.265,7.559,8.6,4.358,12.711-4.544Zm-5.845.465c1.1-.037.954,1.219.779,1.627a2.644,2.644,0,0,1-2.746,1.527c.347-3.171,1.623-3.162,1.965-3.154ZM161.33,207.77v.033C161.33,207.77,161.3,207.773,161.33,207.77Z" transform="translate(-155.13 -204.791)"/></clipPath></defs><g class="b" transform="translate(0 0)"><rect class="c" width="45.621" height="42.219" transform="translate(-0.441 -0.097)"/></g><g class="d" transform="translate(6.879 28.628)"><rect class="c" width="45.621" height="42.219" transform="translate(-7.32 -28.725)"/></g></svg>