<svg xmlns="http://www.w3.org/2000/svg" width="59.983" height="39.299" viewBox="0 0 59.983 39.299"><defs><style>.a{fill:#d1d1d1;}.b{fill:#e5e5e5;}.c{fill:#fff;}.d{fill:#c9c9c9;}.e{fill:#dedede;}</style></defs><path class="a" d="M8.68,277.681H68.663a6.2,6.2,0,0,1-6.207,6.205H14.885A6.2,6.2,0,0,1,8.68,277.68Z" transform="translate(-8.68 -244.588)"/><path class="b" d="M95.1,78.94H43.39V77.9A25.855,25.855,0,0,1,69.245,52.05h0A25.855,25.855,0,0,1,95.1,77.9Z" transform="translate(-39.253 -45.847)"/><path class="c" d="M102.666,146.113l-1.726-1.138a22.931,22.931,0,0,1,1.99-2.585l1.549,1.373A20.964,20.964,0,0,0,102.666,146.113Z" transform="translate(-89.945 -125.421)"/><path class="c" d="M131.146,85.779l-1.416-1.506A22.656,22.656,0,0,1,145.3,78.1v2.069a20.6,20.6,0,0,0-14.15,5.611Z" transform="translate(-115.304 -68.792)"/><path class="a" d="M231.834,0h-6.2V2.069H227.7V6.205h2.069V2.069h2.068Z" transform="translate(-198.741)"/><path class="d" d="M251.694,277.681a67.7,67.7,0,0,1-18.254,6.205h26.992a6.2,6.2,0,0,0,6.205-6.207Z" transform="translate(-206.654 -244.588)"/><path class="e" d="M197.61,130.094A25.778,25.778,0,0,0,189.5,111.3c-7.254,10.354-20.386,16.538-29.729,19.829h37.84Z" transform="translate(-141.764 -98.036)"/></svg>