<svg width="321" height="152" viewBox="0 0 321 152" fill="none" xmlns="http://www.w3.org/2000/svg">
<path d="M10.2 123.42V125.62H17.57V129.4H10.3V150.97H5.71004V129.4H1.41003V125.62H5.71004V123.37C5.71004 118.44 8.68003 115.19 14.08 115.19C16.04 115.19 17.96 115.67 19.25 116.67L17.86 120.16C16.9 119.44 15.66 118.96 14.32 118.96C11.59 118.97 10.2 120.5 10.2 123.42Z" fill="#757575"/>
<path d="M19.1901 138.3C19.1901 130.74 24.7901 125.39 32.3901 125.39C40.0001 125.39 45.5401 130.75 45.5401 138.3C45.5401 145.86 39.9901 151.26 32.3901 151.26C24.7901 151.26 19.1901 145.86 19.1901 138.3ZM40.9101 138.3C40.9101 132.9 37.2701 129.4 32.4001 129.4C27.5201 129.4 23.8401 132.89 23.8401 138.3C23.8401 143.7 27.5201 147.25 32.4001 147.25C37.2701 147.24 40.9101 143.7 40.9101 138.3Z" fill="#757575"/>
<path d="M49.5701 138.3C49.5701 130.74 55.1701 125.39 62.7701 125.39C70.3801 125.39 75.9201 130.75 75.9201 138.3C75.9201 145.86 70.3701 151.26 62.7701 151.26C55.1601 151.26 49.5701 145.86 49.5701 138.3ZM71.2801 138.3C71.2801 132.9 67.6401 129.4 62.7701 129.4C57.8901 129.4 54.2101 132.89 54.2101 138.3C54.2101 143.7 57.8901 147.25 62.7701 147.25C67.6501 147.24 71.2801 143.7 71.2801 138.3Z" fill="#757575"/>
<path d="M106.2 115.48V150.97H101.8V146.95C99.74 149.82 96.4901 151.25 92.7601 151.25C85.3401 151.25 79.9401 146.04 79.9401 138.29C79.9401 130.54 85.3401 125.38 92.7601 125.38C96.3501 125.38 99.5 126.72 101.61 129.45V115.48H106.2ZM101.66 138.3C101.66 132.9 97.9801 129.4 93.1401 129.4C88.2601 129.4 84.5801 132.89 84.5801 138.3C84.5801 143.7 88.2601 147.25 93.1401 147.25C97.9701 147.24 101.66 143.7 101.66 138.3Z" fill="#757575"/>
<path d="M126.96 117.78C126.96 116.11 128.3 114.77 130.07 114.77C131.84 114.77 133.18 116.06 133.18 117.69C133.18 119.41 131.89 120.75 130.07 120.75C128.3 120.74 126.96 119.45 126.96 117.78ZM127.77 125.62H132.36V150.97H127.77V125.62Z" fill="#757575"/>
<path d="M165.18 136.39V150.98H160.59V136.92C160.59 131.95 158.1 129.51 153.75 129.51C148.87 129.51 145.71 132.43 145.71 137.93V150.99H141.12V125.64H145.52V129.47C147.39 126.89 150.64 125.4 154.66 125.4C160.82 125.38 165.18 128.92 165.18 136.39Z" fill="#757575"/>
<path d="M200.81 149.49C199.42 150.69 197.32 151.26 195.26 151.26C190.14 151.26 187.22 148.44 187.22 143.32V129.4H182.92V125.62H187.22V120.07H191.81V125.62H199.08V129.4H191.81V143.13C191.81 145.86 193.24 147.39 195.78 147.39C197.12 147.39 198.41 146.96 199.37 146.19L200.81 149.49Z" fill="#757575"/>
<path d="M203.16 138.3C203.16 130.74 208.76 125.39 216.36 125.39C223.97 125.39 229.51 130.75 229.51 138.3C229.51 145.86 223.96 151.26 216.36 151.26C208.75 151.26 203.16 145.86 203.16 138.3ZM224.87 138.3C224.87 132.9 221.23 129.4 216.35 129.4C211.47 129.4 207.79 132.89 207.79 138.3C207.79 143.7 211.47 147.25 216.35 147.25C221.24 147.24 224.87 143.7 224.87 138.3Z" fill="#757575"/>
<path d="M259.5 125.62V150.97H255.15V147.14C253.28 149.77 250.13 151.25 246.54 151.25C239.99 151.25 235.63 147.66 235.63 140.2V125.61H240.22V139.67C240.22 144.65 242.71 147.13 247.06 147.13C251.84 147.13 254.9 144.16 254.9 138.71V125.6H259.5V125.62Z" fill="#757575"/>
<path d="M265.91 138.3C265.91 130.74 271.51 125.39 279.3 125.39C283.84 125.39 287.62 127.26 289.63 130.79L286.14 133.04C284.51 130.55 282.03 129.4 279.25 129.4C274.28 129.4 270.54 132.89 270.54 138.3C270.54 143.8 274.27 147.25 279.25 147.25C282.02 147.25 284.51 146.1 286.14 143.61L289.63 145.81C287.62 149.35 283.84 151.26 279.3 151.26C271.51 151.26 265.91 145.86 265.91 138.3Z" fill="#757575"/>
<path d="M319.3 136.39V150.98H314.71V136.92C314.71 131.95 312.22 129.51 307.87 129.51C302.99 129.51 299.83 132.43 299.83 137.93V150.99H295.24V115.5H299.83V129.23C301.74 126.79 304.9 125.4 308.78 125.4C314.94 125.38 319.3 128.92 319.3 136.39Z" fill="#757575"/>
<path fill-rule="evenodd" clip-rule="evenodd" d="M314.6 75.59C312.15 77.79 308.55 78.9 303.78 78.91L304.49 78.95C306.23 79.1 308.11 78.98 310.15 78.61C312.61 78.21 314.34 77.53 315.34 76.58C315.5 76.48 315.64 76.44 315.74 76.44C316.43 76.48 316.96 77.48 317.33 79.46C317.62 80.96 317.74 82.21 317.69 83.21C317.48 87.22 315.1 89.11 310.56 88.87C308.61 88.77 305.72 88.24 301.91 87.3C298.1 86.36 295.21 85.83 293.26 85.73C290.83 85.6 289.57 86.49 289.47 88.39C289.32 91.19 291.74 93.46 296.73 95.21C300.26 96.51 303.9 97.26 307.65 97.46C312.51 97.72 315.74 97.54 317.36 96.94C317.39 97.42 317.39 97.82 317.38 98.13C317.19 101.67 314.82 104.03 310.26 105.22C306.39 106.29 299.6 106.61 289.88 106.21L289.4 106.18C286.02 106 283.78 105.91 282.67 105.9C280.13 105.87 277.9 105.97 275.99 106.18C274.76 106.33 273.77 106.62 273.01 107.05C272.9 107.1 272.46 107.42 271.69 108.01C270.92 108.6 270.43 108.9 270.21 108.88C269.05 108.82 268.25 106.95 267.81 103.27C267.52 100.71 267.44 98.25 267.57 95.87C267.68 93.76 268.56 92.75 270.19 92.83C270.82 92.86 273.53 93.22 278.31 93.9C284.4 94.75 289.21 95.4 292.74 95.85C286.33 92.92 282.87 89.72 282.37 86.25C282.17 85.08 282.09 83.99 282.15 82.98C282.28 80.5 283.14 78.6 284.71 77.28C286.29 75.96 288.32 75.37 290.8 75.5C291.59 75.54 293.48 75.88 296.46 76.51C298.81 77.06 300.99 77.39 303 77.49C307.47 77.75 311.34 77.11 314.6 75.59ZM316.74 37.83C316.78 36.99 316.94 36.57 317.2 36.58C317.83 36.61 318.48 37.39 319.14 38.91C319.67 40.05 320.03 41.06 320.22 41.94C320.41 42.82 320.48 43.69 320.44 44.53C320.39 45.48 320.2 46.13 319.86 46.48C318.45 48.05 314.45 49.11 307.86 49.66C316.14 52.16 320.19 55.21 320 58.8C319.85 61.65 318.22 63.95 315.11 65.69C312.71 67.04 309.83 67.9 306.48 68.25C306.59 68.26 307.19 68.31 308.3 68.43C310.72 68.66 312.93 68.26 314.91 67.23C316.9 66.2 318.17 64.82 318.74 63.11C318.7 65.81 317.52 67.7 315.18 68.8C313.33 69.71 309.74 70.02 304.41 69.74C303.2 69.68 301.38 69.5 298.96 69.21C296.54 68.92 294.75 68.75 293.59 68.69C290.63 68.53 288.47 68.95 287.09 69.93C286.82 70.13 286.57 70.22 286.36 70.21C285.25 70.15 284.31 68.88 283.54 66.41C282.85 64.36 282.55 62.68 282.62 61.36C282.79 58.14 285.25 56.66 290 56.91C291.53 56.99 293.82 57.28 296.86 57.79C299.9 58.3 302.19 58.59 303.72 58.67C308.31 58.91 310.67 57.9 310.79 55.63C310.86 54.31 308.97 53.2 305.13 52.31C302.99 51.83 299.36 51.29 294.28 50.7C290.31 50.28 288.25 49.9 288.11 49.58C286.41 49.44 285.26 49.16 284.65 48.76C283.77 48.18 283.37 47.1 283.46 45.52C283.52 44.31 284.14 42.09 285.32 38.87C285.58 38.25 288.31 38.08 293.56 38.35C294.74 38.41 296.48 38.53 298.81 38.71C301.15 38.83 302.89 38.93 304.06 38.99C312.45 39.43 316.68 39.04 316.74 37.83ZM293.19 19.51C288.03 17.07 285.57 13.47 285.82 8.72C286.14 2.76 291.04 0.019993 300.55 0.529993C303.61 0.689993 306.81 1.27999 310.14 2.30999C314.15 3.57999 316.98 5.13 318.63 6.97C320.43 8.92 321.21 12.29 320.95 17.1C320.82 19.48 320.55 20.65 320.13 20.63C320.08 20.52 319.97 20.15 319.79 19.5C319.53 18.32 319.11 17.27 318.53 16.34C317.22 14.15 315.1 12.64 312.18 11.8C316.09 13.91 317.96 16.63 317.78 19.96C317.76 20.28 317.71 20.62 317.61 20.98C317.51 21.35 317.44 21.53 317.38 21.52C317.33 21.52 317.3 21.46 317.31 21.36C317.23 20.83 317.04 20.02 316.72 18.95C315.77 16.89 313.77 15.17 310.72 13.79C308.19 12.65 305.57 12.01 302.88 11.87C301.09 11.77 299.43 11.98 297.92 12.48C295.87 13.17 294.81 14.3 294.72 15.88C294.66 16.94 295.46 17.96 297.1 18.94C298.33 19.64 299.63 20.13 300.99 20.42C301.04 20.42 302.96 20.63 306.75 21.04C311.91 21.63 315.46 21.98 317.41 22.08C318.89 22.16 319.8 22.13 320.15 21.99C320.5 21.85 320.68 21.78 320.68 21.78C320.89 21.79 320.98 22.03 320.96 22.51C320.88 24.09 320.19 25.59 318.9 27.01C317.61 28.42 316.17 29.3 314.59 29.64C313.01 29.98 309.44 30.27 303.87 30.5C299.73 30.65 291.5 30.67 279.17 30.54C277.32 30.55 275.61 30.99 274.06 31.86C272.51 32.73 271.83 33.17 272.04 33.18C271.46 33.15 271.06 32.23 270.84 30.42C270.7 29.14 270.65 27.95 270.71 26.84C270.95 22.25 272.21 19.56 274.47 18.78C275.44 18.41 277.78 18.32 281.47 18.51C284.34 18.65 288.24 18.99 293.19 19.51Z" fill="#757575"/>
<path fill-rule="evenodd" clip-rule="evenodd" d="M83.1901 17.47C84.0601 30.94 84.8701 44.49 85.6401 58.1C87.0801 78.17 89.2001 90.39 91.9901 94.7C92.2801 95.11 92.4201 95.47 92.4201 95.78C92.4201 97.24 90.8301 98.42 87.6601 99.35C85.2601 100.07 83.0901 100.43 81.1701 100.43C76.3601 100.43 72.9201 99.25 70.8601 96.89C68.7901 94.53 67.7601 90.78 67.7601 85.65C67.7601 79.7 68.2901 71.79 69.3501 61.94C70.6001 50.13 71.3201 42.23 71.5101 38.23C66.2201 47.78 62.5701 54.55 60.5501 58.56C55.2601 68.72 52.1801 75.55 51.3201 79.04C50.9401 80.68 50.2601 81.5 49.3001 81.5C48.8201 81.5 48.2401 81.3 47.5701 80.88C46.0301 80.88 44.3001 79.65 42.3801 77.18C41.3201 75.85 38.8201 71.33 34.8801 63.63C32.3801 58.7 28.4401 51.31 23.0501 41.46C26.3201 61.27 27.9501 76.62 27.9501 87.5C27.9501 89.96 27.8101 91.71 27.5201 92.74C26.1701 97.87 21.6501 100.44 13.9601 100.44C11.7501 100.44 9.25007 100.08 6.46007 99.36C2.61007 98.44 0.690063 97.15 0.690063 95.51C0.690063 95.31 0.790057 95 0.980057 94.59C3.67006 90.59 5.79006 82.58 7.33006 70.57C8.48006 61.23 9.06006 52.61 9.06006 44.7C9.06006 35.67 8.00006 26.99 5.89006 18.68C5.22006 18.37 4.57006 18.06 3.94006 17.76C3.31006 17.45 3.00006 16.73 3.00006 15.6C3.00006 12.62 4.27007 9.88 6.82007 7.36C9.37007 4.84 12.0401 3.59 14.8301 3.59C17.2301 3.59 18.9401 3.82 19.9501 4.28C20.9601 4.74 22.1401 5.94999 23.4801 7.89999C23.7701 8.20999 25.9801 12.52 30.1201 20.83C35.6001 31.81 40.4101 41.52 44.5401 49.93C46.9401 41.67 49.8801 33.45 53.3401 25.29C58.5301 13.18 63.0001 6.48 66.7501 5.12C69.5401 4.09 72.7601 3.58 76.4101 3.58C83.9101 3.58 87.6601 5.38 87.6601 9C87.6601 9.69 86.1701 12.51 83.1901 17.47ZM12.9401 50.68C13.1301 46.98 13.2301 43.6 13.2301 40.52C13.2301 33.85 12.8001 28.41 11.9301 24.2C10.3001 22.15 8.80007 20.66 7.46007 19.73C10.5401 27.63 12.3601 37.95 12.9401 50.68ZM122.42 71.93C122.61 85.58 126.89 92.41 135.26 92.41C138.91 92.41 142.28 91.08 145.36 88.41C146.99 87.08 149.49 84.25 152.86 79.94C152.96 79.73 153.15 79.53 153.44 79.32C153.82 79.32 154.02 80.09 154.02 81.63C154.02 83.99 153.25 86.56 151.71 89.33C146.9 97.85 139.02 102.21 128.05 102.42L126.46 102.57C108.57 102.88 99.6301 90.87 99.6301 66.54C99.6301 61.3 100.21 56.17 101.36 51.14C102.8 44.88 104.82 40.21 107.42 37.13C108.67 35.8 110.4 34.82 112.61 34.2C114.53 33.69 116.46 33.22 118.38 32.81C119.44 32.4 120.21 32.19 120.69 32.19C121.07 32.19 121.36 32.19 121.56 32.19C122.52 31.88 124.3 31.73 126.9 31.73C128.63 31.73 130.31 31.88 131.95 32.19C134.35 31.06 136.13 30.5 137.29 30.5C141.71 30.5 145.54 32.37 148.76 36.09C151.98 39.84 153.59 44.05 153.59 48.74C153.59 60.62 146.09 68.86 131.09 73.45C128.88 74.17 126.86 74.53 125.03 74.53C124.36 74.53 123.73 74.48 123.15 74.38C130.07 73.46 134.98 70.38 137.86 65.14L137.72 65.29C133.19 69.31 128.1 71.52 122.42 71.93ZM122.42 69.15C131.65 66.58 136.27 59.5 136.27 47.9C136.27 43.79 134.06 40.97 129.63 39.43C125.11 46.93 122.71 56.84 122.42 69.15ZM225.05 93.33C226.35 93.33 227 93.74 227 94.56C227 96.72 225.22 98.77 221.66 100.72C218.49 102.47 215.79 103.34 213.58 103.34C212.52 103.34 211.51 103.19 210.55 102.88C205.74 101.55 202.47 91.23 200.74 71.93C193.05 91.54 185.79 101.24 178.96 101.03H178.67C173.09 100.82 169.2 100.05 166.99 98.72C164.39 96.97 162.52 93.48 161.36 88.25C160.78 85.58 160.5 82.5 160.5 79.01C160.5 71.82 161.61 63.77 163.82 54.84C166.61 44.06 170.02 37.18 174.06 34.21C177.62 31.54 182.28 30.21 188.05 30.21C189.88 30.21 192.67 30.57 196.42 31.29C201.13 32.11 203.49 33.04 203.49 34.06C203.49 34.16 203.35 34.27 203.06 34.37C197.39 36.32 192.29 41.71 187.77 50.54C183.63 58.65 181.57 66.14 181.57 73.02C181.57 75.18 181.95 77.33 182.72 79.49C183.68 82.26 184.98 83.65 186.61 83.65C189.88 83.65 193.73 75.85 198.15 60.24C198.73 58.7 199.35 56.54 200.03 53.77C199.93 51.61 200.22 48.59 200.9 44.68C203.3 38.52 207.92 35.44 214.75 35.44C216.48 35.44 217.88 35.65 218.93 36.06C219.99 36.47 220.61 42.12 220.81 53C220.91 59.36 221 65.78 221.1 72.25C221.1 75.84 221.44 81.13 222.11 88.11C222.77 91.59 223.75 93.33 225.05 93.33ZM176.8 73.31C176.8 76.29 177.52 78.96 178.96 81.32C180.5 84.19 182.52 85.63 185.02 85.63C185.5 85.63 185.98 85.58 186.46 85.48C184.15 85.28 182.32 83.38 180.98 79.78C179.92 77.01 179.39 74.08 179.39 71C179.39 65.97 180.11 60.73 181.55 55.29C178.39 61.56 176.8 67.56 176.8 73.31ZM252.67 1.56C256.52 1.56 258.44 3.25 258.44 6.64C258.44 7.36 257.86 16.55 256.71 34.2C254.5 66.74 253.39 86.71 253.39 94.1C253.39 99.13 254.11 103.44 255.55 107.03C254.11 104.77 253.24 103.33 252.95 102.72C252.66 102.1 252.23 100.51 251.65 97.95C250.69 93.33 250.3 85.37 250.5 74.08C250.21 71 250.02 65.05 249.92 56.22C249.82 57.25 249.44 60.89 248.77 67.15C248.39 70.13 248.19 73.82 248.19 78.24C248.19 82.45 248.62 88.04 249.49 95.02C249.87 98.72 250.31 101.13 250.79 102.26C251.46 104 252.81 105.85 254.83 107.8C244.93 104.52 239.11 99.02 237.38 91.32C236.52 87.42 235.79 80.64 235.22 70.99C234.93 65.86 234.5 54 233.92 35.42C233.92 31.72 233.68 26.28 233.2 19.1C232.53 15.2 231.33 12.27 229.59 10.32C228.34 8.99001 227.71 8.21999 227.71 8.00999C227.71 5.74999 231.32 4.01 238.53 2.77C243.44 1.97 248.16 1.56 252.67 1.56Z" fill="url(#paint0_linear_937_514)"/>
<defs>
<linearGradient id="paint0_linear_937_514" x1="0.680263" y1="54.6806" x2="258.444" y2="54.6806" gradientUnits="userSpaceOnUse">
<stop stop-color="#FDC72A"/>
<stop offset="1" stop-color="#E95A8B"/>
</linearGradient>
</defs>
</svg>
