<svg xmlns="http://www.w3.org/2000/svg" width="15.559" height="10.836" viewBox="0 0 15.559 10.836"><defs><style>.a{fill:#e6e6e6;}</style></defs><path class="a" d="M365.423,658.069a.6.6,0,0,1-.417-.171,2.751,2.751,0,0,1,0-3.884,1.558,1.558,0,0,0,0-2.2.6.6,0,1,1,.842-.842,2.743,2.743,0,0,1,0,3.883,1.55,1.55,0,0,0,0,2.2.6.6,0,0,1-.425,1.021Zm0,0" transform="translate(-364.203 -647.241)"/><path class="a" d="M383.021,658.068a.6.6,0,0,1-.425-.171,2.751,2.751,0,0,1,0-3.884,1.55,1.55,0,0,0,0-2.2.606.606,0,0,1,.842-.872,2.75,2.75,0,0,1,0,3.883,1.55,1.55,0,0,0,0,2.2.6.6,0,0,1-.425,1.021Zm0,0" transform="translate(-368.682 -647.239)"/><path class="a" d="M374.222,653.283a.6.6,0,0,1-.425-.171,2.758,2.758,0,0,1,0-3.883,1.55,1.55,0,0,0,0-2.2.6.6,0,0,1,.842-.842,2.743,2.743,0,0,1,0,3.884,1.55,1.55,0,0,0,0,2.2.6.6,0,0,1-.425,1.021Zm0,0" transform="translate(-366.443 -646.033)"/></svg>