<svg xmlns="http://www.w3.org/2000/svg" id="Слой_1" x="0" y="0" version="1.1" viewBox="0 0 64 64" xml:space="preserve"><style>.st54{fill:#24a491}</style><switch><g><g id="ик"><g id="Эллипс_17_1_"><circle cx="32" cy="32" r="30" fill="#fff"/><circle cx="32" cy="32" r="30" fill="none" stroke="#28a190" stroke-width="2"/></g><g id="list" transform="translate(8 8.829)"><path id="Контур_1497" d="M14.48 12.09h-2.22a.983.983 0 0 0-1.1.86c0 .04-.01.07-.01.11v1.95c0 .55.45.99 1 .98.04 0 .08 0 .11-.01h2.22a.983.983 0 0 0 1.1-.86c0-.04.01-.07.01-.11v-1.95a.98.98 0 0 0-1-.98c-.04 0-.08.01-.11.01z" class="st54"/><path id="Контур_1498" d="M14.48 19.91h-2.22a.983.983 0 0 0-1.1.86c0 .04-.01.07-.01.11v1.95c0 .55.45.99 1 .98.04 0 .08 0 .11-.01h2.22a.983.983 0 0 0 1.1-.86c0-.04.01-.07.01-.11v-1.95a.98.98 0 0 0-1-.98c-.04 0-.08 0-.11.01z" class="st54"/><path id="Контур_1499" d="M14.48 27.72h-2.22a.983.983 0 0 0-1.1.86c0 .04-.01.07-.01.11v1.95c0 .55.45.99 1 .98.04 0 .08 0 .11-.01h2.22a.983.983 0 0 0 1.1-.86c0-.04.01-.07.01-.11V28.7a.98.98 0 0 0-1-.98h-.11z" class="st54"/><path id="Контур_1500" d="M36.71 12.09H21.15a.983.983 0 0 0-1.1.86c0 .04-.01.07-.01.11v1.95c0 .55.45.99 1 .98.04 0 .08 0 .11-.01h15.56a.983.983 0 0 0 1.1-.86c0-.04.01-.07.01-.11v-1.95a.98.98 0 0 0-1-.98c-.03 0-.07.01-.11.01z" class="st54"/><path id="Контур_1501" d="M36.71 19.91H21.15a.983.983 0 0 0-1.1.86c0 .04-.01.07-.01.11v1.95c0 .55.45.99 1 .98.04 0 .08 0 .11-.01h15.56a.983.983 0 0 0 1.1-.86c0-.04.01-.07.01-.11v-1.95a.98.98 0 0 0-1.11-.97z" class="st54"/><path id="Контур_1502" d="M36.71 27.72H21.15a.983.983 0 0 0-1.1.86c0 .04-.01.07-.01.11v1.95c0 .55.45.99 1 .98.04 0 .08 0 .11-.01h15.56a.983.983 0 0 0 1.1-.86c0-.04.01-.07.01-.11V28.7a.98.98 0 0 0-1-.98h-.11z" class="st54"/></g></g></g></switch></svg>