<svg width="9" height="10" viewBox="0 0 9 10" fill="none" xmlns="http://www.w3.org/2000/svg">
<path d="M6.94778 1.19645H5.38712C5.34846 0.866871 5.19013 0.562955 4.94219 0.342399C4.69425 0.121843 4.37396 0 4.04211 0C3.71027 0 3.38998 0.121843 3.14204 0.342399C2.8941 0.562955 2.73577 0.866871 2.69711 1.19645H1.13645C0.834695 1.19851 0.545971 1.31968 0.333128 1.53359C0.120285 1.74749 0.000554347 2.03682 1.2445e-07 2.33857V2.39745C-0.000106798 2.62676 0.0686862 2.85081 0.197454 3.04055C0.326223 3.23028 0.509026 3.37695 0.722161 3.46154V8.86143C0.72366 9.16367 0.844683 9.45304 1.0588 9.66637C1.27292 9.87969 1.56274 9.99963 1.86499 10H6.22491C6.52789 9.99963 6.81836 9.8791 7.0326 9.66486C7.24684 9.45062 7.36736 9.16015 7.36774 8.85717V3.46012C7.58087 3.37554 7.76368 3.22886 7.89245 3.03913C8.02121 2.84939 8.09 2.62534 8.0899 2.39603V2.33857C8.08933 2.03584 7.96883 1.74566 7.75476 1.53159C7.54069 1.31753 7.25052 1.19702 6.94778 1.19645ZM4.04566 0.539558C4.23407 0.539806 4.41655 0.605429 4.56196 0.725228C4.70738 0.845027 4.80671 1.01158 4.84301 1.19645H3.2483C3.28461 1.01158 3.38394 0.845027 3.52936 0.725228C3.67477 0.605429 3.85725 0.539806 4.04566 0.539558ZM6.82647 8.8593C6.82628 9.0186 6.76292 9.17132 6.65028 9.28396C6.53764 9.3966 6.38492 9.45997 6.22562 9.46015H1.86499C1.70569 9.45997 1.55297 9.3966 1.44033 9.28396C1.32769 9.17132 1.26432 9.0186 1.26414 8.8593V3.54454H6.82576L6.82647 8.8593ZM7.55147 2.39816C7.55128 2.55746 7.48792 2.71018 7.37528 2.82282C7.26264 2.93547 7.10991 2.99883 6.95062 2.99902H1.14283C0.983531 2.99883 0.830811 2.93547 0.71817 2.82282C0.605529 2.71018 0.542163 2.55746 0.541975 2.39816V2.33857C0.542163 2.17928 0.605529 2.02655 0.71817 1.91391C0.830811 1.80127 0.983531 1.73791 1.14283 1.73772H6.94778C7.0269 1.73744 7.10529 1.75277 7.17848 1.78283C7.25166 1.81289 7.3182 1.8571 7.37427 1.91291C7.43035 1.96872 7.47487 2.03505 7.50527 2.10809C7.53568 2.18113 7.55138 2.25946 7.55147 2.33857V2.39745V2.39816Z" fill="#A2A2A2"/>
<path d="M2.59228 8.76716C2.66415 8.76716 2.73307 8.73861 2.78389 8.68779C2.83471 8.63697 2.86327 8.56805 2.86327 8.49618V5.44579C2.86327 5.37392 2.83471 5.305 2.78389 5.25418C2.73307 5.20336 2.66415 5.1748 2.59228 5.1748C2.52041 5.1748 2.45148 5.20336 2.40066 5.25418C2.34984 5.305 2.32129 5.37392 2.32129 5.44579V8.49618C2.32129 8.56805 2.34984 8.63697 2.40066 8.68779C2.45148 8.73861 2.52041 8.76716 2.59228 8.76716Z" fill="#A2A2A2"/>
<path d="M4.0449 8.76716C4.11678 8.76716 4.18571 8.73861 4.23653 8.68779C4.28735 8.63697 4.31589 8.56805 4.31589 8.49618V5.44579C4.31589 5.37392 4.28735 5.305 4.23653 5.25418C4.18571 5.20336 4.11678 5.1748 4.0449 5.1748C3.97303 5.1748 3.90411 5.20336 3.85329 5.25418C3.80247 5.305 3.77393 5.37392 3.77393 5.44579V8.49618C3.77393 8.56805 3.80247 8.63697 3.85329 8.68779C3.90411 8.73861 3.97303 8.76716 4.0449 8.76716Z" fill="#A2A2A2"/>
<path d="M5.50147 8.76716C5.57334 8.76716 5.64226 8.73861 5.69308 8.68779C5.7439 8.63697 5.77245 8.56805 5.77245 8.49618V5.44579C5.77245 5.37392 5.7439 5.305 5.69308 5.25418C5.64226 5.20336 5.57334 5.1748 5.50147 5.1748C5.4296 5.1748 5.36068 5.20336 5.30986 5.25418C5.25904 5.305 5.23047 5.37392 5.23047 5.44579V8.49618C5.23047 8.56805 5.25904 8.63697 5.30986 8.68779C5.36068 8.73861 5.4296 8.76716 5.50147 8.76716Z" fill="#A2A2A2"/>
</svg>
