<svg width="10" height="10" viewBox="0 0 10 10" fill="none" xmlns="http://www.w3.org/2000/svg">
<path d="M6.08781 9.30442C6.08781 9.28589 6.08781 9.26119 6.08781 9.23648C6.10017 8.4027 6.11869 7.56892 6.12487 6.74132C6.12487 6.56839 6.10017 6.39546 6.08781 6.22253C6.08781 6.12371 6.01988 6.04342 5.92106 6.02489C5.78518 5.99401 5.64931 5.95695 5.50726 5.93842C5.21698 5.90137 4.92052 5.88901 4.63025 5.91372C4.50672 5.9199 4.3832 5.93842 4.25968 5.9693C4.04351 6.01871 3.98793 6.0743 3.97558 6.29664C3.95705 6.72897 3.93234 7.1613 3.93234 7.59363C3.92617 8.13713 3.94469 8.68063 3.95087 9.22413C3.95087 9.24883 3.95087 9.27354 3.95087 9.31059C3.85823 9.31677 3.75941 9.32912 3.66677 9.32912C3.32708 9.32912 2.98122 9.3353 2.64153 9.32912C2.53036 9.32295 2.41301 9.31059 2.30184 9.29207C2.10421 9.25501 1.9251 9.13766 1.81393 8.97091C1.64717 8.76709 1.52365 8.5324 1.45571 8.27918C1.44954 8.25447 1.44336 8.22359 1.44336 8.19889C1.44336 7.03778 1.44336 5.87666 1.44336 4.70937C1.44336 4.67232 1.46189 4.63526 1.48659 4.61673C2.65388 3.67796 3.82117 2.74536 4.98846 1.80659L5.03169 1.76953L5.43314 2.09069C6.48926 2.93064 7.54538 3.7706 8.59533 4.61673C8.62621 4.64143 8.64473 4.67849 8.64473 4.71555C8.64473 5.88284 8.64473 7.05013 8.64473 8.22359C8.64473 8.26065 8.63856 8.30388 8.62621 8.34094C8.53356 8.62504 8.37298 8.87826 8.163 9.08825C7.99624 9.23648 7.78625 9.32912 7.56391 9.34765C7.14393 9.39088 6.72396 9.39088 6.31016 9.34148C6.24222 9.3353 6.17428 9.32912 6.11252 9.31677C6.10017 9.31059 6.09399 9.31059 6.08781 9.30442Z" fill="#A2A2A2"/>
<path d="M7.13798 1.75711C7.13798 1.59036 7.13798 1.4236 7.13798 1.25684C7.13798 1.24449 7.13798 1.23214 7.13798 1.21979C7.14415 1.05303 7.16886 1.02833 7.33561 1.00362C7.69383 0.954213 8.05205 0.941861 8.41644 0.978918C8.66348 1.00362 8.67584 1.02215 8.68819 1.25067C8.69436 1.52859 8.69436 1.8127 8.68819 2.0968C8.68201 2.3809 8.65731 2.65265 8.63878 2.93675C8.63878 2.97381 8.65731 3.01704 8.68819 3.04175C9.0464 3.34438 9.4108 3.65319 9.76901 3.96199C9.83695 4.02993 9.90489 4.09787 9.96665 4.1658C10.0037 4.20286 10.0099 4.26462 9.98518 4.31403C9.89871 4.47461 9.75048 4.59196 9.57138 4.64754C9.51579 4.6599 9.46021 4.64137 9.42315 4.59813C9.22551 4.43138 9.0217 4.2708 8.82406 4.10404C7.91617 3.31967 7.01446 2.52913 6.10656 1.74476C5.80393 1.47918 5.48895 1.22596 5.17397 0.978918C5.01956 0.855395 5.03809 0.855395 4.88369 0.978918C4.48842 1.2939 4.09932 1.60888 3.71022 1.93622C2.74057 2.74529 1.77092 3.5729 0.801262 4.39432C0.702444 4.47461 0.597449 4.54873 0.498631 4.62284C0.461574 4.65372 0.412165 4.65372 0.375108 4.63519C0.202176 4.54255 0.0663012 4.38815 0.0045398 4.20286C-0.00781247 4.15963 0.0045402 4.10404 0.0477732 4.07934C0.270114 3.87553 0.492455 3.67171 0.720972 3.47408C1.91297 2.45501 3.11731 1.46066 4.35254 0.497179C4.544 0.348952 4.74164 0.206901 4.93927 0.0648494C5.0628 -0.0216165 5.06897 -0.0216165 5.18632 0.0648494C5.40248 0.225429 5.61247 0.392185 5.81628 0.571293C6.24244 0.941861 6.66242 1.32478 7.08239 1.7077L7.13798 1.75711Z" fill="#A2A2A2"/>
</svg>
