<svg xmlns="http://www.w3.org/2000/svg" x="0" y="0" viewBox="0 0 73.64 54.28" xml:space="preserve"><switch><g><g transform="translate(201.891 472.128)"><path  d="M-158.04-433.29l.33-.01.32-.02.32-.04.31-.06.31-.07.3-.09.29-.1.29-.11.28-.13.27-.14.27-.15.26-.17.25-.18.24-.19.23-.2.22-.21.21-.22.2-.23.19-.24.18-.25.16-.26.15-.27.14-.27.13-.28.11-.29.1-.29.09-.3.07-.31.06-.31.04-.32.03-.32.01-.33-.01-.32-.03-.32-.04-.31-.06-.31-.07-.3-.09-.3-.1-.29-.11-.29-.13-.28-.14-.27-.15-.26-.16-.26-.18-.25-.19-.24-.2-.23-.21-.22-.22-.21-.23-.2-.24-.19-.25-.18-.26-.16-.27-.15-.27-.14-.28-.13-.29-.11-.29-.1-.3-.08-.31-.07-.31-.06-.32-.04-.32-.02-.33-.01-.33.01-.32.02-.32.04-.31.06-.31.07-.3.08-.3.1-.29.11-.28.13-.27.14-.27.15-.26.16-.25.18-.24.19-.23.2-.22.21-.21.22-.2.23-.19.24-.18.25-.16.26-.15.26-.14.27-.12.28-.11.29-.1.29-.08.3-.07.3-.06.31-.04.31-.03.32-.01.32.01.33.03.32.04.32.06.31.07.31.08.3.1.29.11.29.12.28.14.27.15.27.16.26.18.25.19.24.2.23.21.22.22.21.23.2.24.19.25.18.26.17.27.15.27.14.28.13.29.11.3.1.3.09.31.07.31.06.32.04.32.02.33.01z"/><path  d="M-166.45-433.29l.33-.01.32-.02.32-.04.31-.06.31-.07.3-.09.3-.1.29-.11.28-.13.27-.14.26-.15.26-.17.25-.18.24-.19.23-.2.22-.21.21-.22.2-.23.19-.24.18-.25.16-.26.15-.27.14-.27.13-.28.11-.29.1-.29.08-.3.07-.31.06-.31.04-.32.03-.32.01-.33-.01-.32-.03-.33-.04-.31-.06-.31-.07-.3-.08-.3-.1-.29-.11-.29-.13-.28-.14-.27-.15-.26-.16-.26-.18-.25-.19-.24-.2-.23-.21-.22-.22-.21-.23-.2-.24-.19-.25-.18-.26-.16-.26-.15-.27-.14-.28-.13-.29-.11-.3-.1-.3-.08-.31-.07-.31-.06-.32-.04-.32-.02-.33-.01-.33.01-.32.02-.32.04-.31.06-.31.07-.3.08-.29.1-.29.11-.28.13-.27.14-.27.15-.26.16-.25.18-.24.19-.23.2-.22.21-.21.22-.2.23-.19.24-.18.25-.16.26-.15.26-.14.27-.13.28-.11.29-.1.29-.09.3-.07.3-.06.31-.04.31-.03.32-.01.32.01.33.03.32.04.32.06.31.07.31.09.3.1.29.11.29.13.28.14.27.15.27.16.26.18.25.19.24.2.23.21.22.22.21.23.2.24.19.25.18.26.17.27.15.27.14.28.13.29.11.29.1.3.09.31.07.31.06.32.04.32.02.33.02z"/><path  d="M-163.02-443.55h3.21v-.35h-2.9l-.31.35z"/><path  d="M-163.53-442.8h3.72v-.35h-3.49l-.23.35z"/><path  d="M-163.91-442.04h4.09v-.35h-3.92l-.17.35z"/><path  d="M-164.15-441.29h4.34v-.35h-4.23l-.11.35z"/><path  d="M-164.31-440.54h4.5v-.35h-4.44l-.06.35z"/><path  d="M-164.34-439.08h4.53v-.35h-4.57l.04.35z"/><path  d="M-164.24-438.29h4.43v-.35h-4.49l.06.35z"/><path  d="M-164.02-437.65h4.21v-.35h-4.32l.11.35z"/><path  d="M-163.7-436.86h3.89v-.35h-4.06l.17.35z"/><path  d="M-163.25-436.07h3.44v-.35h-3.68l.24.35z"/><path  d="M-162.68-435.31h2.84v-.35h-3.15l.31.35z"/><g transform="translate(20.051 9.971)"><g><path  d="M-172.79-445.72l.02-.06.03-.05.04-.05.05-.04.05-.03.06-.02.06-.01.06.01.06.02.05.03.05.04.04.05.03.05.02.06h-.07l-.01-.04-.02-.04-.03-.04-.04-.03-.04-.02-.05-.02h-.1l-.05.02-.04.02-.04.03-.03.04-.02.04-.01.04h-.07z"/><path  d="M-172.59-445.72v-.07H-172.42l.02.01.02.01.01.01.01.01.01.01v.02h-.05v-.02l-.01-.01-.01-.01h-.11v.04h-.06z"/><path  d="M-172.79-445.67v-.05h.06v.05h-.06z"/><path  d="M-172.59-445.67v-.05h.05v.04H-172.42l.01-.01v-.02h.05v.04l-.01.01-.01.01-.21-.02z"/><path  d="M-172.24-445.67v-.05h.06l.01.05h-.07z"/><path  d="M-172.79-445.66l.01.07.02.06.03.05.04.05.05.04.05.03.06.02.06.01.06-.01.06-.02.05-.03.05-.04.04-.05.03-.05.02-.06.01-.06v-.01h-.07V-445.6l-.02.05-.02.04-.03.04-.03.03-.04.02-.05.01h-.1l-.05-.01-.04-.02-.04-.03-.03-.04-.02-.04-.01-.05V-445.66h-.09z"/><path  d="M-172.59-445.66v.13h.05v-.11h.05l.06.11h.05l-.08-.11h.04l.02-.01.01-.01h-.2z"/></g></g><path  d="M-159.41-440.17h-.08l-.04-.01h-.04l-.04-.01-.04-.01-.04-.01-.04-.01H-160.14l-.08.01-.06.01-.06.01-.05.02-.05.02-.04.02-.04.02-.03.03-.03.03-.02.03-.01.04-.01.04v.04l.01.04.01.04.02.04.03.04.06.05.07.04.08.04.09.03.09.03.1.03.1.04.1.04.09.05.09.06.08.08.06.09.05.11.03.13.01.16-.01.19-.02.14-.04.12-.05.11-.06.1-.07.09-.08.08-.09.07-.09.06-.1.05-.1.04-.1.03-.1.02-.1.02-.1.01-.1.01H-161.38l-.08-.01-.07-.01-.06-.01-.06-.01-.05-.01-.05-.01-.05-.02-.05-.01-.05-.02-.05-.02.13-.65.03.01.03.01.04.01.05.01.06.01.06.02.07.01.07.01.08.01.08.01.08.01.09.01h.36l.08-.01.07-.02.05-.03.04-.04.03-.04.02-.04.02-.05.01-.05.01-.05v-.04l-.01-.04-.02-.03-.02-.03-.03-.03-.04-.03-.04-.02-.04-.02-.05-.02-.05-.02-.05-.02-.05-.02-.06-.02-.06-.02-.06-.02-.06-.02-.06-.03-.06-.03-.06-.03-.05-.04-.05-.04-.05-.05-.04-.05-.04-.05-.04-.06-.03-.07-.03-.07-.02-.08-.01-.08v-.09l.01-.1.01-.06.01-.06.01-.06.01-.05.01-.05.01-.05.02-.05.02-.05.02-.04.02-.04.03-.04.03-.04.03-.04.03-.04.03-.03.04-.03.04-.03.04-.03.05-.02.05-.02.05-.02.06-.02.06-.02.06-.02.07-.01.07-.01.07-.01.08-.01.08-.01h.78l.06.01h.05l.05.01.04.01h.04l.03.01h.11l-.12.62z"/><g transform="translate(10.871 5.052)"><g><path  d="M-170.28-445.23h-.08l-.04-.01h-.04l-.04-.01-.04-.01-.04-.01-.04-.01h-.4l-.08.01-.06.01-.06.01-.05.02-.05.02-.04.02-.04.02-.03.03-.03.03-.02.03-.01.04-.01.04v.04l.01.04.01.04.02.04.03.04.06.05.07.04.08.04.09.03.09.03.1.03.1.04.1.04.09.05.09.06.08.08.06.09.05.11.03.13.01.16-.01.19-.02.14-.04.12-.05.11-.06.1-.07.09-.08.08-.09.07-.09.06-.1.05-.1.04-.1.03-.1.02-.1.02-.1.01-.1.01H-172.24l-.08-.01-.07-.01-.06-.01-.06-.01-.05-.01-.05-.01-.05-.02-.05-.01-.05-.02-.05-.02.13-.65.03.01.03.01.04.01.05.01.06.01.06.02.07.01.07.01.08.01.08.01.08.01.09.01h.36l.08-.01.07-.02.05-.03.04-.04.03-.04.02-.04.02-.05.01-.05.01-.05v-.04l-.01-.04-.02-.03-.02-.03-.03-.03-.04-.03-.04-.02-.04-.02-.05-.02-.05-.02-.05-.02-.05-.02-.06-.02-.06-.02-.06-.02-.06-.02-.06-.03-.06-.03-.06-.03-.05-.04-.05-.04-.05-.05-.04-.05-.04-.05-.04-.06-.03-.07-.03-.07-.02-.08-.01-.08v-.09l.01-.1.01-.06.01-.06.01-.06.01-.05.01-.05.01-.05.02-.05.02-.05.02-.04.02-.04.03-.04.03-.04.03-.04.03-.04.03-.03.04-.03.04-.03.04-.03.05-.02.05-.02.05-.02.06-.02.06-.02.06-.02.07-.01.07-.01.07-.01.08-.01.08-.01h.78l.06.01h.05l.05.01.04.01h.04l.03.01h.11l-.13.62"/></g></g><path  d="M-158.73-441.57h.84l-.13.73h.51l-.12.66-.53-.01-.28 1.66v.1l.01.02.01.02.01.02.02.02.02.01.03.01.03.01.03.01h.03l.03.01h.22l.05-.01.05-.01.03-.01.03-.01.02-.01h.01l-.09.57-.02.01-.02.01-.02.01-.02.01-.02.01-.03.01-.02.01-.03.01-.03.01-.03.01-.03.01-.04.01-.04.01-.04.01-.05.01-.05.01h-.22l-.12-.01-.11-.01-.09-.02-.08-.02-.07-.02-.06-.03-.05-.04-.04-.04-.03-.04-.02-.05-.01-.05-.01-.06v-.13l.01-.07.01-.08.55-3.28z"/><g transform="translate(13.491 4.398)"><g><path  d="M-172.22-445.97h.84l-.13.73h.51l-.12.66-.53-.01-.28 1.66v.1l.01.02.01.02.01.02.02.02.02.01.03.01.03.01.03.01h.03l.03.01h.22l.05-.01.05-.01.03-.01.03-.01.02-.01h.01l-.09.57-.02.01-.02.01-.02.01-.02.01-.02.01-.03.01-.02.01-.03.01-.03.01-.03.01-.03.01-.04.01-.04.01-.04.01-.05.01-.05.01h-.22l-.12-.01-.11-.01-.09-.02-.08-.02-.07-.02-.06-.03-.05-.04-.04-.04-.03-.04-.02-.05-.01-.05-.01-.06v-.13l.01-.07.01-.07.55-3.29"/></g></g><path  d="M-163.82-439.04l-.01.05v.11l.01.05.02.06.03.06.03.05.03.05.04.05.05.05.05.04.05.04.06.03.06.03.06.02.06.01.08.01.08.01.08.01h.32l.08-.01.08-.01.08-.02.08-.02.08-.03.08-.03.09-.04.09-.05.09-.05-.13.74-.05.02-.05.02-.04.02-.05.02-.05.02-.05.01-.05.01-.05.01-.05.01-.06.01-.06.01H-163.3l-.08-.01-.08-.01-.08-.01-.08-.02-.08-.02-.07-.02-.07-.02-.07-.03-.07-.03-.07-.04-.07-.04-.06-.04-.06-.05-.06-.05-.06-.05-.05-.06-.05-.06-.05-.07-.04-.07-.04-.08-.03-.08-.03-.09-.02-.09-.02-.1-.01-.1-.01-.11V-439.25l.01-.12.01-.04.01-.05.01-.05.01-.05.01-.06.02-.06.02-.06.02-.06.02-.07.02-.06.03-.07.03-.06.03-.07.04-.07.04-.06.04-.06.05-.06.05-.06.05-.06.06-.05.06-.05.07-.05.07-.05.08-.04.08-.04.09-.04.09-.03.1-.02.11-.02.11-.02.12-.01h.3l.06.01.06.01.06.01.06.01.06.02.06.02.06.02.06.02.06.03.05.03.05.04.05.04.05.04.05.05.04.05.04.06.03.06.03.07.03.07.03.08.02.08.02.09.01.09v.2l-.01.11-.01.12-.02.12-.03.13-.03.18h-2.16l.13-.58h1.3l.01-.08v-.14l-.01-.06-.02-.06-.02-.05-.03-.05-.03-.04-.03-.04-.04-.03-.04-.02-.04-.02-.05-.02-.05-.01-.05-.01h-.11l-.05.01-.05.01-.05.02-.05.02-.05.03-.04.03-.04.04-.04.04-.03.04-.03.05-.03.05-.03.05-.02.06-.02.06-.02.06-.12.66z"/><g transform="translate(8.093 5.063)"><g><path  d="M-171.91-444.1l-.01.05v.11l.01.05.02.06.03.06.03.05.03.05.04.05.05.05.05.04.05.04.06.03.06.03.06.02.06.02.08.01.08.01.08.01h.32l.08-.01.08-.01.08-.01.08-.02.08-.03.08-.03.09-.04.09-.05.09-.05-.13.74-.05.02-.05.02-.04.02-.05.02-.05.02-.05.01-.05.01-.05.01-.05.01-.06.01-.06.01H-171.39l-.08-.01-.08-.01-.08-.01-.08-.02-.08-.02-.07-.02-.07-.02-.07-.03-.07-.03-.07-.04-.07-.04-.06-.04-.06-.05-.06-.05-.06-.05-.05-.06-.05-.06-.05-.07-.04-.07-.04-.08-.03-.08-.03-.09-.02-.09-.02-.1-.01-.1-.01-.11V-444.29l.01-.12.01-.04.01-.05.01-.05.01-.05.01-.06.02-.06.02-.06.02-.06.02-.07.02-.06.03-.07.03-.06.03-.07.04-.07.04-.06.04-.06.05-.06.05-.06.05-.06.06-.05.06-.05.07-.05.07-.05.08-.04.08-.04.09-.04.09-.03.1-.02.11-.02.11-.01.12-.01h.3l.06.01.06.01.06.01.06.01.06.02.06.02.06.02.06.02.06.03.05.03.05.04.05.04.05.04.05.05.04.05.04.06.03.06.03.07.03.07.03.08.02.08.02.09.01.09v.2l-.01.11-.01.12-.02.12-.03.13-.03.18h-2.16l.13-.58h1.3l.01-.08v-.14l-.01-.06-.02-.06-.02-.05-.03-.05-.03-.04-.03-.04-.04-.03-.04-.02-.04-.02-.05-.02-.05-.01-.05-.01h-.11l-.05.01-.05.01-.05.02-.05.02-.05.03-.04.03-.04.04-.04.04-.03.04-.03.05-.03.05-.03.05-.02.06-.02.06-.02.06-.12.62"/></g></g><path  d="M-164.98-438.31l-.12.66h-.75l.01-.06.01-.06.01-.06.01-.05.01-.04.01-.04.01-.02.01-.01-.04.04-.05.05-.06.04-.07.04-.07.04-.08.04-.08.03-.08.03-.09.03-.09.02-.09.02-.09.01-.09.01h-.09l-.08-.01-.08-.01-.11-.02-.09-.03-.09-.04-.08-.04-.07-.05-.06-.05-.05-.06-.04-.06-.04-.06-.03-.07-.02-.07-.02-.07-.01-.07-.01-.07v-.14l.01-.12.02-.11.03-.11.04-.1.05-.09.05-.09.07-.08.07-.08.08-.07.08-.06.09-.06.09-.05.1-.04.1-.03.1-.02.1-.02H-166.49l.05-.01h.1l.05-.01H-165.61l.01-.02.01-.05.01-.06v-.12l-.01-.04-.01-.03-.01-.03-.02-.03-.02-.03-.02-.02-.03-.02-.03-.02-.03-.02-.03-.02-.03-.01-.03-.01-.04-.01-.03-.01h-.31l-.1.01-.1.01-.1.01-.1.01-.09.01-.09.01-.09.01-.08.01-.07.02-.07.02-.05.02-.04.02-.03.02.21-.71.06-.03.07-.03.07-.02.07-.02.07-.02.08-.01.08-.01.08-.01h.74l.09.01.09.01.09.02.09.03.09.04.09.04.09.05.08.06.08.07.07.07.06.08.05.09.03.1.02.11v.11l-.02.12-.27 1.57z"/><g transform="translate(5.104 5.079)"><g><path  d="M-170.08-443.39l-.12.67h-.75l.01-.06.01-.06.01-.06.01-.05.01-.04.01-.04.01-.02.01-.01-.04.05-.05.05-.06.04-.07.04-.07.04-.08.04-.08.03-.08.03-.09.03-.09.02-.09.02-.09.01-.09.01h-.09l-.08-.01-.08-.01-.11-.02-.09-.03-.09-.04-.08-.04-.07-.05-.06-.05-.05-.06-.04-.06-.04-.06-.03-.07-.02-.07-.02-.07-.01-.07-.01-.07v-.14l.01-.12.02-.11.03-.11.04-.1.05-.09.05-.09.07-.08.07-.08.08-.07.08-.06.09-.06.09-.05.1-.04.1-.03.1-.02.1-.02H-171.59l.05-.01h.1l.05-.01H-170.71l.01-.02.01-.05.01-.06v-.12l-.01-.04-.01-.03-.01-.03-.02-.03-.02-.03-.02-.02-.03-.02-.03-.02-.03-.02-.03-.02-.03-.02-.03-.01-.04-.01-.03-.01h-.31l-.1.01-.1.01-.1.01-.1.01-.09.01-.09.01-.09.01-.08.02-.07.02-.07.02-.05.02-.04.02-.03.02.21-.71.06-.03.07-.03.07-.02.07-.02.07-.01.08-.01.08-.01.08-.01h.74l.09.01.09.01.09.02.09.03.09.04.09.04.09.05.08.06.08.07.07.07.06.08.05.09.03.1.02.11v.11l-.02.12-.31 1.56"/></g></g><path  d="M-165.69-439.09v-.02l-.01-.01-.02-.01-.03-.01H-165.96l-.05.01-.05.01-.05.01-.05.01-.04.01-.04.01-.03.01h-.02l-.03.01-.03.01-.03.01-.03.02-.04.02-.04.02-.04.02-.04.03-.04.03-.04.03-.03.04-.03.04-.02.04-.02.05-.01.05v.1l.02.08.03.06.04.05.05.03.05.02.05.01h.14l.08-.01.08-.01.07-.02.06-.02.06-.02.05-.03.04-.03.04-.03.03-.04.03-.03.03-.04.02-.04.02-.03.01-.03.01-.03.01-.05.01-.05.01-.05.01-.05.01-.05.01-.05.01-.04-.01-.04z"/><path  d="M-171.26-437.65h-.82l.68-3.92h1.42l.14 2.34.96-2.34h1.47l-.69 3.92h-.81l.51-2.94h-.03l-1.21 2.94h-.91l-.01-.12-.02-.33-.03-.46-.03-.53-.03-.54-.03-.47-.02-.34-.01-.14h-.03l-.5 2.93z"/><g transform="translate(.718 4.398)"><g><path  d="M-171.98-442.04h-.82l.68-3.92h1.42l.14 2.33.96-2.33h1.47l-.69 3.92h-.81l.51-2.94h-.03l-1.21 2.94h-.91l-.01-.12-.02-.33-.03-.46-.03-.53-.03-.54-.03-.47-.02-.34-.01-.14h-.03l-.5 2.93"/></g></g><path  d="M-157.65-437.65h.85l.29-1.69.01-.07.02-.07.02-.06.02-.06.02-.06.03-.06.03-.05.04-.05.05-.05.05-.04.07-.04.07-.03.08-.02.09-.02.1-.01.12-.01H-155.59v-.01l.01-.04.01-.05.02-.07.02-.08.02-.08.03-.08.03-.08.02-.06.03-.06.03-.06.03-.05.03-.04.02-.04.01-.02v-.01h-.13l-.09.01-.08.01-.08.02-.07.02-.07.02-.06.03-.06.03-.05.04-.05.04-.05.04-.04.05-.05.05-.04.05-.04.06-.04.06-.04.06.1-.54-.85-.01-.58 3.18z"/><g transform="translate(15.138 5.084)"><g><path  d="M-172.79-442.73h.85l.29-1.69.01-.07.02-.07.02-.06.02-.06.02-.06.03-.06.03-.05.04-.05.05-.05.05-.04.07-.04.07-.03.08-.03.09-.02.1-.01.12-.01H-170.73v-.01l.01-.04.01-.05.02-.07.02-.08.02-.08.03-.08.03-.08.02-.06.03-.06.03-.06.03-.05.03-.04.02-.04.01-.02v-.01h-.13l-.09.01-.08.01-.08.02-.07.02-.07.02-.06.03-.06.03-.05.04-.05.04-.05.04-.04.05-.05.05-.04.05-.04.06-.04.06-.04.06.1-.54-.85-.01-.58 3.19"/></g></g><path  d="M-153.99-440.88h.09l.09.01.09.01.09.01.08.02.08.02.08.02.08.03.07.03.07.03.07.04.06.04.06.04.06.05.05.05.05.05.05.05.05.06.04.06.04.06.04.06.03.07.03.07.03.07.02.07.02.08.02.08.01.08.01.08v.27l-.01.11-.01.1-.02.1-.02.1-.02.09-.03.09-.03.09-.03.08-.04.08-.04.08-.04.07-.04.07-.05.07-.05.06-.05.06-.06.05-.06.05-.06.05-.06.04-.07.04-.07.04-.07.03-.07.03-.08.03-.08.02-.08.02-.08.02-.08.01-.08.01-.08.01h-.36l-.08-.01-.08-.01-.08-.02-.08-.02-.08-.02-.07-.02-.07-.03-.07-.03-.07-.03-.07-.04-.06-.04-.06-.04-.06-.05-.05-.05-.05-.05-.05-.06-.04-.06-.04-.06-.04-.07-.04-.07-.03-.07-.03-.07-.03-.08-.02-.08-.02-.08-.01-.09-.01-.09-.01-.09v-.2l.01-.1.01-.1.01-.09.02-.09.02-.09.03-.09.03-.08.03-.08.03-.08.04-.07.04-.07.04-.07.05-.06.05-.06.05-.06.05-.06.06-.05.06-.05.06-.05.07-.04.07-.04.07-.04.07-.03.07-.03.08-.02.08-.02.08-.02.08-.02.09-.01.09-.01h.22z"/><g transform="translate(17.088 5.084)"><g><path  d="M-171.08-445.97h.09l.09.01.09.01.09.01.08.02.08.02.08.02.08.03.07.03.07.03.07.04.06.04.06.04.06.05.05.05.05.05.05.05.05.06.04.06.04.06.04.06.03.07.03.07.03.07.02.07.02.08.02.08.01.08.01.08v.27l-.01.11-.01.1-.02.1-.02.1-.02.09-.03.09-.03.09-.03.08-.04.08-.04.07-.04.07-.04.07-.05.07-.05.06-.05.06-.06.05-.06.05-.06.05-.06.04-.07.04-.07.04-.07.03-.07.03-.08.03-.08.02-.08.02-.08.02-.08.01-.08.01-.08.01h-.36l-.08-.01-.08-.01-.08-.01-.08-.02-.08-.02-.07-.02-.07-.03-.07-.03-.07-.03-.07-.04-.06-.04-.06-.04-.06-.05-.05-.05-.05-.05-.05-.06-.04-.06-.04-.06-.04-.07-.04-.07-.03-.07-.03-.07-.03-.08-.02-.08-.02-.08-.01-.09-.01-.09-.01-.09v-.2l.01-.1.01-.1.01-.09.02-.09.02-.09.03-.09.03-.08.03-.08.03-.08.04-.07.04-.07.04-.07.05-.06.05-.06.05-.06.05-.06.06-.05.06-.05.06-.05.07-.04.07-.04.07-.04.07-.03.07-.03.08-.02.08-.02.08-.02.08-.02.09-.01.09-.01h.22"/></g></g><path  d="M-152.74-437.81h.25v.03h-.1v.2h-.05v-.2h-.1v-.03z"/><g transform="translate(20.051 8.159)"><g><path  d="M-172.79-445.97h.25v.03h-.1v.2h-.05v-.2h-.1v-.03"/></g></g><path  d="M-152.47-437.81h.08l.09.18.09-.18h.08v.24h-.05v-.18l-.09.18h-.04l-.09-.18v.18h-.05v-.24z"/><g transform="translate(20.328 8.159)"><g><path  d="M-172.79-445.97h.08l.09.18.09-.18h.08v.24h-.05v-.18l-.09.18h-.04l-.09-.18v.18h-.05v-.24"/></g></g><path  d="M-154.65-439.35l-.01.12-.01.11v.1l.01.09.01.08.02.07.02.07.03.06.03.05.04.04.04.04.05.03.05.02.06.02.06.01h.14l.07-.01.07-.01.06-.02.06-.03.06-.04.05-.04.05-.05.04-.06.04-.07.04-.07.03-.08.03-.09.03-.1.02-.11.02-.11.01-.09.01-.08v-.08l-.01-.08-.01-.07-.02-.07-.02-.07-.03-.06-.03-.05-.04-.05-.04-.04-.05-.03-.05-.03-.06-.02-.06-.01h-.07l-.09.01-.08.01-.07.02-.07.03-.06.04-.06.05-.05.05-.05.06-.04.06-.04.07-.03.07-.03.07-.03.07-.02.07-.02.07v.06z"/></g></g></switch></svg>