<svg xmlns="http://www.w3.org/2000/svg" x="0" y="0" viewBox="0 0 73.64 54.98" xml:space="preserve"><switch><g><g transform="translate(202 449.163)"><path d="M-155.25-415.39l.32-.01.32-.02.31-.04.31-.05.3-.07.3-.09.29-.1.29-.11.28-.13.27-.14.26-.15.26-.16.25-.18.24-.19.23-.2.22-.21.21-.22.2-.23.19-.24.18-.25.16-.26.15-.26.14-.27.13-.28.11-.29.1-.29.08-.3.07-.3.05-.31.04-.31.02-.32.01-.32-.01-.32-.02-.32-.04-.31-.05-.31-.07-.3-.08-.3-.1-.29-.11-.28-.13-.28-.14-.27-.15-.26-.16-.26-.18-.25-.19-.23-.2-.23-.21-.22-.22-.21-.23-.2-.24-.19-.25-.18-.26-.16-.26-.15-.27-.14-.28-.13-.29-.11-.29-.1-.3-.09-.3-.07-.31-.05-.31-.04-.32-.02-.32-.01-.32.01-.32.02-.31.04-.31.05-.3.07-.3.09-.29.1-.29.11-.28.13-.27.14-.26.15-.25.16-.25.18-.24.19-.23.2-.22.21-.21.22-.2.23-.19.23-.17.25-.16.26-.15.26-.14.27-.12.28-.11.28-.1.29-.08.3-.07.3-.05.31-.04.31-.02.32-.01.32.01.32.02.32.04.31.05.31.07.3.08.3.1.29.11.29.12.28.14.27.15.26.16.26.17.25.19.24.2.23.21.22.22.21.23.2.24.19.25.18.25.16.26.15.27.14.28.13.29.11.29.1.3.09.3.07.31.05.31.04.32.02.32.01z"/><path d="M-163.66-415.39l.32-.01.32-.02.31-.04.31-.05.3-.07.3-.09.29-.1.29-.11.28-.13.27-.14.26-.15.25-.16.25-.18.24-.19.23-.2.22-.21.21-.22.2-.23.19-.24.17-.25.16-.26.15-.26.14-.27.12-.28.11-.29.1-.29.08-.3.07-.3.05-.31.04-.31.02-.32.01-.32-.01-.32-.02-.32-.04-.31-.05-.31-.07-.3-.08-.3-.1-.29-.11-.28-.12-.28-.14-.27-.15-.26-.16-.26-.17-.25-.19-.23-.2-.23-.21-.22-.22-.21-.23-.2-.24-.19-.25-.18-.25-.16-.26-.15-.27-.14-.28-.13-.29-.11-.29-.1-.3-.09-.3-.07-.31-.05-.31-.04-.32-.02-.32-.01-.33.01-.32.02-.31.04-.31.05-.3.07-.3.09-.29.1-.29.11-.28.13-.27.14-.26.15-.26.16-.25.18-.24.19-.23.2-.22.21-.21.22-.2.23-.19.23-.18.25-.16.26-.15.26-.14.27-.13.28-.11.28-.1.29-.08.3-.07.3-.05.31-.04.31-.02.32-.01.32.01.32.02.32.04.31.05.31.07.3.08.3.1.29.11.29.13.28.14.27.15.26.16.26.18.25.19.24.2.23.21.22.22.21.23.2.24.19.25.18.26.16.26.15.27.14.28.13.29.11.29.1.3.09.3.07.31.05.31.04.32.02.33.01z"/><path  d="M-160.19-425.54h3.34v-.34h-3.05l-.29.34z"/><path  d="M-160.69-424.79h3.84v-.34h-3.64l-.2.34z"/><path d="M-161.06-424.03h4.21v-.34h-4.06l-.15.34z"/><path  d="M-161.32-423.27h4.47v-.34h-4.36l-.11.34z"/><path  d="M-161.17-419.6h4.33v-.34h-4.44l.11.34z"/><path d="M-160.85-418.85h4.01v-.34h-4.17l.16.34z"/><path  d="M-160.4-418.09h3.56v-.34h-3.77l.21.34z"/><path  d="M-159.78-417.33h2.94v-.34h-3.24l.3.34z"/><path d="M-161.47-422.51h4.62v-.34h-4.55l-.07.34z"/><path  d="M-158.66-420.36h1.76v-.34h-1.7l-.06.34z"/><path  d="M-158.52-421.12h1.62v-.34h-1.56l-.06.34z"/><path  d="M-161.59-421.46h.46v.34h-.44l-.02-.34z"/><path d="M-162.44-421.87H-163.03l-.04.01-.04.01-.04.01-.03.01-.03.01-.03.02-.02.02-.02.02-.01.02-.01.02v.05l.01.03.01.03.02.03.02.03.04.04.05.03.06.03.06.02.07.02.07.02.07.03.07.03.06.04.06.04.05.05.05.07.03.08.02.1.01.11-.01.13-.02.1-.03.09-.03.08-.04.07-.05.06-.05.05-.06.05-.07.04-.07.03-.07.03-.07.02-.07.02-.07.01-.07.01H-163.87l-.05-.01h-.05l-.04-.01-.04-.01-.04-.01-.04-.01-.03-.01-.03-.01-.04-.01.1-.47h.02l.02.01.03.01.04.01.04.01.04.01.05.01.05.01.05.01.05.01.06.01.06.01h.24l.06-.01.05-.02.04-.02.03-.03.02-.03.02-.03.01-.03.01-.03v-.06l-.02-.05-.04-.04-.05-.04-.06-.03-.07-.03-.08-.03-.08-.03-.08-.04-.08-.05-.07-.05-.07-.07-.05-.08-.04-.1-.02-.11v-.14l.01-.08.02-.08.02-.07.02-.07.03-.06.04-.05.05-.05.05-.05.06-.04.07-.03.08-.03.08-.02.1-.02.1-.01.11-.01H-162.49l.03.01h.14l-.11.48-.01-.05z"/><path  d="M-162.44-421.87H-163.03l-.04.01-.04.01-.04.01-.03.01-.03.01-.03.02-.02.02-.02.02-.01.02-.01.02v.05l.01.03.01.03.02.03.02.03.04.04.05.03.06.03.06.02.07.02.07.02.07.03.07.03.06.04.06.04.05.05.05.07.03.08.02.1.01.11-.01.13-.02.1-.03.09-.03.08-.04.07-.05.06-.05.05-.06.05-.07.04-.07.03-.07.03-.07.02-.07.02-.07.01-.07.01H-163.87l-.05-.01h-.05l-.04-.01-.04-.01-.04-.01-.04-.01-.03-.01-.03-.01-.04-.01.1-.47h.02l.02.01.03.01.04.01.04.01.04.01.05.01.05.01.05.01.05.01.06.01.06.01h.24l.06-.01.05-.02.04-.02.03-.03.02-.03.02-.03.01-.03.01-.03v-.06l-.02-.05-.04-.04-.05-.04-.06-.03-.07-.03-.08-.03-.08-.03-.08-.04-.08-.05-.07-.05-.07-.07-.05-.08-.04-.1-.02-.11v-.14l.01-.08.02-.08.02-.07.02-.07.03-.06.04-.05.05-.05.05-.05.06-.04.07-.03.08-.03.08-.02.1-.02.1-.01.11-.01H-162.49l.03.01h.14l-.11.48"/><path d="M-161.94-422.88h.59l-.09.51h.35l-.08.48-.37-.01-.2 1.18v.04l.01.04.02.03.03.02.04.02.04.01.05.01h.14l.04-.01.03-.01.03-.01.02-.01h.01l-.07.39-.02.01-.02.01-.02.01-.02.01-.02.01-.02.01-.02.01-.02.01-.02.01h-.35l-.08-.01-.07-.01-.07-.01-.06-.02-.05-.02-.04-.02-.04-.03-.03-.03-.02-.03-.02-.04-.01-.04-.01-.04v-.1l.01-.05.01-.05.4-2.31.02.04z"/><path d="M-161.94-422.88h.59l-.09.51h.35l-.08.48-.37-.01-.2 1.18v.04l.01.04.02.03.03.02.04.02.04.01.05.01h.14l.04-.01.03-.01.03-.01.02-.01h.01l-.07.39-.02.01-.02.01-.02.01-.02.01-.02.01-.02.01-.02.01-.02.01-.02.01h-.35l-.08-.01-.07-.01-.07-.01-.06-.02-.05-.02-.04-.02-.04-.03-.03-.03-.02-.03-.02-.04-.01-.04-.01-.04v-.1l.01-.05.01-.05.4-2.31"/><path d="M-160.62-421.09l-.01.04v.08l.01.04.02.04.02.04.02.04.02.04.03.04.03.03.03.03.04.02.04.02.04.02.04.01.04.01.05.01.05.01.05.01h.27l.06-.01.06-.01.06-.01.06-.02.06-.02.06-.03.06-.03.06-.04-.08.52-.03.02-.03.02-.03.01-.03.01-.03.01-.03.01-.03.01-.04.01-.04.01h-.48l-.11-.01-.11-.02-.11-.03-.1-.03-.1-.04-.1-.05-.09-.06-.08-.07-.07-.09-.06-.1-.05-.11-.04-.12-.02-.14-.01-.16.01-.17.01-.07.01-.08.02-.08.02-.09.03-.09.04-.09.05-.09.06-.09.07-.08.08-.08.09-.07.11-.06.12-.05.14-.04.15-.02.17-.01h.08l.09.01.09.02.09.02.08.03.08.04.08.05.07.06.06.07.05.09.04.1.03.11.02.13v.14l-.02.16-.03.18-.01.13h-1.54l.1-.42h.93V-421.62l-.01-.04-.02-.04-.02-.04-.02-.03-.02-.03-.02-.02-.03-.02-.03-.02-.03-.02-.03-.01-.03-.01-.04-.01h-.08l-.04.01-.04.01-.04.01-.04.02-.03.02-.03.02-.03.02-.03.03-.02.03-.02.03-.02.04-.02.04-.02.04-.01.04-.01.04-.08.44"/><path d="M-155.56-422.24l-.03-.02-.03-.01-.03-.01-.03-.02-.03-.01-.04-.01-.04-.01-.04-.01-.04-.01-.04-.01-.04-.01-.04-.01h-.31l-.06.01-.06.01-.06.02-.06.02-.06.03-.06.04-.06.05-.05.05-.05.07-.05.08-.05.09-.04.11-.04.12-.03.14-.01.08-.01.07v.14l.01.07.02.07.02.06.02.06.03.06.04.05.05.05.05.04.06.04.07.03.07.03.08.02.03.01.03.01h.28l.05-.01.05-.01.05-.02.05-.02.05-.02.05-.03.04-.03.04-.04-.1.57-.01.01-.01.01-.02.02-.02.01-.02.02-.03.01-.04.03-.04.01-.05.02-.05.01-.06.01-.07.01h-.29l-.12-.01-.1-.01-.1-.02-.1-.03-.1-.04-.09-.05-.09-.06-.08-.07-.08-.09-.07-.1-.06-.11-.05-.12-.04-.13-.02-.14-.01-.15v-.16l.02-.18.02-.09.02-.09.02-.08.02-.08.02-.07.03-.07.03-.07.03-.07.03-.07.03-.06.04-.06.04-.05.04-.05.04-.05.04-.05.05-.04.05-.04.05-.04.05-.04.05-.03.06-.03.06-.03.06-.02.06-.02.07-.02.07-.02.07-.02.07-.01.07-.01.08-.01H-156.04l.06.01.06.01.06.01.06.01.05.01.05.01.05.01.04.01.04.01.03.01.03.01.02.01.02.01h.01l-.11.59.01-.01z"/><path d="M-155.56-422.24l-.03-.02-.03-.01-.03-.01-.03-.02-.03-.01-.04-.01-.04-.01-.04-.01-.04-.01-.04-.01-.04-.01-.04-.01h-.31l-.06.01-.06.01-.06.02-.06.02-.06.03-.06.04-.06.05-.05.05-.05.07-.05.08-.05.09-.04.11-.04.12-.03.14-.01.08-.01.07v.14l.01.07.02.07.02.06.02.06.03.06.04.05.05.05.05.04.06.04.07.03.07.03.08.02.03.01.03.01h.28l.05-.01.05-.01.05-.02.05-.02.05-.02.05-.03.04-.03.04-.04-.1.57-.01.01-.01.01-.02.02-.02.01-.02.02-.03.01-.04.03-.04.01-.05.02-.05.01-.06.01-.07.01h-.29l-.12-.01-.1-.01-.1-.02-.1-.03-.1-.04-.09-.05-.09-.06-.08-.07-.08-.09-.07-.1-.06-.11-.05-.12-.04-.13-.02-.14-.01-.15v-.16l.02-.18.02-.09.02-.09.02-.08.02-.08.02-.07.03-.07.03-.07.03-.07.03-.07.03-.06.04-.06.04-.05.04-.05.04-.05.04-.05.05-.04.05-.04.05-.04.05-.04.05-.03.06-.03.06-.03.06-.02.06-.02.07-.02.07-.02.07-.02.07-.01.07-.01.08-.01H-156.04l.06.01.06.01.06.01.06.01.05.01.05.01.05.01.04.01.04.01.03.01.03.01.02.01.02.01h.01l-.11.59"/><path d="M-150.34-420.09h-.59l.04-.24v-.02l-.03.04-.04.04-.04.03-.04.03-.04.03-.04.02-.04.02-.04.02-.04.02-.04.01-.04.01-.04.01-.04.01h-.12l-.11-.01-.1-.02-.09-.04-.08-.05-.08-.06-.07-.07-.06-.08-.05-.09-.04-.1-.03-.1-.02-.1-.02-.11-.01-.11v-.11l.01-.11.02-.11.03-.12.04-.12.05-.11.05-.1.05-.1.06-.08.07-.08.07-.07.07-.06.08-.05.08-.05.08-.04.08-.03.08-.02.08-.01h.15l.06.01.05.01.05.02.05.02.04.02.04.02.04.02.03.02.03.03.03.03.02.03.02.03.02.03.02.03.01.02.15-.83h.58l-.45 2.77z"/><path d="M-150.34-420.09h-.59l.04-.24v-.02l-.03.04-.04.04-.04.03-.04.03-.04.03-.04.02-.04.02-.04.02-.04.02-.04.01-.04.01-.04.01-.04.01h-.12l-.11-.01-.1-.02-.09-.04-.08-.05-.08-.06-.07-.07-.06-.08-.05-.09-.04-.1-.03-.1-.02-.1-.02-.11-.01-.11v-.11l.01-.11.02-.11.03-.12.04-.12.05-.11.05-.1.05-.1.06-.08.07-.08.07-.07.07-.06.08-.05.08-.05.08-.04.08-.03.08-.02.08-.01h.15l.06.01.05.01.05.02.05.02.04.02.04.02.04.02.03.02.03.03.03.03.02.03.02.03.02.03.02.03.01.02.15-.83h.58l-.45 2.77"/><path  d="M-151.3-420.61h.06l.05-.01.05-.02.05-.02.04-.02.04-.03.04-.04.04-.04.03-.04.03-.05.03-.05.02-.05.02-.05.02-.05.02-.06.01-.06.01-.06.01-.06v-.12l-.01-.05-.01-.05-.02-.05-.02-.05-.02-.04-.02-.04-.03-.03-.03-.03-.04-.02-.04-.02-.04-.01h-.1l-.05.01-.05.02-.05.02-.04.03-.04.03-.04.04-.04.04-.03.05-.03.05-.03.05-.02.05-.02.06-.02.06-.02.06-.01.06-.01.09v.1l.02.1.03.1.04.09.05.07.07.05.1-.01z"/><path d="M-164.32-420.56l-.08.47h-.54l.02-.09.01-.08.01-.06.01-.03-.03.03-.03.03-.04.03-.05.03-.05.03-.05.02-.05.03-.06.02-.06.02-.06.01-.06.01-.06.01h-.12l-.06-.01-.06-.01-.07-.02-.07-.02-.06-.03-.05-.03-.05-.03-.04-.04-.03-.04-.03-.04-.02-.04-.02-.05-.02-.05-.01-.05-.01-.05-.01-.05v-.1l.01-.08.01-.08.02-.07.03-.07.03-.07.04-.06.05-.06.05-.05.05-.05.06-.04.06-.04.06-.03.07-.03.07-.02.07-.02.07-.01H-164.74v-.02l.01-.04.01-.04v-.04l-.01-.05-.02-.04-.03-.04-.03-.03-.04-.03-.04-.02-.05-.01h-.38l-.07.01-.07.01-.07.01-.06.01-.06.01-.05.01-.05.01-.05.01-.04.01-.03.01-.02.01.15-.51.05-.02.05-.02.05-.01.05-.01.05-.01.05-.01.05-.01H-164.75l.06.01.07.02.07.02.07.03.06.03.06.04.06.04.05.05.05.05.04.06.03.06.02.07.01.07v.08l-.01.09-.21 1.12v-.03z"/><path d="M-164.32-420.56l-.08.47h-.54l.02-.09.01-.08.01-.06.01-.03-.03.03-.03.03-.04.03-.05.03-.05.03-.05.02-.05.03-.06.02-.06.02-.06.01-.06.01-.06.01h-.12l-.06-.01-.06-.01-.07-.02-.07-.02-.06-.03-.05-.03-.05-.03-.04-.04-.03-.04-.03-.04-.02-.04-.02-.05-.02-.05-.01-.05-.01-.05-.01-.05v-.1l.01-.08.01-.08.02-.07.03-.07.03-.07.04-.06.05-.06.05-.05.05-.05.06-.04.06-.04.06-.03.07-.03.07-.02.07-.02.07-.01H-164.74v-.02l.01-.04.01-.04v-.04l-.01-.05-.02-.04-.03-.04-.03-.03-.04-.03-.04-.02-.05-.01h-.38l-.07.01-.07.01-.07.01-.06.01-.06.01-.05.01-.05.01-.05.01-.04.01-.03.01-.02.01.15-.51.05-.02.05-.02.05-.01.05-.01.05-.01.05-.01.05-.01H-164.75l.06.01.07.02.07.02.07.03.06.03.06.04.06.04.05.05.05.05.04.06.03.06.02.07.01.07v.08l-.01.09-.21 1.12"/><path d="M-164.83-421.12l-.01-.02-.01-.01H-165.14l-.03.01-.02.01-.02.01h-.02l-.02.01-.02.01-.02.01-.03.01-.03.02-.03.01-.03.02-.03.02-.03.02-.03.03-.02.03-.02.03-.02.03-.01.03-.01.03v.07l.01.06.02.04.03.03.03.02.04.01.03.01h.09l.06-.01.05-.01.05-.01.04-.02.04-.02.04-.02.03-.02.03-.02.02-.02.02-.02.02-.02.02-.02.01-.02.01-.02.01-.02.02-.06.02-.07.01-.07v-.08z"/><path d="M-168.78-420.09h-.58l.48-2.78h1l.1 1.65.69-1.65h1.05l-.49 2.78h-.58l.36-2.08h-.02l-.86 2.08h-.65v-.09l-.02-.23-.02-.33-.02-.38-.02-.38-.02-.33-.02-.24v-.1h-.04l-.34 2.08z"/><path d="M-168.78-420.09h-.58l.48-2.78h1l.1 1.65.69-1.65h1.05l-.49 2.78h-.58l.36-2.08h-.02l-.86 2.08h-.65v-.09l-.02-.23-.02-.33-.02-.38-.02-.38-.02-.33-.02-.24v-.1h-.04l-.34 2.08"/><path d="M-153.8-420.56l-.09.47h-.54V-420.34l-.03.03-.03.03-.04.03-.04.03-.04.03-.05.02-.05.03-.05.02-.06.02-.06.02-.06.01-.06.01h-.12l-.06-.01-.06-.01-.08-.02-.07-.02-.06-.03-.05-.03-.05-.03-.04-.04-.03-.04-.03-.04-.02-.05-.02-.05-.02-.05-.01-.05-.01-.05-.01-.05v-.18l.01-.08.02-.07.03-.07.03-.07.04-.06.04-.06.05-.05.05-.05.06-.05.06-.04.07-.03.07-.03.07-.02.07-.02.07-.01H-154.26v-.01l.01-.04.01-.05v-.04l-.01-.05-.02-.04-.03-.04-.03-.03-.04-.03-.04-.02-.05-.01h-.38l-.07.01-.07.01-.07.01-.06.01-.06.01-.05.01-.05.01-.05.01-.04.01-.03.02-.02.01.15-.51.05-.02.05-.02.05-.02.05-.01.05-.01.05-.01.05-.01H-154.27l.06.01.07.01.07.02.07.03.07.03.06.04.06.04.05.05.05.05.04.06.03.06.02.07.02.07v.08l-.01.08-.22 1.12.03-.01z"/><path d="M-153.89-420.08l.01-.01.09-.47h-.02l-.09.47.01-.01v.02h.01v-.01l-.01.01z"/><path d="M-154.43-420.09l.01.02h.53v-.03h-.53l.01.01h-.02v.02h.02l-.02-.02z"/><path d="M-154.4-420.33l-.02-.02-.01.03v.23h.03v-.24l-.02-.02.02.02z"/><path d="M-155.22-420.06l.06.01.06.01h.12l.06-.01.06-.01.06-.02.06-.02.05-.02.05-.02.05-.02.04-.03.05-.03.04-.03.03-.03.03-.03-.02-.02-.03.03-.03.03-.04.03-.04.03-.05.02-.05.03-.05.02-.05.02-.05.02-.06.02-.06.01-.06.01h-.12l-.06-.01-.05-.01v.02z"/><path d="M-155.74-420.7v.1l.01.05.01.05.01.05.02.05.02.05.03.05.03.04.03.04.04.04.05.03.05.03.06.03.07.02.08.02v-.02l-.08-.02-.07-.02-.06-.03-.05-.03-.04-.03-.04-.04-.03-.04-.03-.04-.02-.04-.02-.05-.02-.04-.01-.05-.01-.05-.01-.05v-.1h-.02z"/><path d="M-154.97-421.51l-.07.01-.07.02-.07.02-.07.03-.07.03-.06.04-.06.04-.05.05-.05.05-.05.06-.04.06-.03.07-.03.07-.02.08-.01.08-.01.08h.03v-.08l.01-.08.02-.07.03-.07.03-.07.04-.06.05-.06.05-.05.05-.05.06-.04.06-.04.07-.03.06-.03.07-.02.07-.02.07-.01-.01-.01z"/><path d="M-154.54-421.56H-154.98v.02h.43l.01-.02z"/><path d="M-154.25-421.54l.01-.01h-.3v.03H-154.24l.01-.01-.01.01h.01v-.01l-.02-.01z"/><path d="M-154.23-421.67v.04l-.01.04-.01.04v.01h.02v-.01l.01-.04.01-.05.01-.04-.03.01z"/><path d="M-154.48-421.88h.05l.04.01.04.02.04.02.03.03.03.04.02.04.01.04h.02l-.01-.05-.02-.05-.03-.04-.03-.03-.04-.03-.05-.02-.05-.01-.05-.01v.04z"/><path d="M-155.39-421.78l.02.01.02-.01.03-.02.04-.01.05-.01.05-.01.05-.01.06-.01.06-.01.07-.01.07-.01.07-.01h.33v-.02h-.33l-.07.01-.07.01-.07.01-.07.01-.06.01-.05.01-.05.01-.05.01-.04.01-.03.01-.03.03.02.01-.02-.01z"/><path d="M-155.23-422.3l-.01.01-.15.51h.02l.15-.51-.01.01v-.02z"/><path d="M-154.29-422.4H-154.87l-.06.01-.05.01-.05.01-.05.01-.05.01-.05.02-.05.02.01.03.05-.02.05-.02.05-.01.05-.01.05-.01.05-.01.05-.01H-154.29v-.03z"/><path d="M-153.57-421.68l.01-.09v-.08l-.02-.07-.02-.07-.03-.07-.04-.06-.05-.05-.05-.05-.06-.04-.06-.04-.07-.03-.07-.03-.07-.02-.07-.02-.07-.01h-.06v.02h.06l.06.01.07.02.07.02.07.02.06.03.06.03.06.04.05.05.05.05.04.05.03.06.02.07.02.07v.08l-.01.08.02.03z"/><path d="M-153.79-420.56l.22-1.12h-.02l-.22 1.12h.02z"/><path d="M-154.31-421.12v-.01l-.01-.01-.02-.01-.02-.01h-.23l-.03.01h-.03l-.03.01h-.04l-.02.01-.02.01-.02.01-.03.01-.02.01-.03.01-.03.02-.03.02-.03.02-.02.02-.02.03-.02.03-.02.03-.01.03-.01.04v.07l.01.06.02.04.02.03.03.02.04.01.04.01h.1l.06-.01.05-.01.05-.01.05-.02.04-.02.04-.02.03-.02.03-.02.02-.03.02-.03.02-.03.02-.02.01-.03.01-.02.01-.02.01-.06.01-.06.01-.06v-.05l-.01.02z"/><path d="M-149.95-420.38v-.05l.02-.06.03-.05.04-.04.05-.04.05-.03.05-.02.06-.01.06.01.05.02.05.03.05.04.04.04.03.05.02.06v.05h-.06v-.04l-.01-.05-.02-.04-.03-.04-.03-.03-.04-.02-.05-.01h-.1l-.05.01-.04.02-.03.03-.03.04-.02.04-.01.05v.04h-.08z"/><path d="M-149.76-420.38v-.12H-149.59l.02.01.02.01.01.01.01.01V-420.4l-.01.01h-.09.05l.01-.01V-420.46h-.13v.08h-.06z"/><path d="M-149.95-420.38v.01l.01.06.02.06.03.05.04.04.05.04.05.03.05.02.06.01.06-.01.05-.02.05-.03.05-.04.04-.04.03-.05.02-.06.01-.06v-.01h-.06V-420.32l-.01.05-.02.04-.03.04-.03.03-.04.02-.05.01h-.1l-.05-.01-.04-.02-.03-.03-.03-.04-.02-.04-.01-.05V-420.38h-.1z"/><path d="M-149.76-420.38v.13h.05v-.11h.05l.06.11h.04l-.06-.11h.05l.01-.01v-.01h-.2z"/><path d="M-149.95-420.37l.01-.06.02-.06.03-.05.04-.04.05-.04.05-.03.05-.02.06-.01.06.01.05.02.05.03.05.04.04.04.03.05.02.06.01.06-.01.06-.02.06-.03.05-.04.04-.05.04-.05.03-.05.02-.06.01-.06-.01-.05-.02-.05-.03-.05-.04-.04-.04-.03-.05-.02-.06-.01-.06m.25.12h-.05v-.26H-149.58l.02.01.02.01.01.01.01.01V-420.41l-.01.01-.01.01-.01.01h-.05l.06.11h-.04l-.06-.11h-.05v.11m.04-.13H-149.59l.01-.01v-.05h-.13v.09h.05m.01.26h.05l.05-.01.04-.02.03-.03.03-.04.02-.04.01-.05v-.1l-.01-.05-.02-.04-.03-.04-.03-.03-.04-.02-.05-.02h-.1l-.05.02-.04.02-.03.03-.03.04-.02.04-.01.05v.1l.01.05.02.04.03.04.03.03.04.02.05.01h.05"/><path d="M-153.64-420.09h.6l.21-1.21.01-.05.01-.05.01-.05.02-.05.02-.05.02-.05.03-.04.03-.04.04-.04.04-.03.05-.03.05-.02.06-.02.07-.02.07-.01h.13l.1-.54h-.06l-.06.01-.05.01-.05.02-.05.02-.04.02-.04.02-.04.02-.04.03-.04.03-.03.03-.03.03-.03.04-.03.04-.03.04-.03.04.06-.38h-.6l-.38 2.28z"/><path d="M-153.64-420.09h.6l.21-1.21.01-.05.01-.05.01-.05.02-.05.02-.05.02-.05.03-.04.03-.04.04-.04.04-.03.05-.03.05-.02.06-.02.07-.02.07-.01h.13l.1-.54h-.06l-.06.01-.05.01-.05.02-.05.02-.04.02-.04.02-.04.02-.04.03-.04.03-.03.03-.03.03-.03.04-.03.04-.03.04-.03.04.06-.38h-.6l-.38 2.28"/><path d="M-159.25-420.09h.61l.2-1.21.01-.05.01-.04.01-.04.02-.04.02-.04.02-.04.02-.04.03-.04.03-.03.04-.03.05-.03.05-.02.06-.02.07-.02.07-.01.08-.01h.07v-.01l.01-.02.01-.04.01-.05.02-.05.02-.06.02-.06.02-.06.02-.04.02-.04.02-.04.02-.04.02-.03.02-.02.01-.01v-.01h-.19l-.06.01-.05.01-.05.01-.05.02-.05.02-.04.02-.04.02-.04.03-.03.03-.03.03-.03.04-.03.04-.03.04-.03.04-.03.04.08-.38h-.61l-.4 2.27z"/><path d="M-159.25-420.09h.61l.2-1.21.01-.05.01-.04.01-.04.02-.04.02-.04.02-.04.02-.04.03-.04.03-.03.04-.03.05-.03.05-.02.06-.02.07-.02.07-.01.08-.01h.07v-.01l.01-.02.01-.04.01-.05.02-.05.02-.06.02-.06.02-.06.02-.04.02-.04.02-.04.02-.04.02-.03.02-.02.01-.01v-.01h-.19l-.06.01-.05.01-.05.01-.05.02-.05.02-.04.02-.04.02-.04.03-.03.03-.03.03-.03.04-.03.04-.03.04-.03.04-.03.04.08-.38h-.61l-.4 2.27"/><path d="M-149.94-417.86l.02-.06.03-.05.04-.04.05-.03.05-.03.05-.01.06-.01.06.01.05.01.05.03.05.03.04.04.03.05.02.05v.01h-.06l-.01-.04-.02-.04-.03-.04-.03-.03-.04-.02-.05-.01h-.1l-.05.01-.04.02-.03.03-.03.04-.02.04-.01.04h-.08z"/><path d="M-149.76-417.86v-.07h.18l.02.01.01.01.01.01v.04h-.04v-.03h-.13v.04l-.05-.01z"/><path d="M-149.95-417.82l.01-.05h.06v.04l-.07.01z"/><path d="M-149.76-417.82v-.05h.05v.04h.11l.01-.01v-.02h.04v.02l-.01.01-.01.01h-.19z"/><path d="M-149.42-417.82v-.04h.06l.01.05-.07-.01z"/><path d="M-149.95-417.82l.01.07.02.06.03.05.04.04.05.04.05.02.05.02.06.01.06-.01.05-.02.05-.02.05-.04.04-.04.03-.05.02-.06.01-.06v-.01h-.06V-417.76l-.01.05-.02.04-.03.04-.03.03-.04.02-.05.01h-.1l-.05-.01-.04-.02-.03-.03-.03-.04-.02-.04-.01-.05V-417.82h-.1z"/><path d="M-149.76-417.82v.12h.05v-.11h.05l.06.11h.04l-.06-.11h.05l.01-.01h-.2z"/><path d="M-159.19-421.69l-.02-.13-.03-.11-.04-.1-.05-.08-.06-.07-.07-.06-.08-.05-.08-.04-.08-.03-.09-.02-.09-.01-.09-.01h-.08l-.17.01-.15.02-.14.04-.12.05-.11.06-.09.07-.08.08-.07.09-.06.09-.05.09-.04.09-.03.09-.02.09-.02.08-.01.08-.01.07-.01.17.01.16.02.14.04.12.05.11.06.1.07.09.08.07.09.06.1.05.1.04.1.03.11.03.11.01.11.01h.49l.04-.01.04-.01.03-.01.03-.01.03-.01.03-.01.03-.01.03-.02.03-.02.08-.52-.06.04-.06.03-.06.03-.06.02-.06.02-.06.01-.06.01-.06.01H-160.07l-.05-.01-.05-.01-.05-.01-.04-.01-.04-.04-.04-.02-.04-.02-.04-.02-.03-.03-.03-.03-.03-.04-.02-.04-.02-.04-.02-.04-.02-.04-.01-.04v-.08l.01-.03h1.38l.01-.13.03-.18.02-.16-.04-.1zm-.57.2h-.77l.01-.03.01-.04.01-.04.02-.04.02-.04.02-.04.02-.03.02-.03.03-.03.03-.02.03-.02.03-.02.04-.02.04-.01.04-.01.04-.01h.08l.04.01.03.01.03.01.03.02.03.02.03.02.02.02.02.03.02.03.02.04.02.04.01.04v.1l-.02.04z"/></g></g></switch></svg>