<svg width="26" height="30" viewBox="0 0 26 30" fill="none" xmlns="http://www.w3.org/2000/svg">
<path d="M22.1166 2.29394C21.1139 1.44499 19.949 0.808884 18.6927 0.424305C17.4364 0.0397263 16.1151 -0.0852843 14.809 0.0568761H5.19525C4.88797 0.0969465 4.59839 0.223438 4.36018 0.421635C4.12198 0.619832 3.94494 0.881587 3.84966 1.17645L0.00333458 25.6042C-0.0165514 25.8297 0.0530675 26.054 0.197156 26.2287C0.341245 26.4033 0.54824 26.5142 0.773437 26.5375H6.73336L8.27148 17.4009V17.7734C8.36675 17.4786 8.54379 17.2168 8.782 17.0186C9.0202 16.8204 9.30979 16.6939 9.61706 16.6538H12.5029C18.0798 16.6538 22.3091 14.4168 23.6568 8.26224V7.70349C23.8307 6.74455 23.7825 5.7585 23.5159 4.8211C23.2492 3.88369 22.7713 3.01989 22.1187 2.29603" fill="#263B80"/>
<path d="M23.462 7.11328V7.69086C22.1164 14.2284 17.8851 16.3441 12.3081 16.3441H9.4244C9.11362 16.3882 8.82192 16.5202 8.58356 16.7245C8.3452 16.9287 8.17009 17.1968 8.07881 17.4971L6.15565 29.2265C6.14558 29.3302 6.15859 29.4347 6.19373 29.5327C6.22887 29.6307 6.28528 29.7198 6.3589 29.7934C6.43252 29.867 6.52153 29.9234 6.61954 29.9586C6.71755 29.9937 6.82212 30.0067 6.92575 29.9966H11.9251C12.2045 30.0178 12.4811 29.9293 12.6963 29.75C12.9116 29.5707 13.0485 29.3147 13.0782 29.0361V28.8436L14.0387 22.8816V22.4965C14.0684 22.2179 14.2054 21.9619 14.4206 21.7826C14.6359 21.6033 14.9125 21.5148 15.1918 21.536H15.9619C20.775 21.536 24.6151 19.6128 25.5756 13.8433C25.8365 12.8688 25.8857 11.8497 25.7201 10.8546C25.5544 9.85942 25.1776 8.91127 24.6151 8.07382C24.3726 7.61399 23.9581 7.26871 23.462 7.11328Z" fill="#139AD6"/>
<path d="M22.1166 7.07745C21.9241 7.07745 21.7315 6.88493 21.539 6.88493C21.4345 6.89787 21.3284 6.8873 21.2285 6.85399C21.1285 6.82068 21.0373 6.76547 20.9614 6.6924C20.1397 6.52534 19.3004 6.46067 18.4628 6.49988H10.9627C10.8581 6.48694 10.752 6.49751 10.6521 6.53082C10.5522 6.56413 10.4609 6.61933 10.3851 6.6924C10.2084 6.78224 10.0606 6.91995 9.95847 7.08979C9.85634 7.25964 9.80402 7.45478 9.8075 7.65294L8.27148 17.6538V18.0389C8.36277 17.7385 8.53788 17.4705 8.77623 17.2662C9.01459 17.062 9.3063 16.93 9.61707 16.8858H12.5029C18.0798 16.8858 22.3091 14.5839 23.6568 8.23261C23.6439 8.12807 23.6544 8.02197 23.6877 7.92205C23.7211 7.82212 23.7763 7.7309 23.8493 7.65503C23.4643 7.46251 23.2717 7.26998 22.8888 7.26998C22.3112 7.07746 22.3112 7.07745 22.1187 7.07745" fill="#232C65"/>
</svg>
