<svg width="26" height="30" viewBox="0 0 26 30" fill="none" xmlns="http://www.w3.org/2000/svg">
<path d="M20.3423 29.9965C20.2922 29.9965 20.2421 29.9965 20.1907 29.9965C19.3916 29.9047 18.6602 29.5034 18.1536 28.8785C17.647 28.2536 17.4055 27.455 17.4811 26.6542C17.7316 23.3905 17.1376 20.1174 15.7563 17.1499C14.375 14.1824 12.2529 11.6205 9.59441 9.711C8.91139 9.254 8.41907 8.563 8.2102 7.76818C8.00132 6.97336 8.09031 6.12959 8.4604 5.39583C8.61395 5.04111 8.84131 4.72316 9.12732 4.46315C9.41333 4.20314 9.75144 4.00703 10.1192 3.88789C10.4869 3.76875 10.8757 3.72929 11.2599 3.77216C11.644 3.81503 12.0146 3.93923 12.347 4.1365C12.8245 4.42418 23.9341 11.3738 23.1988 26.9872C23.1996 27.7598 22.9036 28.5032 22.372 29.0639C21.8405 29.6245 21.1139 29.9597 20.3423 30V29.9965Z" fill="url(#paint0_linear)"/>
<path d="M10.5827 26.2568H10.5636C10.1886 26.251 9.81866 26.1698 9.47576 26.0179C9.13287 25.866 8.82409 25.6466 8.56785 25.3728C8.31161 25.0989 8.11317 24.7763 7.98436 24.424C7.85555 24.0718 7.79903 23.6973 7.81815 23.3227C7.85874 16.5605 1.5155 12.7371 1.45104 12.6989C0.791304 12.2717 0.313222 11.6153 0.109089 10.8563C-0.0950444 10.0973 -0.0107527 9.28958 0.345691 8.58908C0.495675 8.24776 0.716461 7.94219 0.993428 7.69261C1.27039 7.44304 1.59722 7.25515 1.95227 7.14139C2.30731 7.02763 2.68247 6.9906 3.05291 7.03274C3.42334 7.07488 3.7806 7.19524 4.10102 7.38585C4.48181 7.61384 13.4118 12.9771 13.3557 23.3549C13.3692 23.7288 13.3077 24.1017 13.1748 24.4514C13.0419 24.8012 12.8402 25.1207 12.5817 25.3912C12.3233 25.6617 12.0132 25.8777 11.6698 26.0263C11.3265 26.175 10.9569 26.2534 10.5827 26.2568Z" fill="url(#paint1_linear)"/>
<path d="M20.2993 29.9976C19.8786 29.9969 19.4642 29.8962 19.0901 29.704C18.3696 29.298 17.8253 28.6393 17.5622 27.8553C17.2992 27.0713 17.3362 26.2176 17.666 25.4592C20.4276 18.8175 20.4897 11.3604 17.8391 4.67361C17.4767 3.92766 17.4022 3.0743 17.6297 2.27683C17.8572 1.47935 18.3708 0.79377 19.0721 0.35128C19.4138 0.160662 19.7919 0.0445237 20.1816 0.0105016C20.5714 -0.0235206 20.9639 0.0253445 21.3334 0.153884C21.7029 0.282422 22.041 0.487723 22.3254 0.756285C22.6099 1.02485 22.8343 1.35059 22.9838 1.71208C26.4671 10.1763 26.45 19.6767 22.9361 28.1283C22.7315 28.6659 22.3714 29.1305 21.9018 29.4628C21.4322 29.795 20.8743 29.98 20.2993 29.994V29.9976Z" fill="url(#paint2_linear)"/>
<path d="M10.578 26.5407C10.0012 26.5386 9.44184 26.3432 8.98923 25.9857C8.37852 25.4794 7.97317 24.768 7.84904 23.9846C7.7249 23.2011 7.89048 22.3992 8.31479 21.729C11.7908 16.2679 8.36135 8.18426 8.32554 8.10429C7.99556 7.38648 7.94221 6.57212 8.17572 5.81741C8.40923 5.06269 8.91315 4.42075 9.59084 4.01472C9.9219 3.8425 10.2855 3.742 10.6581 3.71979C11.0306 3.69759 11.4036 3.75416 11.7528 3.88584C12.1019 4.01751 12.4194 4.22132 12.6845 4.48396C12.9496 4.74661 13.1564 5.0622 13.2913 5.41014C13.4954 5.8709 18.2355 16.7657 12.8412 25.2408C12.6043 25.6318 12.2718 25.9561 11.8751 26.1833C11.4784 26.4105 11.0304 26.5331 10.5732 26.5395L10.578 26.5407Z" fill="url(#paint3_linear)"/>
<defs>
<linearGradient id="paint0_linear" x1="-99.8675" y1="176.34" x2="-108.738" y2="174.889" gradientUnits="userSpaceOnUse">
<stop stop-color="#FFCC00"/>
<stop offset="1" stop-color="#CC9900"/>
</linearGradient>
<linearGradient id="paint1_linear" x1="-118.387" y1="181.82" x2="-105.256" y2="172.284" gradientUnits="userSpaceOnUse">
<stop stop-color="#6699CC"/>
<stop offset="1" stop-color="#3366CC"/>
</linearGradient>
<linearGradient id="paint2_linear" x1="-99.4436" y1="190.665" x2="-99.4436" y2="160.667" gradientUnits="userSpaceOnUse">
<stop stop-color="#57B149"/>
<stop offset="1" stop-color="#39823E"/>
</linearGradient>
<linearGradient id="paint3_linear" x1="-109.063" y1="186.891" x2="-109.063" y2="164.065" gradientUnits="userSpaceOnUse">
<stop stop-color="#DE1F26"/>
<stop offset="1" stop-color="#CC0000"/>
</linearGradient>
</defs>
</svg>
