<svg width="30" height="7" viewBox="0 0 30 7" fill="none" xmlns="http://www.w3.org/2000/svg">
<path fill-rule="evenodd" clip-rule="evenodd" d="M27.1831 3.04818C23.5915 5.48607 19.3483 6.78453 15.0075 6.77406C9.51682 6.80163 4.21373 4.77801 0.137215 1.0997C-0.179611 0.822473 0.102365 0.442279 0.474636 0.657721C5.00569 3.24805 10.1352 4.60892 15.3544 4.60538C19.2548 4.58407 23.1125 3.7927 26.7063 2.27671C27.2623 2.04067 27.7297 2.64264 27.1815 3.05293L27.1831 3.04818ZM28.5502 1.48939C28.9732 2.028 28.0845 4.25054 27.6853 5.2422C27.5649 5.54161 27.8231 5.66358 28.0956 5.43547C28.7826 4.80684 29.3099 4.02358 29.6338 3.15058C29.9578 2.27757 30.0691 1.33994 29.9585 0.415349C29.0936 0.0724897 28.1598 -0.0610263 27.2334 0.025694C26.307 0.112414 25.4142 0.416915 24.6279 0.914352C24.338 1.11712 24.3871 1.3991 24.7103 1.35949C25.7701 1.23276 28.1336 0.947618 28.5534 1.48781" fill="#FF9900"/>
</svg>
