<svg width="24" height="30" viewBox="0 0 24 30" fill="none" xmlns="http://www.w3.org/2000/svg">
<path d="M22.5778 6.85541L12.4488 0.235764C12.2188 0.0820474 11.9484 0 11.6717 0C11.3951 0 11.1246 0.0820474 10.8946 0.235764L0.776571 6.85541C0.531729 7.02613 0.33279 7.25462 0.197393 7.52062C0.0619952 7.78663 -0.00567802 8.08193 0.000372887 8.38035V21.6196C-0.00567802 21.9181 0.0619952 22.2134 0.197393 22.4794C0.33279 22.7454 0.531729 22.9739 0.776571 23.1446L10.9001 29.7642C11.1301 29.918 11.4006 30 11.6772 30C11.9539 30 12.2243 29.918 12.4543 29.7642L22.5778 23.1446C22.8227 22.9739 23.0216 22.7454 23.157 22.4794C23.2924 22.2134 23.3601 21.9181 23.354 21.6196V8.38035C23.3601 8.08193 23.2924 7.78663 23.157 7.52062C23.0216 7.25462 22.8227 7.02613 22.5778 6.85541ZM5.042 11.6902V19.3387L1.56375 21.6178V8.38035L11.6781 1.7607V6.33734L5.82003 10.1689C5.57537 10.3391 5.3764 10.5669 5.2407 10.8322C5.105 11.0975 5.03676 11.3922 5.042 11.6902ZM10.9001 13.4751C10.6553 13.6458 10.4563 13.8743 10.3209 14.1403C10.1855 14.4063 10.1178 14.7016 10.1239 15V22.6228L6.59073 24.9276V11.6902L16.7197 5.07053V9.67096L10.9001 13.4751ZM21.7998 21.6196L11.6763 28.2393V15L21.7998 8.38035V21.6196Z" fill="#111111"/>
</svg>
