<svg width="23" height="30" viewBox="0 0 23 30" fill="none" xmlns="http://www.w3.org/2000/svg">
<path d="M0 14.881C0 13.1972 0.140301 12.1279 3.61099 9.52398C6.48488 7.36767 15.6892 0 15.6892 0V12.2984H22.6945V30H2.18827C1.60707 29.9967 1.05079 29.7637 0.640815 29.3517C0.230837 28.9397 0.000459821 28.3823 0 27.8011V14.881Z" fill="#FFC200"/>
<path d="M15.6963 12.3909V19.4815L2.82422 28.2505L19.0977 22.9557V12.3909H15.6963Z" fill="#CF9A00"/>
<path d="M9.81348 12.0214C10.5666 11.1333 11.666 10.8083 12.27 11.3109C12.8739 11.8136 12.7531 12.9557 12 13.8527C11.2469 14.7497 10.1474 15.0658 9.54527 14.5631C8.94314 14.0605 9.06216 12.9184 9.81527 12.0214" fill="#1A1818"/>
</svg>
