<svg width="30" height="30" viewBox="0 0 30 30" fill="none" xmlns="http://www.w3.org/2000/svg">
<path d="M23.817 20.19C23.9044 20.7725 23.7194 21.0171 23.5345 21.0171C23.3496 21.0171 23.0788 20.7797 22.7788 20.3123C22.6411 20.137 22.5462 19.9321 22.5015 19.7137C22.4567 19.4954 22.4634 19.2696 22.5211 19.0543C22.5754 18.9616 22.6635 18.8934 22.7669 18.8641C22.8702 18.8348 22.981 18.8466 23.0759 18.897C23.5651 19.0834 23.7602 19.8406 23.817 20.19ZM21.0796 21.4641C21.6722 21.965 21.8527 22.562 21.5397 22.9828C21.4444 23.1009 21.3227 23.1949 21.1843 23.2571C21.0459 23.3193 20.8948 23.3481 20.7432 23.341C20.4116 23.3411 20.0905 23.2246 19.8361 23.0119C19.5823 22.8254 19.4066 22.5515 19.3429 22.2431C19.2792 21.9347 19.3319 21.6136 19.491 21.3418C19.5693 21.2534 19.6665 21.1839 19.7754 21.1383C19.8843 21.0926 20.0021 21.0721 20.12 21.0782C20.4739 21.0915 20.812 21.2286 21.0752 21.4656L21.0796 21.4641ZM20.0865 26.3056C23.2395 26.389 26.2412 27.6753 28.4765 29.9006C28.7837 30.1729 29.1928 29.8351 28.9249 29.4958C27.9036 28.1134 26.6187 26.9469 25.1442 26.0637C23.6697 25.1805 22.0348 24.5981 20.3341 24.35C18.983 24.0821 17.7093 23.5148 16.6063 22.6898C15.5034 21.8648 14.5994 20.8032 13.9608 19.5828C13.7176 19.1649 13.6099 19.2392 13.5866 19.7765C13.5617 20.5746 13.6174 21.3732 13.7526 22.1601C13.6157 22.1601 13.4774 22.1601 13.3376 22.1601C11.5941 22.1601 9.88982 21.6431 8.44018 20.6745C6.99055 19.7059 5.86069 18.3291 5.1935 16.7184C4.5263 15.1076 4.35173 13.3352 4.69187 11.6253C5.032 9.91529 5.87155 8.34459 7.10437 7.11177C8.33718 5.87896 9.90789 5.0394 11.6179 4.69926C13.3278 4.35913 15.1002 4.5337 16.711 5.2009C18.3217 5.86809 19.6985 6.99794 20.6671 8.44758C21.6357 9.89722 22.1527 11.6015 22.1527 13.345C22.1537 13.6855 22.1352 14.0258 22.0974 14.3642C21.1685 14.2477 20.2299 14.2301 19.2973 14.3118C18.9624 14.341 19.0061 14.4967 19.2624 14.5419C20.666 14.7172 21.9665 15.3706 22.945 16.392C23.9235 17.4135 24.5204 18.7408 24.6353 20.1507C24.6378 20.1666 24.6451 20.1814 24.6561 20.1931C24.6672 20.2048 24.6815 20.2129 24.6972 20.2164C24.7129 20.2198 24.7293 20.2185 24.7442 20.2125C24.7592 20.2065 24.772 20.1961 24.7809 20.1827C26.2926 17.6558 26.9254 14.6997 26.5808 11.7754C26.2362 8.85105 24.9334 6.12301 22.8757 4.01675C20.8181 1.9105 18.1211 0.544452 15.2057 0.131695C12.2902 -0.281063 9.32008 0.282673 6.75859 1.73497C4.19711 3.18727 2.18828 5.44648 1.04544 8.16021C-0.0973919 10.8739 -0.309982 13.8896 0.440837 16.7368C1.19166 19.584 2.86366 22.1027 5.19607 23.9C7.52847 25.6973 10.3901 26.6721 13.3347 26.6725C15.3004 26.6856 17.237 26.3056 20.0822 26.3056H20.0865Z" fill="#FF8C00"/>
</svg>
