<svg width="30" height="30" viewBox="0 0 30 30" fill="none" xmlns="http://www.w3.org/2000/svg">
<path d="M14.8325 0C17.0985 0.000351382 19.3343 0.519486 21.3685 1.51761C21.6874 1.66109 21.995 1.83644 22.3058 2.00542L20.9413 3.23768L18.8944 1.08879L15.3666 4.24199L13.2942 1.97832L6.80923 7.85111L10.954 12.4629L9.33441 13.8977L13.4297 18.5095L11.8085 19.9442L17.6669 26.5041L21.1341 23.2967L24.1503 26.7352C23.5279 27.2201 22.8721 27.6606 22.1879 28.0536C19.9546 29.3294 17.427 30.0003 14.8549 30C10.905 29.9632 7.12904 28.3693 4.34758 25.5645C1.56613 22.7597 0.00378667 18.9707 6.87409e-06 15.0206C-0.00377293 11.0705 1.55136 7.27844 4.32744 4.46834C7.10352 1.65824 10.8764 0.0570846 14.8262 0.0127521L14.8325 0ZM12.1018 14.0634L15.6567 10.856L18.845 14.4365L15.29 17.6439L12.1018 14.0634ZM14.6333 20.2503L18.1595 17.0142L21.3733 20.5946L17.8183 23.8036L14.6333 20.2503ZM9.57191 7.9627L13.1252 4.7553L16.3135 8.33572L12.7586 11.5431L9.57191 7.9627ZM16.0823 6.24422L18.727 3.83867L21.1182 6.50247L18.4735 8.93671L16.0823 6.24422ZM20.8042 17.2724L23.4472 14.8669L25.8384 17.5594L23.1938 19.9665L20.8042 17.2724ZM23.1363 22.6925L25.781 20.2853L28.1722 22.9491L25.5275 25.3834L23.1363 22.6925ZM24.2172 10.3188L25.9803 8.71513L27.5744 10.491L25.8114 12.0947L24.2172 10.3188ZM21.9424 5.01992L23.7055 3.38753L25.2997 5.19209L23.5333 6.7926L21.9424 5.01992ZM26.4634 15.6177L28.2265 14.014L29.8477 15.7899L28.0575 17.3936L26.4634 15.6177ZM18.5294 11.6324L21.174 9.22684L23.5652 11.8906L20.9206 14.2978L18.5294 11.6324Z" fill="#036CB5"/>
</svg>
