<svg width="30" height="30" viewBox="0 0 30 30" fill="none" xmlns="http://www.w3.org/2000/svg">
<path d="M29.5637 18.4404C28.5701 22.2783 26.0998 25.5678 22.6912 27.5921C19.2826 29.6164 15.2121 30.2112 11.3667 29.2471C9.46408 28.7906 7.67065 27.9619 6.08979 26.809C4.50892 25.656 3.17191 24.2016 2.15583 22.5295C1.13975 20.8573 0.464702 19.0006 0.1696 17.0664C-0.125503 15.1321 -0.0348335 13.1586 0.436407 11.2595C1.42946 7.42179 3.89916 4.13208 7.30724 2.10736C10.7153 0.0826461 14.7855 -0.512956 18.6309 0.450351C20.5338 0.906897 22.3276 1.73559 23.9088 2.88867C25.4899 4.04175 26.8272 5.4964 27.8435 7.16875C28.8598 8.84111 29.535 10.6981 29.8303 12.6326C30.1255 14.5672 30.0349 16.5411 29.5637 18.4404Z" fill="#F7931A"/>
<path d="M21.6207 12.743C21.9184 10.7825 20.3994 9.71517 18.3178 9.02382L18.9915 6.36695L17.3439 5.96325L16.6879 8.54947C16.2539 8.4435 15.8098 8.34258 15.3683 8.24417L16.0293 5.64028L14.3817 5.23657L13.7055 7.89346C13.3473 7.81272 12.994 7.73449 12.6534 7.64114L10.3825 7.08353L9.94349 8.81188C9.94349 8.81188 11.1647 9.08691 11.1395 9.10457C11.3637 9.13122 11.5685 9.24469 11.71 9.42064C11.8515 9.59658 11.9185 9.82099 11.8964 10.0457L11.1395 13.0735C11.1977 13.0874 11.2551 13.1051 11.3111 13.1265L11.137 13.0836L10.0596 17.325C10.0099 17.4762 9.90234 17.6014 9.76042 17.6734C9.6185 17.7453 9.45385 17.7579 9.30261 17.7085C9.32027 17.7312 8.10414 17.4158 8.10414 17.4158L7.28662 19.2678L9.43132 19.7926C9.82998 19.891 10.2211 19.9945 10.6046 20.0904L9.92331 22.7775L11.5684 23.1812L12.2446 20.5218C12.6937 20.6404 13.1302 20.7514 13.5567 20.8574L12.883 23.5042L14.5306 23.9079L15.2119 21.2258C18.0201 21.7481 20.1345 21.5361 21.0151 19.0433C21.1959 18.6899 21.3001 18.3024 21.3208 17.906C21.3416 17.5096 21.2784 17.1133 21.1356 16.743C20.9927 16.3726 20.7733 16.0367 20.4916 15.7569C20.21 15.4772 19.8725 15.2601 19.5012 15.1198C20.0651 15.0123 20.5774 14.721 20.9582 14.2914C21.3389 13.8618 21.5666 13.3182 21.6055 12.7455L21.6207 12.743ZM17.8561 17.9255C17.3515 19.944 13.9023 18.849 12.7846 18.5765L13.6904 15.0163C14.8081 15.2888 18.3885 15.8414 17.8586 17.9255H17.8561ZM18.3607 12.7152C17.8965 14.542 15.0302 13.6134 14.0991 13.3864L14.9191 10.1567C15.8552 10.3838 18.8503 10.8102 18.3658 12.7152H18.3607Z" fill="white"/>
</svg>
