<svg xmlns="http://www.w3.org/2000/svg" x="0" y="0" viewBox="0 0 73.64 55.3" xml:space="preserve"><style>.st27{fill:#0b66b0}</style><switch><g><g transform="translate(202 428.163)"><g ><path d="M-166.58-399.87h-1.72l1.07-6.58h1.71l-1.06 6.58z"/><path d="M-169.73-406.45l-1.63 4.52-.19-.97-.58-2.96a.73.73 0 0 0-.81-.59h-2.7l-.03.11c.63.16 1.24.41 1.79.75l1.49 5.71h1.79l2.73-6.58-1.86.01z"/><path d="M-156.26-399.87h1.57l-1.37-6.58h-1.38a.782.782 0 0 0-.79.49l-2.55 6.09h1.79l.36-.98h2.18l.19.98zm-1.88-2.33l.9-2.46.51 2.46h-1.41z"/><path d="M-160.65-404.87l.24-1.41c-.49-.18-1.01-.27-1.54-.29-.85 0-2.87.37-2.87 2.18 0 1.7 2.37 1.72 2.37 2.61 0 .89-2.12.73-2.83.17l-.25 1.48c.61.26 1.27.38 1.93.37 1.17 0 2.93-.6 2.93-2.25 0-1.71-2.39-1.87-2.39-2.61.01-.75 1.68-.65 2.41-.25z"/></g><path d="M-171.55-402.9l-.58-2.96a.73.73 0 0 0-.81-.59h-2.7l-.03.11c.93.24 1.8.67 2.54 1.28.71.57 1.25 1.31 1.58 2.16z" fill="#f7a535"/></g></g></switch></svg>