<svg xmlns="http://www.w3.org/2000/svg" x="0" y="0" viewBox="0 0 73.64 57.02" xml:space="preserve"><style>.st37{fill-rule:evenodd;clip-rule:evenodd;fill:#50b160}</style><switch><g><g id="mir-logo-h14px" transform="translate(205 495.162)"><linearGradient id="path10_1_" gradientUnits="userSpaceOnUse" x1="522.013" y1="312.334" x2="523.015" y2="312.334" gradientTransform="matrix(6.1878 0 0 -2.6001 -3395.142 344.206)"><stop offset="0" stop-color="#00b4e6"/><stop offset="1" stop-color="#0d8ccb"/></linearGradient><path id="path10" d="M-161-469.19h-4.03a3.171 3.171 0 0 0 2.94 2.6h3.2c.04-.14.05-.29.04-.43.01-1.18-.94-2.15-2.12-2.17h-.03z" fill-rule="evenodd" clip-rule="evenodd" fill="url(#path10_1_)"/><path id="path12" class="st37" d="M-164.68-466.37v3.25h1.95v-1.73h1.73c.94-.01 1.76-.62 2.03-1.51h-5.71z"/><path id="path14" class="st37" d="M-171.61-469.19v6.06h1.73c.28-.02.53-.18.65-.43l1.52-3.03h.22v3.46h1.95v-6.06h-1.74c-.27.04-.51.2-.65.43l-1.51 3.03h-.22v-3.46h-1.95z"/><path id="path16" class="st37" d="M-179.83-463.13v-6.06h1.95s.56 0 .87.87c.78 2.29.87 2.6.87 2.6s.17-.56.87-2.6c.3-.87.86-.87.86-.87h1.95v6.06h-1.95v-3.25h-.22l-1.08 3.25h-.87l-1.08-3.25h-.22v3.25h-1.95z"/></g></g></switch><div xmlns="" id="divScriptsUsed" style="display: none"/><script xmlns="" id="globalVarsDetection" src="chrome-extension://cmkdbmfndkfgebldhnkbfhlneefdaaip/js/wrs_env.js"/></svg>