<svg xmlns="http://www.w3.org/2000/svg" viewBox="0 0 19.699 16.001"><path d="M19.7,59.334a8.07,8.07,0,0,1-2.32.636,4.058,4.058,0,0,0,1.776-2.234,8.147,8.147,0,0,1-2.568.981A4.044,4.044,0,0,0,9.7,62.4,11.473,11.473,0,0,1,1.374,58.18a4.046,4.046,0,0,0,1.251,5.394,4.042,4.042,0,0,1-1.83-.507v.05A4.045,4.045,0,0,0,4.035,67.08a4.093,4.093,0,0,1-1.065.142,3.879,3.879,0,0,1-.761-.075,4.043,4.043,0,0,0,3.774,2.807A8.108,8.108,0,0,1,.965,71.68,8.586,8.586,0,0,1,0,71.624,11.423,11.423,0,0,0,6.2,73.442a11.418,11.418,0,0,0,11.5-11.5l-.014-.523A8.07,8.07,0,0,0,19.7,59.334Z" transform="translate(-0.001 -57.441)"/></svg>