<?xml version="1.0" encoding="utf-8"?>
<!-- Generator: Adobe Illustrator 25.1.0, SVG Export Plug-In . SVG Version: 6.00 Build 0)  -->
<svg version="1.1" id="Слой_1" xmlns="http://www.w3.org/2000/svg" xmlns:xlink="http://www.w3.org/1999/xlink" x="0px" y="0px"
	 viewBox="0 0 64 32" style="enable-background:new 0 0 64 32;" xml:space="preserve">
<style type="text/css">
	.st0{fill:#F8F7F7;}
	.st1{fill:none;stroke:#F2F2F2;stroke-linecap:round;}
	.st2{fill:#F4BD42;}
	.st3{fill:url(#SVGID_1_);}
	.st4{fill:#FFFFFF;}
	.st5{fill:none;stroke:#CFCECE;stroke-width:3;}
	.st6{enable-background:new    ;}
	.st7{fill:#CFCECE;stroke:#CFCECE;stroke-width:3;stroke-miterlimit:10;}
	.st8{fill:#010202;}
	.st9{fill:none;stroke:#F2F2F2;stroke-linecap:round;stroke-width:0.5px;}
	.st10{fill:url(#SVGID_2_);}
	.st11{fill:url(#SVGID_3_);}
	.st12{fill:url(#SVGID_4_);}
	.st13{fill:url(#SVGID_5_);}
	.st14{opacity:0.2;fill:#020203;enable-background:new    ;}
	.st15{opacity:0.12;fill:#020203;enable-background:new    ;}
	.st16{opacity:0.25;fill:#FFFFFF;enable-background:new    ;}
	.st17{fill:#FFFFFF;stroke:#FFFFFF;stroke-width:0.2;stroke-miterlimit:10;}
	.st18{fill:#020203;}
	.st19{fill:url(#SVGID_6_);}
</style>


<path class="st9" d="M59.9,24.89H4.1c-1.16,0-2.1-0.94-2.1-2.1V9.21c0-1.16,0.94-2.1,2.1-2.1H59.9c1.16,0,2.1,0.94,2.1,2.1v13.58
	C62,23.95,61.06,24.89,59.9,24.89L59.9,24.89z"/>
	
<path class="st4" d="M15.4,15.91c-0.01-1.43,1.17-2.13,1.23-2.16c-0.67-0.98-1.71-1.11-2.08-1.12c-0.87-0.09-1.72,0.52-2.17,0.52
	c-0.45,0-1.14-0.51-1.88-0.5c-0.95,0.01-1.84,0.57-2.33,1.42c-1.01,1.74-0.26,4.31,0.71,5.72c0.48,0.69,1.05,1.46,1.79,1.43
	c0.72-0.03,0.99-0.46,1.86-0.46c0.86,0,1.12,0.46,1.87,0.44c0.78-0.01,1.26-0.69,1.73-1.39c0.56-0.79,0.78-1.57,0.79-1.61
	C16.9,18.19,15.41,17.62,15.4,15.91L15.4,15.91z M13.97,11.69c0.39-0.49,0.65-1.15,0.58-1.82c-0.56,0.02-1.27,0.39-1.67,0.86
	c-0.36,0.42-0.68,1.11-0.6,1.75C12.92,12.54,13.57,12.17,13.97,11.69L13.97,11.69z"/>

<g>
	<path class="st4" d="M25.86,21.12h-1.01l-0.55-1.74h-1.92l-0.53,1.74h-0.98l1.91-5.92h1.18L25.86,21.12L25.86,21.12z M24.13,18.65
		l-0.5-1.55c-0.05-0.16-0.15-0.53-0.3-1.11h-0.02c-0.06,0.25-0.15,0.62-0.28,1.11l-0.49,1.55H24.13L24.13,18.65z M30.75,18.93
		c0,0.73-0.2,1.3-0.59,1.72c-0.35,0.37-0.79,0.56-1.32,0.56c-0.57,0-0.97-0.2-1.22-0.61v2.24h-0.95v-4.59c0-0.46-0.01-0.92-0.04-1.4
		h0.83l0.05,0.68h0.02c0.32-0.51,0.8-0.76,1.44-0.76c0.5,0,0.92,0.2,1.26,0.6C30.59,17.76,30.75,18.28,30.75,18.93L30.75,18.93z
		 M29.79,18.97c0-0.42-0.09-0.76-0.28-1.03c-0.2-0.28-0.48-0.42-0.83-0.42c-0.23,0-0.45,0.08-0.64,0.23
		c-0.19,0.16-0.31,0.36-0.37,0.61c-0.03,0.12-0.04,0.21-0.04,0.29v0.71c0,0.31,0.1,0.57,0.29,0.79c0.19,0.21,0.44,0.32,0.74,0.32
		c0.36,0,0.64-0.14,0.83-0.41C29.69,19.78,29.79,19.42,29.79,18.97L29.79,18.97z M35.66,18.93c0,0.73-0.2,1.3-0.59,1.72
		c-0.35,0.37-0.79,0.56-1.32,0.56c-0.57,0-0.97-0.2-1.22-0.61v2.24h-0.95v-4.59c0-0.46-0.01-0.92-0.04-1.4h0.83l0.05,0.68h0.02
		c0.32-0.51,0.8-0.76,1.44-0.76c0.5,0,0.92,0.2,1.26,0.6C35.49,17.76,35.66,18.28,35.66,18.93L35.66,18.93z M34.7,18.97
		c0-0.42-0.09-0.76-0.28-1.03c-0.2-0.28-0.48-0.42-0.82-0.42c-0.23,0-0.45,0.08-0.64,0.23c-0.19,0.16-0.31,0.36-0.37,0.61
		c-0.03,0.12-0.04,0.21-0.04,0.29v0.71c0,0.31,0.1,0.57,0.29,0.79c0.19,0.21,0.44,0.32,0.74,0.32c0.36,0,0.64-0.14,0.83-0.41
		C34.6,19.78,34.7,19.42,34.7,18.97L34.7,18.97z M41.15,19.46c0,0.5-0.18,0.91-0.53,1.23c-0.39,0.35-0.92,0.52-1.61,0.52
		c-0.64,0-1.15-0.12-1.53-0.37l0.22-0.79c0.42,0.25,0.87,0.37,1.37,0.37c0.36,0,0.64-0.08,0.83-0.24c0.2-0.16,0.3-0.38,0.3-0.64
		c0-0.24-0.08-0.44-0.25-0.61c-0.16-0.16-0.44-0.32-0.82-0.46c-1.04-0.39-1.55-0.95-1.55-1.7c0-0.49,0.18-0.88,0.55-1.19
		c0.37-0.31,0.85-0.47,1.45-0.47c0.54,0,0.99,0.09,1.34,0.28l-0.24,0.77c-0.34-0.18-0.71-0.27-1.14-0.27c-0.33,0-0.6,0.08-0.78,0.25
		c-0.16,0.15-0.24,0.32-0.24,0.54c0,0.23,0.09,0.43,0.27,0.58c0.16,0.14,0.44,0.29,0.86,0.46c0.51,0.21,0.88,0.44,1.12,0.72
		C41.03,18.71,41.15,19.05,41.15,19.46L41.15,19.46z M44.29,17.56h-1.05v2.07c0,0.53,0.18,0.79,0.55,0.79
		c0.17,0,0.31-0.01,0.42-0.04l0.03,0.72c-0.19,0.07-0.43,0.1-0.74,0.1c-0.37,0-0.67-0.11-0.88-0.34c-0.21-0.23-0.32-0.61-0.32-1.15
		v-2.15h-0.62v-0.71h0.62v-0.78l0.93-0.28v1.06h1.05V17.56L44.29,17.56z M49,18.95c0,0.66-0.19,1.19-0.56,1.62
		c-0.39,0.43-0.91,0.65-1.56,0.65c-0.63,0-1.13-0.21-1.5-0.62c-0.37-0.42-0.56-0.94-0.56-1.57c0-0.66,0.19-1.2,0.57-1.62
		c0.38-0.42,0.9-0.63,1.55-0.63c0.63,0,1.13,0.21,1.51,0.62C48.82,17.79,49,18.31,49,18.95L49,18.95z M48.02,18.97
		c0-0.39-0.08-0.73-0.25-1.01c-0.2-0.34-0.48-0.51-0.85-0.51c-0.38,0-0.67,0.17-0.87,0.51c-0.17,0.28-0.25,0.62-0.25,1.02
		c0,0.39,0.08,0.73,0.25,1.01c0.2,0.34,0.49,0.51,0.86,0.51c0.36,0,0.65-0.17,0.85-0.52C47.93,19.7,48.02,19.36,48.02,18.97z
		 M52.08,17.68c-0.09-0.02-0.19-0.03-0.3-0.03c-0.33,0-0.59,0.13-0.77,0.38c-0.16,0.22-0.24,0.5-0.24,0.84v2.24h-0.95v-2.92
		c0-0.49-0.01-0.94-0.03-1.34h0.83l0.03,0.82h0.03c0.1-0.28,0.26-0.51,0.47-0.68c0.21-0.15,0.44-0.23,0.69-0.23
		c0.09,0,0.17,0.01,0.24,0.02L52.08,17.68z M56.32,18.78c0,0.17-0.01,0.31-0.03,0.43h-2.84c0.01,0.42,0.15,0.74,0.41,0.97
		c0.24,0.2,0.55,0.3,0.93,0.3c0.42,0,0.81-0.07,1.15-0.2l0.15,0.66c-0.4,0.18-0.88,0.26-1.43,0.26c-0.66,0-1.18-0.19-1.56-0.58
		c-0.38-0.39-0.57-0.91-0.57-1.57c0-0.64,0.18-1.18,0.53-1.61c0.37-0.46,0.87-0.68,1.49-0.68c0.61,0,1.08,0.23,1.4,0.68
		C56.2,17.8,56.32,18.25,56.32,18.78L56.32,18.78z M55.42,18.54c0.01-0.28-0.06-0.52-0.18-0.73c-0.16-0.26-0.42-0.4-0.76-0.4
		c-0.31,0-0.56,0.13-0.75,0.39c-0.16,0.2-0.25,0.45-0.28,0.74L55.42,18.54z"/>
</g>
<g>
	<path class="st4" d="M23.68,13.08h-0.5l-0.27-0.85h-0.94l-0.26,0.85h-0.48l0.94-2.91h0.58L23.68,13.08z M22.83,11.87l-0.25-0.76
		c-0.03-0.08-0.07-0.26-0.15-0.55h-0.01c-0.03,0.12-0.07,0.31-0.14,0.55l-0.24,0.76H22.83z M26.02,10.99l-0.79,2.1h-0.45L24,10.99
		h0.5l0.36,1.11c0.06,0.19,0.11,0.36,0.15,0.53h0.01c0.03-0.15,0.09-0.33,0.15-0.53l0.35-1.11H26.02L26.02,10.99z M27.71,13.08
		l-0.03-0.24h-0.01c-0.14,0.19-0.35,0.29-0.61,0.29c-0.38,0-0.64-0.26-0.64-0.62c0-0.52,0.45-0.79,1.23-0.79v-0.04
		c0-0.28-0.15-0.41-0.44-0.41c-0.21,0-0.39,0.05-0.55,0.16l-0.09-0.31c0.19-0.12,0.44-0.18,0.72-0.18c0.55,0,0.82,0.29,0.82,0.87
		v0.77c0,0.21,0.01,0.38,0.03,0.5L27.71,13.08L27.71,13.08z M27.64,12.04c-0.52,0-0.78,0.13-0.78,0.42c0,0.22,0.13,0.33,0.32,0.33
		c0.24,0,0.46-0.18,0.46-0.43L27.64,12.04L27.64,12.04z M29.14,10.64c-0.16,0-0.28-0.12-0.28-0.28c0-0.16,0.12-0.28,0.29-0.28
		c0.16,0,0.29,0.12,0.28,0.28C29.43,10.53,29.31,10.64,29.14,10.64z M29.38,13.08h-0.47v-2.1h0.47L29.38,13.08L29.38,13.08z
		 M30.67,13.08h-0.47v-3.06h0.47L30.67,13.08L30.67,13.08z M32.65,13.08l-0.03-0.24h-0.01c-0.14,0.19-0.35,0.29-0.61,0.29
		c-0.38,0-0.64-0.26-0.64-0.62c0-0.52,0.45-0.79,1.23-0.79v-0.04c0-0.28-0.15-0.41-0.44-0.41c-0.21,0-0.39,0.05-0.55,0.16l-0.1-0.31
		c0.19-0.12,0.44-0.18,0.72-0.18c0.55,0,0.82,0.29,0.82,0.87v0.77c0,0.21,0.01,0.38,0.03,0.5L32.65,13.08L32.65,13.08z M32.59,12.04
		c-0.52,0-0.78,0.13-0.78,0.42c0,0.22,0.13,0.33,0.32,0.33c0.24,0,0.46-0.18,0.46-0.43V12.04z M34.93,13.13
		c-0.3,0-0.52-0.13-0.66-0.37h-0.01l-0.03,0.32h-0.4c0.01-0.17,0.02-0.36,0.02-0.57v-2.49h0.47v1.27h0.01
		c0.14-0.23,0.36-0.35,0.67-0.35c0.51,0,0.86,0.43,0.86,1.06C35.86,12.65,35.46,13.13,34.93,13.13L34.93,13.13z M34.84,11.31
		c-0.27,0-0.51,0.23-0.51,0.56v0.37c0,0.29,0.22,0.53,0.51,0.53c0.35,0,0.56-0.28,0.56-0.74C35.38,11.6,35.17,11.31,34.84,11.31
		L34.84,11.31z M37.01,13.08h-0.47v-3.06h0.47V13.08z M39.55,12.15h-1.4c0.01,0.4,0.27,0.62,0.66,0.62c0.21,0,0.4-0.03,0.57-0.1
		l0.07,0.32c-0.2,0.09-0.43,0.13-0.7,0.13c-0.66,0-1.04-0.41-1.04-1.06c0-0.64,0.4-1.13,0.99-1.13c0.53,0,0.87,0.4,0.87,1
		C39.57,12.02,39.56,12.09,39.55,12.15L39.55,12.15z M39.12,11.81c0-0.32-0.16-0.55-0.46-0.55c-0.27,0-0.48,0.23-0.51,0.55H39.12
		L39.12,11.81z M42.37,13.13c-0.61,0-1.01-0.46-1.01-1.08c0-0.65,0.41-1.11,1.05-1.11c0.6,0,1.01,0.44,1.01,1.07
		C43.42,12.67,43,13.13,42.37,13.13z M42.39,11.28c-0.34,0-0.55,0.31-0.55,0.76c0,0.43,0.22,0.75,0.55,0.75
		c0.33,0,0.55-0.34,0.55-0.76C42.94,11.6,42.72,11.28,42.39,11.28L42.39,11.28z M45.92,13.08h-0.47v-1.2c0-0.37-0.14-0.56-0.42-0.56
		c-0.28,0-0.47,0.24-0.47,0.51v1.25H44.1v-1.5c0-0.19,0-0.38-0.02-0.6h0.41l0.02,0.32h0.01c0.12-0.22,0.38-0.37,0.66-0.37
		c0.44,0,0.73,0.34,0.73,0.88L45.92,13.08L45.92,13.08L45.92,13.08z M48.97,11.33h-0.51v1.02c0,0.26,0.09,0.39,0.27,0.39
		c0.08,0,0.15-0.01,0.21-0.02l0.01,0.35c-0.09,0.03-0.21,0.05-0.36,0.05c-0.37,0-0.59-0.2-0.59-0.73v-1.06H47.7v-0.35H48V10.6
		l0.46-0.14v0.52h0.51V11.33L48.97,11.33z M51.44,13.08h-0.47v-1.2c0-0.38-0.14-0.57-0.42-0.57c-0.24,0-0.47,0.16-0.47,0.5v1.26
		h-0.47v-3.06h0.47v1.26h0.01c0.15-0.23,0.36-0.34,0.63-0.34c0.44,0,0.72,0.35,0.72,0.89V13.08z M53.82,12.15h-1.4
		c0.01,0.4,0.27,0.62,0.66,0.62c0.21,0,0.4-0.03,0.57-0.1l0.07,0.32c-0.2,0.09-0.43,0.13-0.7,0.13c-0.66,0-1.04-0.41-1.04-1.06
		c0-0.64,0.4-1.13,0.99-1.13c0.53,0,0.87,0.4,0.87,1C53.84,12.02,53.84,12.09,53.82,12.15L53.82,12.15z M53.4,11.81
		c0-0.32-0.16-0.55-0.46-0.55c-0.27,0-0.48,0.23-0.51,0.55H53.4z"/>
</g>
</svg>
