<?xml version="1.0" encoding="utf-8"?>
<!-- Generator: Adobe Illustrator 25.1.0, SVG Export Plug-In . SVG Version: 6.00 Build 0)  -->
<svg version="1.1" id="Слой_1" xmlns="http://www.w3.org/2000/svg" xmlns:xlink="http://www.w3.org/1999/xlink" x="0px" y="0px"
	 viewBox="0 0 64 64" style="enable-background:new 0 0 64 64;" xml:space="preserve">
<style type="text/css">
	.st0{fill:#F8F7F7;}
	.st1{fill:none;stroke:#F2F2F2;stroke-linecap:round;}
	.st2{fill:#F4BD42;}
	.st3{fill:url(#SVGID_1_);}
	.st4{fill:#FFFFFF;}
	.st5{fill:none;stroke:#CFCECE;stroke-width:3;}
	.st6{enable-background:new    ;}
	.st7{fill:#CFCECE;stroke:#CFCECE;stroke-width:3;stroke-miterlimit:10;}
	.st8{fill:#010202;}
	.st9{fill:#A6A6A6;}
	.st10{fill:url(#SVGID_2_);}
	.st11{fill:url(#SVGID_3_);}
	.st12{fill:url(#SVGID_4_);}
	.st13{fill:url(#SVGID_5_);}
	.st14{opacity:0.2;fill:#020203;enable-background:new    ;}
	.st15{opacity:0.12;fill:#020203;enable-background:new    ;}
	.st16{opacity:0.25;fill:#FFFFFF;enable-background:new    ;}
	.st17{fill:#FFFFFF;stroke:#FFFFFF;stroke-width:0.2;stroke-miterlimit:10;}
	.st18{fill:#020203;}
	.st19{fill:url(#SVGID_6_);}
</style>
<g>
	<linearGradient id="SVGID_1_" gradientUnits="userSpaceOnUse" x1="2" y1="32" x2="62" y2="32">
		<stop  offset="0" style="stop-color:#F3B445"/>
		<stop  offset="1" style="stop-color:#D17D36"/>
	</linearGradient>
	<path class="st3" d="M57.79,15.57v-7c0-3.73-11.35-6.75-25.36-6.75S7.07,4.84,7.07,8.57v6.81c-2.92,0.4-5.09,2.91-5.07,5.85v1.69
		c0.01,2.93,2.17,5.4,5.07,5.8v18.81c0,2.08,0.93,4.06,2.54,5.38v4.56c0.01,2.6,2.11,4.7,4.71,4.71h0.72
		c2.6-0.01,4.7-2.11,4.71-4.71v-2.95h25.36v2.95c0.01,2.6,2.11,4.7,4.71,4.71h0.72c2.6-0.01,4.7-2.11,4.71-4.71v-4.55
		c1.61-1.32,2.54-3.3,2.54-5.38V28.55c2.49-0.74,4.21-3.04,4.21-5.64v-1.71C62,18.6,60.29,16.31,57.79,15.57z M53.49,35.78
		c0,2.14-1.74,3.88-3.88,3.88l0,0h-34.3c-2.14,0-3.88-1.74-3.88-3.88c0,0,0,0,0,0V19.21c0-2.14,1.74-3.88,3.88-3.88l0,0h34.3
		c2.14,0,3.88,1.74,3.88,3.88c0,0,0,0,0,0V35.78z M24.62,6.65h17.32v4.84H24.62V6.65z"/>
	<path class="st4" d="M14.72,50.67c1.72-0.01,3.12-1.41,3.11-3.13c-0.01-1.72-1.41-3.12-3.13-3.11c-1.72,0.01-3.12,1.41-3.11,3.13
		c0.01,1.72,1.4,3.11,3.11,3.11H14.72z"/>
	<path class="st4" d="M50.22,50.67c1.72-0.01,3.12-1.41,3.11-3.13s-1.41-3.12-3.13-3.11c-1.72,0.01-3.12,1.41-3.11,3.13
		c0.01,1.71,1.39,3.1,3.11,3.11H50.22z"/>
</g>
</svg>
