<?xml version="1.0" encoding="utf-8"?>
<!-- Generator: Adobe Illustrator 25.1.0, SVG Export Plug-In . SVG Version: 6.00 Build 0)  -->
<svg version="1.1" id="Слой_1" xmlns="http://www.w3.org/2000/svg" xmlns:xlink="http://www.w3.org/1999/xlink" x="0px" y="0px"
	 viewBox="0 0 64 32" style="enable-background:new 0 0 64 32;" xml:space="preserve">
<style type="text/css">
	.st0{fill:#21A290;}
	.st1{fill:none;stroke:#21A290;stroke-linecap:round;}
	.st2{fill:#21A290;}
	.st3{fill:url(#SVGID_1_);}
	.st4{fill:#21A290;}
	.st5{fill:none;stroke:#21A290;stroke-width:3;}
	.st6{enable-background:new    ;}
	.st7{fill:#21A290;stroke:#21A290;stroke-width:3;stroke-miterlimit:10;}
	.st8{fill:#21A290;}
	.st9{fill:#21A290;}
	.st10{fill:url(#SVGID_2_);}
	.st11{fill:url(#SVGID_3_);}
	.st12{fill:url(#SVGID_4_);}
	.st13{fill:url(#SVGID_5_);}
	.st14{opacity:0.2;fill:#21A290;enable-background:new    ;}
	.st15{opacity:0.12;fill:#21A290;enable-background:new    ;}
	.st16{opacity:0.25;fill:#21A290;enable-background:new    ;}
	.st17{fill:#21A290;stroke:#21A290;stroke-width:0.2;stroke-miterlimit:10;}
	.st18{fill:#21A290;}
	.st19{fill:url(#SVGID_6_);}
</style>
<g id="Сгруппировать_4349" transform="translate(0.5)">
	<path id="Контур_4090" class="st0" d="M28.74,25.05c0.03-0.5,0.06-1,0.13-1.5c0.14-1.2,0.36-2.39,0.65-3.56
		c0.16-0.58,0.34-1.16,0.52-1.72c0.23-0.55,0.46-1.09,0.69-1.63c0.48-1.01,1.08-1.96,1.79-2.82c0.16-0.21,0.33-0.41,0.49-0.62
		c0.18-0.18,0.36-0.36,0.54-0.53c0.34-0.34,0.69-0.66,1.06-0.96c0.64-0.52,1.33-0.98,2.05-1.38c0.54-0.32,1.1-0.61,1.68-0.84
		c0.97-0.39,1.52-0.59,1.52-0.59s-0.47,0.37-1.29,0.98c-0.49,0.36-0.96,0.75-1.41,1.16c-0.58,0.51-1.14,1.05-1.66,1.62
		c-0.3,0.3-0.53,0.67-0.82,1.02c-0.14,0.18-0.28,0.35-0.42,0.53c-0.12,0.2-0.24,0.4-0.36,0.6c-0.52,0.84-0.97,1.72-1.34,2.64
		c-0.17,0.49-0.34,0.98-0.51,1.48c-0.12,0.52-0.25,1.05-0.4,1.57c-0.24,1.09-0.41,2.19-0.52,3.31c-0.06,0.41-0.09,0.82-0.13,1.24
		c8.97,0,15.92,0.01,25.64,0.01c0.03-0.43,0.05-0.86,0.05-1.29c0-8.19-5.96-14.93-13.64-15.82c1.03-0.96,1.08-2.57,0.13-3.59
		c-0.96-1.03-2.57-1.08-3.59-0.13c-1.03,0.96-1.08,2.57-0.13,3.59c0.04,0.04,0.08,0.09,0.13,0.13c-7.67,0.89-13.64,7.63-13.64,15.82
		c0,0.43,0.02,0.86,0.05,1.28L28.74,25.05z"/>
	<rect id="Прямоугольник_609" x="23.14" y="26" class="st0" width="36.34" height="3.21"/>
	<line id="Линия_96" class="st1" x1="4.08" y1="24.27" x2="18.7" y2="24.27"/>
	<line id="Линия_97" class="st1" x1="7.74" y1="20.62" x2="18.7" y2="20.62"/>
	<line id="Линия_98" class="st1" x1="11.39" y1="16.96" x2="18.7" y2="16.96"/>
</g>
</svg>
