<svg xmlns="http://www.w3.org/2000/svg" width="33.538" height="29.698" viewBox="0 0 33.538 29.698"><defs><style>.a{fill:#21bc96;}</style></defs><g transform="translate(0 0)"><circle class="a" cx="2.304" cy="2.304" r="2.304" transform="translate(10.337 7.328)"/><path class="a" d="M31.554,42.113a7.1,7.1,0,0,0-3.968-1.888V28.512a4.607,4.607,0,0,0-1.312-3.2A4.471,4.471,0,0,0,23.073,24H4.512a4.607,4.607,0,0,0-3.2,1.312A4.472,4.472,0,0,0,0,28.512V47.617a4.607,4.607,0,0,0,1.312,3.2,4.471,4.471,0,0,0,3.2,1.312H22.465a6.771,6.771,0,0,0,9.088-10.017ZM1.7,28.512A2.841,2.841,0,0,1,4.512,25.7H23.073a2.841,2.841,0,0,1,2.816,2.816V38.5l-4.736-4.7a.859.859,0,0,0-1.216,0L12.8,40.961,7.968,36.1a.859.859,0,0,0-1.216,0L1.7,41.217ZM4.48,50.465v-.032A2.808,2.808,0,0,1,2.5,49.6a2.921,2.921,0,0,1-.8-1.984v-4l5.7-5.7,4.832,4.832a.89.89,0,0,0,1.216,0l7.136-7.168,4.672,4.7-.288.1a2.972,2.972,0,0,0-.416.128c-.128.032-.256.1-.384.128a.958.958,0,0,0-.256.128,2.975,2.975,0,0,0-.32.16l-.48.288c-.1.064-.16.1-.256.16-.064.032-.1.064-.16.1a3.861,3.861,0,0,0-.768.672,6.77,6.77,0,0,0-1.984,4.8,7.035,7.035,0,0,0,.16,1.408c.032.128.064.224.1.352.1.32.192.64.32.96V49.7a5.87,5.87,0,0,0,.416.768Zm25.825.032a5.062,5.062,0,0,1-7.072.064c-.128-.128-.256-.288-.384-.416-.1-.1-.192-.224-.288-.32a3.039,3.039,0,0,1-.32-.544c-.064-.128-.128-.224-.192-.352a2.7,2.7,0,0,1-.16-.544c-.032-.128-.1-.288-.128-.416a5.3,5.3,0,0,1-.1-1.024,5.137,5.137,0,0,1,1.472-3.584,5,5,0,0,1,3.584-1.472,5.137,5.137,0,0,1,3.584,1.472,4.948,4.948,0,0,1,1.472,3.584A5.118,5.118,0,0,1,30.306,50.5Z" transform="translate(0 -24)"/><path class="a" d="M294.1,267.216h-1.952v-1.952a.864.864,0,1,0-1.728,0v1.952h-1.952a.864.864,0,0,0,0,1.728h1.952V270.9a.864.864,0,0,0,1.728,0v-1.952H294.1a.864.864,0,1,0,0-1.728Z" transform="translate(-264.591 -245.167)"/></g></svg>