<?xml version="1.0" encoding="utf-8"?>
<!-- Generator: Adobe Illustrator 25.1.0, SVG Export Plug-In . SVG Version: 6.00 Build 0)  -->
<svg version="1.1" id="Слой_1" xmlns="http://www.w3.org/2000/svg" xmlns:xlink="http://www.w3.org/1999/xlink" x="0px" y="0px"
	 viewBox="0 0 64 32" xml:space="preserve">
<style type="text/css">
	.st0{fill:#F8F7F7;}
	.st1{fill:none;stroke:#F2F2F2;stroke-linecap:round;}
	.st2{fill:#F4BD42;}
	.st3{fill:url(#SVGID_1_);}
	.st4{fill:#FFFFFF;}
	.st5{fill:none;stroke:#CFCECE;stroke-width:3;}
	.st7{fill:#CFCECE;stroke:#CFCECE;stroke-width:3;stroke-miterlimit:10;}
	.st9{fill:none;stroke:#F2F2F2;stroke-linecap:round;stroke-width:0.5px;}
	.st10{fill:url(#SVGID_2_);}
	.st11{fill:url(#SVGID_3_);}
	.st12{fill:url(#SVGID_4_);}
	.st13{fill:url(#SVGID_5_);}
	.st16{opacity:0.25;fill:#FFFFFF;enable-background:new    ;}
	.st17{fill:#FFFFFF;stroke:#FFFFFF;stroke-width:0.2;stroke-miterlimit:10;}
	.st19{fill:url(#SVGID_6_);}
</style>


<path class="st9" d="M59.9,24.89H4.1c-1.16,0-2.1-0.94-2.1-2.1V9.21c0-1.16,0.94-2.1,2.1-2.1H59.9c1.16,0,2.1,0.94,2.1,2.1v13.58
	C62,23.95,61.06,24.89,59.9,24.89L59.9,24.89z"/>

<g>

	<path class="st4" d="M32.28,16.78c-1.05,0-1.9,0.79-1.9,1.89c0,1.09,0.85,1.89,1.9,1.89c1.05,0,1.9-0.8,1.9-1.89
		C34.18,17.57,33.33,16.78,32.28,16.78z M32.28,19.81c-0.57,0-1.07-0.47-1.07-1.15c0-0.68,0.49-1.15,1.07-1.15s1.07,0.47,1.07,1.15
		C33.35,19.34,32.86,19.81,32.28,19.81z M28.14,16.78c-1.05,0-1.9,0.79-1.9,1.89c0,1.09,0.85,1.89,1.9,1.89c1.05,0,1.9-0.8,1.9-1.89
		C30.04,17.57,29.19,16.78,28.14,16.78z M28.14,19.81c-0.57,0-1.07-0.47-1.07-1.15c0-0.68,0.49-1.15,1.07-1.15
		c0.57,0,1.07,0.47,1.07,1.15C29.21,19.34,28.72,19.81,28.14,19.81z M23.22,17.36v0.8h1.92c-0.06,0.45-0.21,0.78-0.44,1.01
		c-0.28,0.28-0.72,0.59-1.48,0.59c-1.18,0-2.11-0.95-2.11-2.13c0-1.18,0.92-2.13,2.11-2.13c0.64,0,1.1,0.25,1.45,0.57l0.57-0.57
		c-0.48-0.46-1.12-0.81-2.01-0.81c-1.62,0-2.98,1.32-2.98,2.94c0,1.62,1.36,2.94,2.98,2.94c0.87,0,1.53-0.29,2.05-0.82
		c0.53-0.53,0.69-1.27,0.69-1.88c0-0.19-0.01-0.36-0.04-0.5H23.22z M43.36,17.98c-0.16-0.42-0.64-1.2-1.62-1.2
		c-0.97,0-1.78,0.77-1.78,1.89c0,1.06,0.8,1.89,1.88,1.89c0.87,0,1.37-0.53,1.58-0.84l-0.64-0.43c-0.21,0.32-0.51,0.52-0.93,0.52
		c-0.42,0-0.72-0.19-0.92-0.57l2.53-1.05L43.36,17.98z M40.78,18.61c-0.02-0.73,0.57-1.1,0.99-1.1c0.33,0,0.61,0.16,0.7,0.4
		L40.78,18.61z M38.72,20.44h0.83v-5.56h-0.83V20.44z M37.36,17.2h-0.03c-0.19-0.22-0.54-0.42-1-0.42c-0.95,0-1.81,0.83-1.81,1.9
		c0,1.06,0.87,1.88,1.81,1.88c0.45,0,0.81-0.2,1-0.43h0.03v0.27c0,0.72-0.39,1.11-1.01,1.11c-0.51,0-0.82-0.37-0.95-0.67l-0.72,0.3
		c0.21,0.5,0.76,1.12,1.68,1.12c0.97,0,1.8-0.57,1.8-1.97v-3.39h-0.79V17.2z M36.41,19.81c-0.57,0-1.05-0.48-1.05-1.14
		c0-0.67,0.48-1.15,1.05-1.15c0.57,0,1.01,0.49,1.01,1.15C37.42,19.33,36.98,19.81,36.41,19.81z M47.25,14.89h-1.99v5.56h0.83v-2.11
		h1.16c0.92,0,1.82-0.67,1.82-1.73S48.17,14.89,47.25,14.89z M47.27,17.57h-1.18v-1.9h1.18c0.62,0,0.97,0.51,0.97,0.95
		C48.24,17.04,47.89,17.57,47.27,17.57z M52.39,16.77c-0.6,0-1.22,0.26-1.48,0.85l0.74,0.31c0.16-0.31,0.45-0.41,0.76-0.41
		c0.43,0,0.86,0.26,0.87,0.71v0.06c-0.15-0.09-0.47-0.21-0.86-0.21c-0.79,0-1.6,0.44-1.6,1.25c0,0.74,0.65,1.22,1.38,1.22
		c0.56,0,0.86-0.25,1.06-0.54h0.03v0.43h0.8v-2.13C54.08,17.32,53.34,16.77,52.39,16.77z M52.29,19.81c-0.27,0-0.65-0.14-0.65-0.47
		c0-0.43,0.47-0.59,0.88-0.59c0.36,0,0.54,0.08,0.76,0.19C53.22,19.45,52.77,19.81,52.29,19.81z M57,16.89l-0.95,2.41h-0.03
		l-0.99-2.41h-0.89l1.48,3.37l-0.84,1.87h0.86l2.28-5.24H57z M49.53,20.44h0.83v-5.56h-0.83V20.44z"/>
	<g>
		
			<linearGradient id="SVGID_1_" gradientUnits="userSpaceOnUse" x1="11.6887" y1="23.0179" x2="4.2299" y2="15.5591" gradientTransform="matrix(1 0 0 -1 0 34)">
			<stop  offset="0" style="stop-color:#4696D2"/>
			<stop  offset="6.574450e-03" style="stop-color:#4598D3"/>
			<stop  offset="0.2601" style="stop-color:#3FB9EB"/>
			<stop  offset="0.5122" style="stop-color:#4AC1ED"/>
			<stop  offset="0.7604" style="stop-color:#5CC4E6"/>
			<stop  offset="1" style="stop-color:#60C4E5"/>
		</linearGradient>
		<path class="st3" d="M6.64,10.46c-0.13,0.14-0.21,0.35-0.21,0.62v9.83c0,0.28,0.08,0.49,0.21,0.62l0.03,0.03l5.51-5.51V16v-0.06
			l-5.51-5.51L6.64,10.46z"/>
		
			<linearGradient id="SVGID_2_" gradientUnits="userSpaceOnUse" x1="17.0375" y1="17.9994" x2="6.2833" y2="17.9994" gradientTransform="matrix(1 0 0 -1 0 34)">
			<stop  offset="0" style="stop-color:#FFE00A"/>
			<stop  offset="0.4087" style="stop-color:#FBBC0F"/>
			<stop  offset="0.7754" style="stop-color:#F7A418"/>
			<stop  offset="1" style="stop-color:#F59A1B"/>
		</linearGradient>
		<path class="st10" d="M14.01,17.9l-1.84-1.84V16v-0.06l1.84-1.84l0.04,0.02l2.17,1.24c0.62,0.35,0.62,0.93,0,1.28l-2.17,1.24
			L14.01,17.9z"/>
		
			<linearGradient id="SVGID_3_" gradientUnits="userSpaceOnUse" x1="13.0342" y1="16.9795" x2="2.9194" y2="6.8647" gradientTransform="matrix(1 0 0 -1 0 34)">
			<stop  offset="0" style="stop-color:#E8404A"/>
			<stop  offset="1" style="stop-color:#C31262"/>
		</linearGradient>
		<path class="st11" d="M14.05,17.88L12.18,16l-5.54,5.54c0.2,0.22,0.54,0.24,0.92,0.03L14.05,17.88"/>
		
			<linearGradient id="SVGID_4_" gradientUnits="userSpaceOnUse" x1="5.2432" y1="26.8106" x2="9.7599" y2="22.2939" gradientTransform="matrix(1 0 0 -1 0 34)">
			<stop  offset="0" style="stop-color:#32A071"/>
			<stop  offset="0.0685" style="stop-color:#2DA771"/>
			<stop  offset="0.4762" style="stop-color:#4FB26F"/>
			<stop  offset="0.8009" style="stop-color:#61B668"/>
			<stop  offset="1" style="stop-color:#64B664"/>
		</linearGradient>
		<path class="st12" d="M14.05,14.12l-6.49-3.69c-0.38-0.22-0.72-0.19-0.92,0.03L12.18,16L14.05,14.12z"/>
		<g>
			<path class="st14" d="M14.01,17.84L7.56,21.5c-0.36,0.21-0.68,0.19-0.89,0l0,0l-0.03,0.03l0,0l0.03,0.03l0,0
				c0.21,0.19,0.53,0.2,0.89,0l6.49-3.69L14.01,17.84z"/>
			<path class="st15" d="M6.64,21.47c-0.13-0.14-0.21-0.35-0.21-0.62v0.06c0,0.28,0.08,0.49,0.21,0.62l0.03-0.03L6.64,21.47z"/>
		</g>
		<path class="st15" d="M16.23,16.58l-2.22,1.26l0.04,0.04l2.17-1.24c0.31-0.18,0.47-0.41,0.47-0.64l0,0
			C16.67,16.21,16.51,16.42,16.23,16.58z"/>
		<path class="st16" d="M7.56,10.5l8.67,4.92c0.28,0.16,0.44,0.37,0.47,0.58l0,0c0-0.23-0.16-0.47-0.47-0.64l-8.67-4.92
			c-0.62-0.35-1.13-0.06-1.13,0.65v0.06C6.43,10.44,6.94,10.15,7.56,10.5z"/>
	</g>
	<g>
		<path class="st17" d="M20.72,13.45h-0.33v-0.89h0.26c0.23-0.2,0.34-0.54,0.34-1.02v-1.32h1.78v2.34h0.3v0.89h-0.33v-0.57h-2.02
			V13.45z M21.33,11.54c0.01,0.42-0.08,0.76-0.25,1.02h1.35v-2.01h-1.1V11.54z"/>
		<path class="st17" d="M25.74,12.54c-0.26,0.27-0.59,0.4-0.98,0.4c-0.39,0-0.72-0.13-0.98-0.4c-0.26-0.27-0.39-0.6-0.39-0.99
			s0.13-0.72,0.39-0.99c0.26-0.27,0.59-0.4,0.98-0.4c0.39,0,0.71,0.14,0.98,0.41c0.26,0.27,0.39,0.6,0.39,0.99
			C26.13,11.95,26,12.27,25.74,12.54z M24.04,12.32c0.2,0.2,0.44,0.3,0.72,0.3c0.29,0,0.53-0.1,0.72-0.3c0.2-0.2,0.3-0.46,0.3-0.77
			s-0.1-0.57-0.3-0.77c-0.2-0.2-0.44-0.3-0.72-0.3c-0.29,0-0.53,0.1-0.72,0.3c-0.2,0.2-0.3,0.46-0.3,0.77S23.84,12.12,24.04,12.32z"
			/>
		<path class="st17" d="M27.86,12.95c-0.39,0-0.72-0.13-0.99-0.4c-0.27-0.27-0.4-0.6-0.4-0.99s0.13-0.73,0.4-0.99
			c0.27-0.27,0.59-0.4,0.99-0.4c0.4,0,0.73,0.15,0.98,0.44l-0.24,0.23c-0.18-0.23-0.43-0.34-0.74-0.34c-0.29,0-0.54,0.1-0.74,0.29
			c-0.2,0.2-0.3,0.45-0.3,0.77s0.1,0.57,0.3,0.77c0.2,0.2,0.44,0.29,0.74,0.29c0.32,0,0.59-0.13,0.82-0.39l0.24,0.24
			c-0.12,0.15-0.27,0.26-0.46,0.35C28.27,12.91,28.07,12.95,27.86,12.95z"/>
		<path class="st17" d="M30.3,12.89h-0.34v-2.34h-0.74v-0.33h1.83v0.33H30.3V12.89z"/>
		<path class="st17" d="M33.4,10.22l-1.01,2.25c-0.14,0.32-0.35,0.48-0.62,0.48c-0.08,0-0.17-0.02-0.26-0.06l0.09-0.32
			c0.06,0.03,0.12,0.05,0.18,0.05c0.08,0,0.14-0.02,0.18-0.05c0.04-0.03,0.08-0.09,0.12-0.17l0.1-0.21l-0.9-1.97h0.4l0.66,1.53h0.01
			L33,10.22H33.4z"/>
		<path class="st17" d="M33.79,12.89v-2.67h1.93v2.67h-0.34v-2.34h-1.24v2.34H33.79z"/>
		<path class="st17" d="M36.33,12.89v-2.67h0.34v1.14H38v-1.14h0.34v2.67H38v-1.2h-1.33v1.2H36.33z"/>
		<path class="st17" d="M41.14,12.54c-0.26,0.27-0.59,0.4-0.98,0.4c-0.39,0-0.72-0.13-0.98-0.4c-0.26-0.27-0.39-0.6-0.39-0.99
			s0.13-0.72,0.39-0.99c0.26-0.27,0.59-0.4,0.98-0.4c0.39,0,0.71,0.14,0.98,0.41c0.26,0.27,0.39,0.6,0.39,0.99
			C41.53,11.95,41.4,12.27,41.14,12.54z M39.43,12.32c0.2,0.2,0.44,0.3,0.72,0.3c0.29,0,0.53-0.1,0.72-0.3
			c0.2-0.2,0.3-0.46,0.3-0.77s-0.1-0.57-0.3-0.77c-0.2-0.2-0.44-0.3-0.72-0.3c-0.29,0-0.53,0.1-0.72,0.3c-0.2,0.2-0.3,0.46-0.3,0.77
			S39.24,12.12,39.43,12.32z"/>
		<path class="st17" d="M42.93,12.89v-2.67h0.96c0.21,0,0.39,0.07,0.54,0.21c0.15,0.14,0.23,0.31,0.23,0.52
			c0,0.13-0.03,0.24-0.1,0.34c-0.07,0.1-0.15,0.17-0.26,0.22v0.01c0.13,0.04,0.24,0.12,0.32,0.23c0.08,0.11,0.13,0.24,0.13,0.38
			c0,0.22-0.08,0.4-0.24,0.54c-0.16,0.14-0.35,0.22-0.57,0.22H42.93z M43.27,11.37h0.62c0.13,0,0.23-0.04,0.31-0.13
			c0.08-0.09,0.12-0.18,0.12-0.28s-0.04-0.2-0.11-0.28c-0.08-0.08-0.18-0.13-0.3-0.13h-0.64V11.37z M43.27,12.56h0.69
			c0.13,0,0.24-0.05,0.32-0.14c0.08-0.09,0.12-0.19,0.12-0.3c0-0.11-0.04-0.21-0.13-0.3c-0.08-0.09-0.19-0.14-0.33-0.14h-0.67V12.56
			z"/>
	</g>
</g>
</svg>
