<?xml version="1.0" encoding="utf-8"?>
<!-- Generator: Adobe Illustrator 25.1.0, SVG Export Plug-In . SVG Version: 6.00 Build 0)  -->
<svg version="1.1" id="Слой_1" xmlns="http://www.w3.org/2000/svg" xmlns:xlink="http://www.w3.org/1999/xlink" x="0px" y="0px"
	 viewBox="0 0 64 64" style="enable-background:new 0 0 64 64;" xml:space="preserve">
<style type="text/css">
	.st0{fill:#F8F7F7;}
	.st1{fill:none;stroke:#F2F2F2;stroke-linecap:round;}
	.st2{fill:#F4BD42;}
	.st3{fill:url(#SVGID_1_);}
	.st4{fill:#FFFFFF;}
	.st5{fill:none;stroke:#CFCECE;stroke-width:3;}
	.st6{enable-background:new    ;}
	.st7{fill:#CFCECE;stroke:#CFCECE;stroke-width:3;stroke-miterlimit:10;}
	.st8{fill:#010202;}
	.st9{fill:#A6A6A6;}
	.st10{fill:url(#SVGID_2_);}
	.st11{fill:url(#SVGID_3_);}
	.st12{fill:url(#SVGID_4_);}
	.st13{fill:url(#SVGID_5_);}
	.st14{opacity:0.2;fill:#020203;enable-background:new    ;}
	.st15{opacity:0.12;fill:#020203;enable-background:new    ;}
	.st16{opacity:0.25;fill:#FFFFFF;enable-background:new    ;}
	.st17{fill:#FFFFFF;stroke:#FFFFFF;stroke-width:0.2;stroke-miterlimit:10;}
	.st18{fill:#020203;}
	.st19{fill:url(#SVGID_6_);}
</style>
<circle class="st4" cx="32" cy="32" r="30"/>
<circle class="st5" cx="32" cy="32" r="28"/>
<g class="st6">
	<path class="st7" d="M32.92,38.8H30.8c0-2.35,0.91-4.51,2.72-6.48c0.24-0.27,0.68-0.72,1.32-1.36s1.11-1.14,1.42-1.5
		c0.31-0.36,0.67-0.82,1.08-1.38c0.41-0.56,0.71-1.11,0.9-1.66s0.28-1.1,0.28-1.66c0-1.66-0.54-2.93-1.62-3.82
		c-1.08-0.89-2.57-1.34-4.46-1.34c-1.62,0-3.01,0.37-4.16,1.12c-1.14,0.75-1.93,1.79-2.36,3.12l-1.8-1c0.56-1.65,1.59-2.95,3.1-3.88
		s3.25-1.4,5.22-1.4c2.38,0,4.34,0.64,5.88,1.92c1.57,1.25,2.36,3.01,2.36,5.28c0,2-0.92,3.95-2.76,5.84
		c-0.13,0.16-0.44,0.48-0.92,0.96c-0.48,0.48-0.82,0.83-1.02,1.04c-0.2,0.21-0.5,0.55-0.9,1.02c-0.4,0.46-0.69,0.87-0.88,1.2
		s-0.4,0.73-0.64,1.18c-0.24,0.45-0.41,0.91-0.5,1.38C32.97,37.85,32.92,38.32,32.92,38.8z M33.68,44.6c0,0.5-0.18,0.93-0.52,1.28
		c-0.35,0.35-0.77,0.52-1.28,0.52c-0.51,0-0.93-0.17-1.28-0.52c-0.34-0.34-0.52-0.77-0.52-1.28c0-0.51,0.18-0.93,0.52-1.28
		c0.35-0.35,0.77-0.52,1.28-0.52c0.51,0,0.93,0.17,1.28,0.52C33.51,43.67,33.68,44.09,33.68,44.6z"/>
</g>
</svg>
