<?xml version="1.0" encoding="utf-8"?>
<!-- Generator: Adobe Illustrator 25.1.0, SVG Export Plug-In . SVG Version: 6.00 Build 0)  -->
<svg version="1.1" id="Слой_1" xmlns="http://www.w3.org/2000/svg" xmlns:xlink="http://www.w3.org/1999/xlink" x="0px" y="0px"
	 viewBox="0 0 32 32" style="enable-background:new 0 0 32 32;" xml:space="preserve">
<style type="text/css">
	.st0{fill:#F8F7F7;}
	.st1{fill:none;stroke:#F2F2F2;stroke-linecap:round;}
	.st2{fill:#F4BD42;}
	.st3{fill:url(#SVGID_1_);}
	.st4{fill:#FFFFFF;}
	.st5{fill:none;stroke:#CFCECE;stroke-width:3;}
	.st6{enable-background:new    ;}
	.st7{fill:#CFCECE;stroke:#CFCECE;stroke-width:3;stroke-miterlimit:10;}
	.st8{fill:#010202;}
	.st9{fill:#A6A6A6;}
	.st10{fill:url(#SVGID_2_);}
	.st11{fill:url(#SVGID_3_);}
	.st12{fill:url(#SVGID_4_);}
	.st13{fill:url(#SVGID_5_);}
	.st14{opacity:0.2;fill:#020203;enable-background:new    ;}
	.st15{opacity:0.12;fill:#020203;enable-background:new    ;}
	.st16{opacity:0.25;fill:#FFFFFF;enable-background:new    ;}
	.st17{fill:#FFFFFF;stroke:#FFFFFF;stroke-width:0.2;stroke-miterlimit:10;}
	.st18{fill:#020203;}
	.st19{fill:url(#SVGID_6_);}
</style>
<path id="star_4_" class="st2" d="M17.45,1.94l3.38,7.17c0.23,0.49,0.68,0.84,1.22,0.93l7.57,1.15c0.93,0.18,1.53,1.08,1.34,2.01
	c-0.07,0.33-0.23,0.63-0.46,0.87l-5.46,5.58c-0.38,0.4-0.56,0.95-0.47,1.5l1.29,7.88c0.18,0.88-0.39,1.75-1.27,1.93
	c-0.36,0.07-0.74,0.02-1.07-0.15l-6.77-3.72c-0.47-0.26-1.03-0.26-1.5,0l-6.77,3.72c-0.8,0.41-1.79,0.1-2.2-0.71
	c-0.17-0.33-0.22-0.71-0.15-1.07l1.29-7.89c0.09-0.55-0.08-1.1-0.47-1.5l-5.47-5.57c-0.66-0.67-0.66-1.76,0.01-2.42
	c0.24-0.24,0.54-0.4,0.87-0.46l7.57-1.15c0.53-0.09,0.99-0.43,1.22-0.93l3.38-7.17c0.36-0.8,1.29-1.16,2.09-0.81
	C17,1.3,17.29,1.58,17.45,1.94z"/>
</svg>
