<svg xmlns="http://www.w3.org/2000/svg" x="0" y="0" viewBox="0 0 68.73 65.04" xml:space="preserve"><style/><switch><g><g><path d="M35.53 25.8h.13c.17.05.32.15.43.28.22.21.95.9 1.04 1.03.32-.07 1.61-.43 1.82-.43.45 0 .49.49.59.84l.16.55c.06.18.11.37.15.57.15.01.95.24 1.15.3.36.1.87.14.87.57 0 .21-.37 1.45-.45 1.77.14.09.85.81 1.07 1.03.13.1.22.25.27.41v.13c-.05.17-.15.31-.29.42-.22.21-.92.93-1.06 1.01.07.3.16.58.24.89.1.29.17.58.21.88 0 .44-.5.47-.87.57-.18.05-.39.11-.57.15-.19.06-.39.11-.58.14-.01.14-.25.93-.31 1.12-.11.35-.14.84-.59.84-.21 0-1.5-.36-1.82-.43-.09.13-.84.83-1.06 1.04a.81.81 0 0 1-.42.26h-.13a.898.898 0 0 1-.43-.28c-.22-.21-.95-.9-1.04-1.03-.32.07-1.61.43-1.82.43-.45 0-.49-.49-.59-.84-.06-.19-.29-.98-.31-1.12-.15-.01-.95-.24-1.15-.3-.36-.1-.87-.14-.87-.57 0-.21.37-1.45.45-1.77-.14-.09-.85-.81-1.07-1.03a.823.823 0 0 1-.27-.41v-.12c.05-.17.15-.31.29-.42.22-.21.92-.93 1.06-1.01-.07-.3-.16-.58-.24-.89-.1-.29-.17-.58-.21-.88 0-.44.5-.47.87-.57.18-.05.39-.11.57-.15.19-.06.39-.11.58-.14a3 3 0 0 1 .15-.57l.16-.55c.11-.35.14-.84.59-.84.21 0 1.5.36 1.82.43.22-.25.46-.48.71-.7l.35-.34c.11-.13.26-.22.42-.27zm-2.6 9.09c-.01.25.19.46.44.46h.04c.28 0 .55-.33.71-.48l3.63-3.52c.23-.22.51-.4.51-.76a.461.461 0 0 0-.48-.41c-.28 0-.55.33-.71.48l-.6.59-3.03 2.94c-.16.16-.51.41-.51.7zm2.97-.36c-.02.38.11.75.37 1.03.57.66 1.56.74 2.22.17.35-.3.55-.74.55-1.2-.06-.87-.81-1.52-1.67-1.46-.79.05-1.42.68-1.47 1.46zm.95.08a.617.617 0 1 0 0-.11v.11zm-4.7-3.67c-.03.87.66 1.59 1.52 1.62.87.03 1.59-.66 1.62-1.52s-.66-1.59-1.52-1.62h-.05a1.53 1.53 0 0 0-1.57 1.52zm.95.03a.617.617 0 0 0 1.23 0 .617.617 0 1 0-1.23-.13v.13z" fill-rule="evenodd" clip-rule="evenodd" fill="#c4c4c4"/></g></g></switch></svg>